<?xml version="1.0" encoding="UTF-8" standalone="no"?>
<!DOCTYPE svg PUBLIC "-//W3C//DTD SVG 1.1//EN"
 "http://www.w3.org/Graphics/SVG/1.1/DTD/svg11.dtd">
<!-- Generated by graphviz version 2.40.1 (20161225.0304)
 -->
<!-- Title: Computations Pages: 1 -->
<svg width="636pt" height="332pt"
 viewBox="0.00 0.00 636.00 332.00" xmlns="http://www.w3.org/2000/svg" xmlns:xlink="http://www.w3.org/1999/xlink">
<g id="graph0" class="graph" transform="scale(1 1) rotate(0) translate(4 328)">
<title>Computations</title>
<polygon fill="#ffffff" stroke="transparent" points="-4,4 -4,-328 632,-328 632,4 -4,4"/>
<!-- 140335589754672 -->
<g id="node1" class="node">
<title>140335589754672</title>
<polygon fill="#ffff00" stroke="#000000" points="481.5,-36 407.5,-36 407.5,0 481.5,0 481.5,-36"/>
<text text-anchor="middle" x="444.5" y="-14.3" font-family="Times,serif" font-size="14.00" fill="#000000">Multiply()</text>
</g>
<!-- 140335590951904 -->
<g id="node2" class="node">
<title>140335590951904</title>
<polygon fill="#ffffff" stroke="#000000" points="587.5,-108 457.5,-108 457.5,-72 587.5,-72 587.5,-108"/>
<text text-anchor="middle" x="522.5" y="-86.3" font-family="Times,serif" font-size="14.00" fill="#000000">AWeightingVector()</text>
</g>
<!-- 140335590951904&#45;&gt;140335589754672 -->
<g id="edge1" class="edge">
<title>140335590951904&#45;&gt;140335589754672</title>
<path fill="none" stroke="#000000" d="M469.5,-71.8314C469.5,-71.8314 469.5,-46.4133 469.5,-46.4133"/>
<polygon fill="#000000" stroke="#000000" points="473.0001,-46.4132 469.5,-36.4133 466.0001,-46.4133 473.0001,-46.4132"/>
</g>
<!-- 140335589754528 -->
<g id="node3" class="node">
<title>140335589754528</title>
<polygon fill="#ffff00" stroke="#000000" points="439.5,-108 293.5,-108 293.5,-72 439.5,-72 439.5,-108"/>
<text text-anchor="middle" x="366.5" y="-86.3" font-family="Times,serif" font-size="14.00" fill="#000000">FastFourierTransform()</text>
</g>
<!-- 140335589754528&#45;&gt;140335589754672 -->
<g id="edge2" class="edge">
<title>140335589754528&#45;&gt;140335589754672</title>
<path fill="none" stroke="#000000" d="M423.5,-71.8314C423.5,-71.8314 423.5,-46.4133 423.5,-46.4133"/>
<polygon fill="#000000" stroke="#000000" points="427.0001,-46.4132 423.5,-36.4133 420.0001,-46.4133 427.0001,-46.4132"/>
</g>
<!-- 140335589754336 -->
<g id="node4" class="node">
<title>140335589754336</title>
<polygon fill="#ffff00" stroke="#000000" points="318.5,-180 244.5,-180 244.5,-144 318.5,-144 318.5,-180"/>
<text text-anchor="middle" x="281.5" y="-158.3" font-family="Times,serif" font-size="14.00" fill="#000000">Multiply()</text>
</g>
<!-- 140335589754336&#45;&gt;140335589754528 -->
<g id="edge3" class="edge">
<title>140335589754336&#45;&gt;140335589754528</title>
<path fill="none" stroke="#000000" d="M306,-143.8314C306,-143.8314 306,-118.4133 306,-118.4133"/>
<polygon fill="#000000" stroke="#000000" points="309.5001,-118.4132 306,-108.4133 302.5001,-118.4133 309.5001,-118.4132"/>
</g>
<!-- 140335590994656 -->
<g id="node5" class="node">
<title>140335590994656</title>
<polygon fill="#ffffff" stroke="#000000" points="515,-252 364,-252 364,-216 515,-216 515,-252"/>
<text text-anchor="middle" x="439.5" y="-230.3" font-family="Times,serif" font-size="14.00" fill="#000000">Constant(constant=0.02)</text>
</g>
<!-- 140335590994656&#45;&gt;140335589754528 -->
<g id="edge4" class="edge">
<title>140335590994656&#45;&gt;140335589754528</title>
<path fill="none" stroke="#000000" d="M390.5,-215.7623C390.5,-215.7623 390.5,-118.0896 390.5,-118.0896"/>
<polygon fill="#000000" stroke="#000000" points="394.0001,-118.0896 390.5,-108.0896 387.0001,-118.0897 394.0001,-118.0896"/>
</g>
<!-- 140335590951328 -->
<g id="node9" class="node">
<title>140335590951328</title>
<polygon fill="#ffffff" stroke="#000000" points="628,-180 417,-180 417,-144 628,-144 628,-180"/>
<text text-anchor="middle" x="522.5" y="-158.3" font-family="Times,serif" font-size="14.00" fill="#000000">FastFourierTransformFrequencies()</text>
</g>
<!-- 140335590994656&#45;&gt;140335590951328 -->
<g id="edge11" class="edge">
<title>140335590994656&#45;&gt;140335590951328</title>
<path fill="none" stroke="#000000" d="M466,-215.8314C466,-215.8314 466,-190.4133 466,-190.4133"/>
<polygon fill="#000000" stroke="#000000" points="469.5001,-190.4132 466,-180.4133 462.5001,-190.4133 469.5001,-190.4132"/>
</g>
<!-- 140335590951808 -->
<g id="node6" class="node">
<title>140335590951808</title>
<polygon fill="#ffffff" stroke="#000000" points="345.5,-252 217.5,-252 217.5,-216 345.5,-216 345.5,-252"/>
<text text-anchor="middle" x="281.5" y="-230.3" font-family="Times,serif" font-size="14.00" fill="#000000">HammingWindow()</text>
</g>
<!-- 140335590951808&#45;&gt;140335589754336 -->
<g id="edge5" class="edge">
<title>140335590951808&#45;&gt;140335589754336</title>
<path fill="none" stroke="#000000" d="M281.5,-215.8314C281.5,-215.8314 281.5,-190.4133 281.5,-190.4133"/>
<polygon fill="#000000" stroke="#000000" points="285.0001,-190.4132 281.5,-180.4133 278.0001,-190.4133 285.0001,-190.4132"/>
</g>
<!-- 140335590951856 -->
<g id="node7" class="node">
<title>140335590951856</title>
<polygon fill="#ffff00" stroke="#000000" points="199,-252 0,-252 0,-216 199,-216 199,-252"/>
<text text-anchor="middle" x="99.5" y="-230.3" font-family="Times,serif" font-size="14.00" fill="#000000">AudioSource(audio_input=None)</text>
</g>
<!-- 140335590951856&#45;&gt;140335589754336 -->
<g id="edge6" class="edge">
<title>140335590951856&#45;&gt;140335589754336</title>
<path fill="none" stroke="#000000" d="M99.5,-215.8314C99.5,-194.502 99.5,-162 99.5,-162 99.5,-162 234.2304,-162 234.2304,-162"/>
<polygon fill="#000000" stroke="#000000" points="234.2304,-165.5001 244.2304,-162 234.2304,-158.5001 234.2304,-165.5001"/>
</g>
<!-- 140335614800800 -->
<g id="node8" class="node">
<title>140335614800800</title>
<polygon fill="#ffffff" stroke="#000000" points="355,-324 208,-324 208,-288 355,-288 355,-324"/>
<text text-anchor="middle" x="281.5" y="-302.3" font-family="Times,serif" font-size="14.00" fill="#000000">Constant(constant=200)</text>
</g>
<!-- 140335614800800&#45;&gt;140335590951808 -->
<g id="edge8" class="edge">
<title>140335614800800&#45;&gt;140335590951808</title>
<path fill="none" stroke="#000000" d="M281.5,-287.8314C281.5,-287.8314 281.5,-262.4133 281.5,-262.4133"/>
<polygon fill="#000000" stroke="#000000" points="285.0001,-262.4132 281.5,-252.4133 278.0001,-262.4133 285.0001,-262.4132"/>
</g>
<!-- 140335614800800&#45;&gt;140335590951856 -->
<g id="edge7" class="edge">
<title>140335614800800&#45;&gt;140335590951856</title>
<path fill="none" stroke="#000000" d="M212.75,-287.8314C212.75,-266.502 212.75,-234 212.75,-234 212.75,-234 209.314,-234 209.314,-234"/>
<polygon fill="#000000" stroke="#000000" points="209.314,-230.5001 199.314,-234 209.314,-237.5001 209.314,-230.5001"/>
</g>
<!-- 140335614800800&#45;&gt;140335590951328 -->
<g id="edge10" class="edge">
<title>140335614800800&#45;&gt;140335590951328</title>
<path fill="none" stroke="#000000" d="M350.25,-287.7623C350.25,-249.0139 350.25,-162 350.25,-162 350.25,-162 406.8463,-162 406.8463,-162"/>
<polygon fill="#000000" stroke="#000000" points="406.8464,-165.5001 416.8463,-162 406.8463,-158.5001 406.8464,-165.5001"/>
</g>
<!-- 140335590951328&#45;&gt;140335590951904 -->
<g id="edge9" class="edge">
<title>140335590951328&#45;&gt;140335590951904</title>
<path fill="none" stroke="#000000" d="M522.5,-143.8314C522.5,-143.8314 522.5,-118.4133 522.5,-118.4133"/>
<polygon fill="#000000" stroke="#000000" points="526.0001,-118.4132 522.5,-108.4133 519.0001,-118.4133 526.0001,-118.4132"/>
</g>
</g>
</svg>
