<?xml version="1.0" encoding="UTF-8" standalone="no"?>
<!DOCTYPE svg PUBLIC "-//W3C//DTD SVG 1.1//EN"
 "http://www.w3.org/Graphics/SVG/1.1/DTD/svg11.dtd">
<!-- Generated by graphviz version 2.40.1 (20161225.0304)
 -->
<!-- Title: Computations Pages: 1 -->
<svg width="1345pt" height="1196pt"
 viewBox="0.00 0.00 1344.50 1196.00" xmlns="http://www.w3.org/2000/svg" xmlns:xlink="http://www.w3.org/1999/xlink">
<g id="graph0" class="graph" transform="scale(1 1) rotate(0) translate(4 1192)">
<title>Computations</title>
<polygon fill="#ffffff" stroke="transparent" points="-4,4 -4,-1192 1340.5,-1192 1340.5,4 -4,4"/>
<!-- 140510906366656 -->
<g id="node1" class="node">
<title>140510906366656</title>
<polygon fill="#ffff00" stroke="#000000" points="1228,-36 995,-36 995,0 1228,0 1228,-36"/>
<text text-anchor="middle" x="1111.5" y="-14.3" font-family="Times,serif" font-size="14.00" fill="#000000">Star(ip_address=localhost, port=50000)</text>
</g>
<!-- 140510906366464 -->
<g id="node2" class="node">
<title>140510906366464</title>
<polygon fill="#ffff00" stroke="#000000" points="1026,-108 479,-108 479,-72 1026,-72 1026,-108"/>
<text text-anchor="middle" x="752.5" y="-86.3" font-family="Times,serif" font-size="14.00" fill="#000000">Monitor(name=final, monitor_client=&lt;airpixel.client.MonitorClient object at 0x7fcb3ea93610&gt;)</text>
</g>
<!-- 140510906366464&#45;&gt;140510906366656 -->
<g id="edge1" class="edge">
<title>140510906366464&#45;&gt;140510906366656</title>
<path fill="none" stroke="#000000" d="M1010.5,-71.8314C1010.5,-71.8314 1010.5,-46.4133 1010.5,-46.4133"/>
<polygon fill="#000000" stroke="#000000" points="1014.0001,-46.4132 1010.5,-36.4133 1007.0001,-46.4133 1014.0001,-46.4132"/>
</g>
<!-- 140510906367136 -->
<g id="node3" class="node">
<title>140510906367136</title>
<polygon fill="#ffffff" stroke="#000000" points="1178.5,-108 1044.5,-108 1044.5,-72 1178.5,-72 1178.5,-108"/>
<text text-anchor="middle" x="1111.5" y="-86.3" font-family="Times,serif" font-size="14.00" fill="#000000">Constant(constant=8)</text>
</g>
<!-- 140510906367136&#45;&gt;140510906366656 -->
<g id="edge2" class="edge">
<title>140510906367136&#45;&gt;140510906366656</title>
<path fill="none" stroke="#000000" d="M1111.5,-71.8314C1111.5,-71.8314 1111.5,-46.4133 1111.5,-46.4133"/>
<polygon fill="#000000" stroke="#000000" points="1115.0001,-46.4132 1111.5,-36.4133 1108.0001,-46.4133 1115.0001,-46.4132"/>
</g>
<!-- 140510906366896 -->
<g id="node4" class="node">
<title>140510906366896</title>
<polygon fill="#ffffff" stroke="#000000" points="1336.5,-108 1196.5,-108 1196.5,-72 1336.5,-72 1336.5,-108"/>
<text text-anchor="middle" x="1266.5" y="-86.3" font-family="Times,serif" font-size="14.00" fill="#000000">Constant(constant=36)</text>
</g>
<!-- 140510906366896&#45;&gt;140510906366656 -->
<g id="edge3" class="edge">
<title>140510906366896&#45;&gt;140510906366656</title>
<path fill="none" stroke="#000000" d="M1212.25,-71.8314C1212.25,-71.8314 1212.25,-46.4133 1212.25,-46.4133"/>
<polygon fill="#000000" stroke="#000000" points="1215.7501,-46.4132 1212.25,-36.4133 1208.7501,-46.4133 1215.7501,-46.4132"/>
</g>
<!-- 140510906366704 -->
<g id="node5" class="node">
<title>140510906366704</title>
<polygon fill="#ffff00" stroke="#000000" points="779.5,-180 725.5,-180 725.5,-144 779.5,-144 779.5,-180"/>
<text text-anchor="middle" x="752.5" y="-158.3" font-family="Times,serif" font-size="14.00" fill="#000000">Roll()</text>
</g>
<!-- 140510906366704&#45;&gt;140510906366464 -->
<g id="edge4" class="edge">
<title>140510906366704&#45;&gt;140510906366464</title>
<path fill="none" stroke="#000000" d="M752.5,-143.8314C752.5,-143.8314 752.5,-118.4133 752.5,-118.4133"/>
<polygon fill="#000000" stroke="#000000" points="756.0001,-118.4132 752.5,-108.4133 749.0001,-118.4133 756.0001,-118.4132"/>
</g>
<!-- 140510906603360 -->
<g id="node6" class="node">
<title>140510906603360</title>
<polygon fill="#ffff00" stroke="#000000" points="724.5,-252 662.5,-252 662.5,-216 724.5,-216 724.5,-252"/>
<text text-anchor="middle" x="693.5" y="-230.3" font-family="Times,serif" font-size="14.00" fill="#000000">Mirror()</text>
</g>
<!-- 140510906603360&#45;&gt;140510906366704 -->
<g id="edge5" class="edge">
<title>140510906603360&#45;&gt;140510906366704</title>
<path fill="none" stroke="#000000" d="M724.6067,-234C730.0449,-234 734,-234 734,-234 734,-234 734,-190.1686 734,-190.1686"/>
<polygon fill="#000000" stroke="#000000" points="737.5001,-190.1686 734,-180.1686 730.5001,-190.1687 737.5001,-190.1686"/>
</g>
<!-- 140510906603600 -->
<g id="node7" class="node">
<title>140510906603600</title>
<polygon fill="#ffffff" stroke="#000000" points="882.5,-252 742.5,-252 742.5,-216 882.5,-216 882.5,-252"/>
<text text-anchor="middle" x="812.5" y="-230.3" font-family="Times,serif" font-size="14.00" fill="#000000">Constant(constant=16)</text>
</g>
<!-- 140510906603600&#45;&gt;140510906366704 -->
<g id="edge6" class="edge">
<title>140510906603600&#45;&gt;140510906366704</title>
<path fill="none" stroke="#000000" d="M761,-215.8314C761,-215.8314 761,-190.4133 761,-190.4133"/>
<polygon fill="#000000" stroke="#000000" points="764.5001,-190.4132 761,-180.4133 757.5001,-190.4133 764.5001,-190.4132"/>
</g>
<!-- 140510906602976 -->
<g id="node8" class="node">
<title>140510906602976</title>
<polygon fill="#ffff00" stroke="#000000" points="679.5,-324 547.5,-324 547.5,-288 679.5,-288 679.5,-324"/>
<text text-anchor="middle" x="613.5" y="-302.3" font-family="Times,serif" font-size="14.00" fill="#000000">VolumeNormalizer()</text>
</g>
<!-- 140510906602976&#45;&gt;140510906603360 -->
<g id="edge7" class="edge">
<title>140510906602976&#45;&gt;140510906603360</title>
<path fill="none" stroke="#000000" d="M671,-287.8314C671,-287.8314 671,-262.4133 671,-262.4133"/>
<polygon fill="#000000" stroke="#000000" points="674.5001,-262.4132 671,-252.4133 667.5001,-262.4133 674.5001,-262.4132"/>
</g>
<!-- 140510906603072 -->
<g id="node9" class="node">
<title>140510906603072</title>
<polygon fill="#ffffff" stroke="#000000" points="849.5,-324 697.5,-324 697.5,-288 849.5,-288 849.5,-324"/>
<text text-anchor="middle" x="773.5" y="-302.3" font-family="Times,serif" font-size="14.00" fill="#000000">Constant(constant=True)</text>
</g>
<!-- 140510906603072&#45;&gt;140510906603360 -->
<g id="edge8" class="edge">
<title>140510906603072&#45;&gt;140510906603360</title>
<path fill="none" stroke="#000000" d="M711,-287.8314C711,-287.8314 711,-262.4133 711,-262.4133"/>
<polygon fill="#000000" stroke="#000000" points="714.5001,-262.4132 711,-252.4133 707.5001,-262.4133 714.5001,-262.4132"/>
</g>
<!-- 140510906602928 -->
<g id="node10" class="node">
<title>140510906602928</title>
<polygon fill="#ffff00" stroke="#000000" points="735.5,-396 157.5,-396 157.5,-360 735.5,-360 735.5,-396"/>
<text text-anchor="middle" x="446.5" y="-374.3" font-family="Times,serif" font-size="14.00" fill="#000000">Monitor(name=resampled, monitor_client=&lt;airpixel.client.MonitorClient object at 0x7fcb3ea93610&gt;)</text>
</g>
<!-- 140510906602928&#45;&gt;140510906602976 -->
<g id="edge9" class="edge">
<title>140510906602928&#45;&gt;140510906602976</title>
<path fill="none" stroke="#000000" d="M591.5,-359.8314C591.5,-359.8314 591.5,-334.4133 591.5,-334.4133"/>
<polygon fill="#000000" stroke="#000000" points="595.0001,-334.4132 591.5,-324.4133 588.0001,-334.4133 595.0001,-334.4132"/>
</g>
<!-- 140510906603024 -->
<g id="node11" class="node">
<title>140510906603024</title>
<polygon fill="#ffff00" stroke="#000000" points="808,-396 753,-396 753,-360 808,-360 808,-396"/>
<text text-anchor="middle" x="780.5" y="-374.3" font-family="Times,serif" font-size="14.00" fill="#000000">Time()</text>
</g>
<!-- 140510906603024&#45;&gt;140510906602976 -->
<g id="edge10" class="edge">
<title>140510906603024&#45;&gt;140510906602976</title>
<path fill="none" stroke="#000000" d="M780.5,-359.5782C780.5,-350.7209 780.5,-342 780.5,-342 780.5,-342 635.5,-342 635.5,-342 635.5,-342 635.5,-334.4218 635.5,-334.4218"/>
<polygon fill="#000000" stroke="#000000" points="639.0001,-334.4218 635.5,-324.4218 632.0001,-334.4219 639.0001,-334.4218"/>
</g>
<!-- 140510906602832 -->
<g id="node12" class="node">
<title>140510906602832</title>
<polygon fill="#ffff00" stroke="#000000" points="486.5,-468 406.5,-468 406.5,-432 486.5,-432 486.5,-468"/>
<text text-anchor="middle" x="446.5" y="-446.3" font-family="Times,serif" font-size="14.00" fill="#000000">Resample()</text>
</g>
<!-- 140510906602832&#45;&gt;140510906602928 -->
<g id="edge11" class="edge">
<title>140510906602832&#45;&gt;140510906602928</title>
<path fill="none" stroke="#000000" d="M446.5,-431.8314C446.5,-431.8314 446.5,-406.4133 446.5,-406.4133"/>
<polygon fill="#000000" stroke="#000000" points="450.0001,-406.4132 446.5,-396.4133 443.0001,-406.4133 450.0001,-406.4132"/>
</g>
<!-- 140510906602544 -->
<g id="node13" class="node">
<title>140510906602544</title>
<polygon fill="#ffffff" stroke="#000000" points="136.5,-540 82.5,-540 82.5,-504 136.5,-504 136.5,-540"/>
<text text-anchor="middle" x="109.5" y="-518.3" font-family="Times,serif" font-size="14.00" fill="#000000">Log2()</text>
</g>
<!-- 140510906602544&#45;&gt;140510906602832 -->
<g id="edge12" class="edge">
<title>140510906602544&#45;&gt;140510906602832</title>
<path fill="none" stroke="#000000" d="M109.5,-503.8314C109.5,-482.502 109.5,-450 109.5,-450 109.5,-450 396.1847,-450 396.1847,-450"/>
<polygon fill="#000000" stroke="#000000" points="396.1847,-453.5001 406.1847,-450 396.1846,-446.5001 396.1847,-453.5001"/>
</g>
<!-- 140510906602448 -->
<g id="node14" class="node">
<title>140510906602448</title>
<polygon fill="#ffff00" stroke="#000000" points="738.5,-540 154.5,-540 154.5,-504 738.5,-504 738.5,-540"/>
<text text-anchor="middle" x="446.5" y="-518.3" font-family="Times,serif" font-size="14.00" fill="#000000">Monitor(name=a_weighted, monitor_client=&lt;airpixel.client.MonitorClient object at 0x7fcb3ea93610&gt;)</text>
</g>
<!-- 140510906602448&#45;&gt;140510906602832 -->
<g id="edge13" class="edge">
<title>140510906602448&#45;&gt;140510906602832</title>
<path fill="none" stroke="#000000" d="M446.5,-503.8314C446.5,-503.8314 446.5,-478.4133 446.5,-478.4133"/>
<polygon fill="#000000" stroke="#000000" points="450.0001,-478.4132 446.5,-468.4133 443.0001,-478.4133 450.0001,-478.4132"/>
</g>
<!-- 140510906602688 -->
<g id="node15" class="node">
<title>140510906602688</title>
<polygon fill="#ffffff" stroke="#000000" points="834.5,-540 760.5,-540 760.5,-504 834.5,-504 834.5,-540"/>
<text text-anchor="middle" x="797.5" y="-518.3" font-family="Times,serif" font-size="14.00" fill="#000000">Linspace()</text>
</g>
<!-- 140510906602688&#45;&gt;140510906602832 -->
<g id="edge14" class="edge">
<title>140510906602688&#45;&gt;140510906602832</title>
<path fill="none" stroke="#000000" d="M784.25,-503.8314C784.25,-482.502 784.25,-450 784.25,-450 784.25,-450 496.5707,-450 496.5707,-450"/>
<polygon fill="#000000" stroke="#000000" points="496.5707,-446.5001 486.5707,-450 496.5706,-453.5001 496.5707,-446.5001"/>
</g>
<!-- 140510906365984 -->
<g id="node16" class="node">
<title>140510906365984</title>
<polygon fill="#ffffff" stroke="#000000" points="1099.5,-612 887.5,-612 887.5,-576 1099.5,-576 1099.5,-612"/>
<text text-anchor="middle" x="993.5" y="-590.3" font-family="Times,serif" font-size="14.00" fill="#000000">Constant(constant=6.02236781303)</text>
</g>
<!-- 140510906365984&#45;&gt;140510906602688 -->
<g id="edge15" class="edge">
<title>140510906365984&#45;&gt;140510906602688</title>
<path fill="none" stroke="#000000" d="M956.75,-575.8314C956.75,-554.502 956.75,-522 956.75,-522 956.75,-522 844.837,-522 844.837,-522"/>
<polygon fill="#000000" stroke="#000000" points="844.8371,-518.5001 834.837,-522 844.837,-525.5001 844.8371,-518.5001"/>
</g>
<!-- 140510906366752 -->
<g id="node17" class="node">
<title>140510906366752</title>
<polygon fill="#ffffff" stroke="#000000" points="711.5,-612 499.5,-612 499.5,-576 711.5,-576 711.5,-612"/>
<text text-anchor="middle" x="605.5" y="-590.3" font-family="Times,serif" font-size="14.00" fill="#000000">Constant(constant=11.0313565963)</text>
</g>
<!-- 140510906366752&#45;&gt;140510906602688 -->
<g id="edge16" class="edge">
<title>140510906366752&#45;&gt;140510906602688</title>
<path fill="none" stroke="#000000" d="M605.5,-575.5782C605.5,-566.7209 605.5,-558 605.5,-558 605.5,-558 785.1667,-558 785.1667,-558 785.1667,-558 785.1667,-550.4218 785.1667,-550.4218"/>
<polygon fill="#000000" stroke="#000000" points="788.6668,-550.4218 785.1667,-540.4218 781.6668,-550.4219 788.6668,-550.4218"/>
</g>
<!-- 140510906366992 -->
<g id="node18" class="node">
<title>140510906366992</title>
<polygon fill="#ffffff" stroke="#000000" points="869.5,-612 729.5,-612 729.5,-576 869.5,-576 869.5,-612"/>
<text text-anchor="middle" x="799.5" y="-590.3" font-family="Times,serif" font-size="14.00" fill="#000000">Constant(constant=18)</text>
</g>
<!-- 140510906366992&#45;&gt;140510906602688 -->
<g id="edge17" class="edge">
<title>140510906366992&#45;&gt;140510906602688</title>
<path fill="none" stroke="#000000" d="M809.8333,-575.8314C809.8333,-575.8314 809.8333,-550.4133 809.8333,-550.4133"/>
<polygon fill="#000000" stroke="#000000" points="813.3334,-550.4132 809.8333,-540.4133 806.3334,-550.4133 813.3334,-550.4132"/>
</g>
<!-- 140510906602304 -->
<g id="node19" class="node">
<title>140510906602304</title>
<polygon fill="#ffff00" stroke="#000000" points="481.5,-612 407.5,-612 407.5,-576 481.5,-576 481.5,-612"/>
<text text-anchor="middle" x="444.5" y="-590.3" font-family="Times,serif" font-size="14.00" fill="#000000">Multiply()</text>
</g>
<!-- 140510906602304&#45;&gt;140510906602448 -->
<g id="edge18" class="edge">
<title>140510906602304&#45;&gt;140510906602448</title>
<path fill="none" stroke="#000000" d="M444.5,-575.8314C444.5,-575.8314 444.5,-550.4133 444.5,-550.4133"/>
<polygon fill="#000000" stroke="#000000" points="448.0001,-550.4132 444.5,-540.4133 441.0001,-550.4133 448.0001,-550.4132"/>
</g>
<!-- 140510906602160 -->
<g id="node20" class="node">
<title>140510906602160</title>
<polygon fill="#ffffff" stroke="#000000" points="267.5,-684 137.5,-684 137.5,-648 267.5,-648 267.5,-684"/>
<text text-anchor="middle" x="202.5" y="-662.3" font-family="Times,serif" font-size="14.00" fill="#000000">AWeightingVector()</text>
</g>
<!-- 140510906602160&#45;&gt;140510906602304 -->
<g id="edge19" class="edge">
<title>140510906602160&#45;&gt;140510906602304</title>
<path fill="none" stroke="#000000" d="M211,-647.8314C211,-626.502 211,-594 211,-594 211,-594 397.243,-594 397.243,-594"/>
<polygon fill="#000000" stroke="#000000" points="397.2431,-597.5001 407.243,-594 397.243,-590.5001 397.2431,-597.5001"/>
</g>
<!-- 140510906602064 -->
<g id="node21" class="node">
<title>140510906602064</title>
<polygon fill="#ffff00" stroke="#000000" points="821,-684 286,-684 286,-648 821,-648 821,-684"/>
<text text-anchor="middle" x="553.5" y="-662.3" font-family="Times,serif" font-size="14.00" fill="#000000">Monitor(name=fft, monitor_client=&lt;airpixel.client.MonitorClient object at 0x7fcb3ea93610&gt;)</text>
</g>
<!-- 140510906602064&#45;&gt;140510906602304 -->
<g id="edge20" class="edge">
<title>140510906602064&#45;&gt;140510906602304</title>
<path fill="none" stroke="#000000" d="M444.5,-647.8314C444.5,-647.8314 444.5,-622.4133 444.5,-622.4133"/>
<polygon fill="#000000" stroke="#000000" points="448.0001,-622.4132 444.5,-612.4133 441.0001,-622.4133 448.0001,-622.4132"/>
</g>
<!-- 140510906601968 -->
<g id="node22" class="node">
<title>140510906601968</title>
<polygon fill="#ffff00" stroke="#000000" points="533.5,-756 479.5,-756 479.5,-720 533.5,-720 533.5,-756"/>
<text text-anchor="middle" x="506.5" y="-734.3" font-family="Times,serif" font-size="14.00" fill="#000000">Slice()</text>
</g>
<!-- 140510906601968&#45;&gt;140510906602064 -->
<g id="edge21" class="edge">
<title>140510906601968&#45;&gt;140510906602064</title>
<path fill="none" stroke="#000000" d="M506.5,-719.8314C506.5,-719.8314 506.5,-694.4133 506.5,-694.4133"/>
<polygon fill="#000000" stroke="#000000" points="510.0001,-694.4132 506.5,-684.4133 503.0001,-694.4133 510.0001,-694.4132"/>
</g>
<!-- 140510906601824 -->
<g id="node23" class="node">
<title>140510906601824</title>
<polygon fill="#ffff00" stroke="#000000" points="701.5,-828 555.5,-828 555.5,-792 701.5,-792 701.5,-828"/>
<text text-anchor="middle" x="628.5" y="-806.3" font-family="Times,serif" font-size="14.00" fill="#000000">FastFourierTransform()</text>
</g>
<!-- 140510906601824&#45;&gt;140510906601968 -->
<g id="edge22" class="edge">
<title>140510906601824&#45;&gt;140510906601968</title>
<path fill="none" stroke="#000000" d="M628.5,-791.8314C628.5,-770.502 628.5,-738 628.5,-738 628.5,-738 543.5758,-738 543.5758,-738"/>
<polygon fill="#000000" stroke="#000000" points="543.5758,-734.5001 533.5758,-738 543.5757,-741.5001 543.5758,-734.5001"/>
</g>
<!-- 140510906367280 -->
<g id="node24" class="node">
<title>140510906367280</title>
<polygon fill="#ffffff" stroke="#000000" points="363.5,-828 229.5,-828 229.5,-792 363.5,-792 363.5,-828"/>
<text text-anchor="middle" x="296.5" y="-806.3" font-family="Times,serif" font-size="14.00" fill="#000000">Constant(constant=1)</text>
</g>
<!-- 140510906367280&#45;&gt;140510906601968 -->
<g id="edge23" class="edge">
<title>140510906367280&#45;&gt;140510906601968</title>
<path fill="none" stroke="#000000" d="M324.75,-791.9652C324.75,-772.4238 324.75,-744 324.75,-744 324.75,-744 469.2902,-744 469.2902,-744"/>
<polygon fill="#000000" stroke="#000000" points="469.2902,-747.5001 479.2902,-744 469.2902,-740.5001 469.2902,-747.5001"/>
</g>
<!-- 140510906367568 -->
<g id="node33" class="node">
<title>140510906367568</title>
<polygon fill="#ffffff" stroke="#000000" points="229.5,-756 175.5,-756 175.5,-720 229.5,-720 229.5,-756"/>
<text text-anchor="middle" x="202.5" y="-734.3" font-family="Times,serif" font-size="14.00" fill="#000000">Slice()</text>
</g>
<!-- 140510906367280&#45;&gt;140510906367568 -->
<g id="edge35" class="edge">
<title>140510906367280&#45;&gt;140510906367568</title>
<path fill="none" stroke="#000000" d="M229.2963,-810C223.7695,-810 220.25,-810 220.25,-810 220.25,-810 220.25,-766.1686 220.25,-766.1686"/>
<polygon fill="#000000" stroke="#000000" points="223.7501,-766.1686 220.25,-756.1686 216.7501,-766.1687 223.7501,-766.1686"/>
</g>
<!-- 140510914378192 -->
<g id="node25" class="node">
<title>140510914378192</title>
<polygon fill="#ffffff" stroke="#000000" points="537.5,-828 381.5,-828 381.5,-792 537.5,-792 537.5,-828"/>
<text text-anchor="middle" x="459.5" y="-806.3" font-family="Times,serif" font-size="14.00" fill="#000000">Constant(constant=None)</text>
</g>
<!-- 140510914378192&#45;&gt;140510906601968 -->
<g id="edge24" class="edge">
<title>140510914378192&#45;&gt;140510906601968</title>
<path fill="none" stroke="#000000" d="M506.5,-791.8314C506.5,-791.8314 506.5,-766.4133 506.5,-766.4133"/>
<polygon fill="#000000" stroke="#000000" points="510.0001,-766.4132 506.5,-756.4133 503.0001,-766.4133 510.0001,-766.4132"/>
</g>
<!-- 140510914378192&#45;&gt;140510906367568 -->
<g id="edge36" class="edge">
<title>140510914378192&#45;&gt;140510906367568</title>
<path fill="none" stroke="#000000" d="M430.5,-791.9092C430.5,-768.8672 430.5,-732 430.5,-732 430.5,-732 239.5499,-732 239.5499,-732"/>
<polygon fill="#000000" stroke="#000000" points="239.55,-728.5001 229.5499,-732 239.5499,-735.5001 239.55,-728.5001"/>
</g>
<!-- 140510906601728 -->
<g id="node26" class="node">
<title>140510906601728</title>
<polygon fill="#ffff00" stroke="#000000" points="916,-900 341,-900 341,-864 916,-864 916,-900"/>
<text text-anchor="middle" x="628.5" y="-878.3" font-family="Times,serif" font-size="14.00" fill="#000000">Monitor(name=hamming, monitor_client=&lt;airpixel.client.MonitorClient object at 0x7fcb3ea93610&gt;)</text>
</g>
<!-- 140510906601728&#45;&gt;140510906601824 -->
<g id="edge25" class="edge">
<title>140510906601728&#45;&gt;140510906601824</title>
<path fill="none" stroke="#000000" d="M652.8333,-863.8314C652.8333,-863.8314 652.8333,-838.4133 652.8333,-838.4133"/>
<polygon fill="#000000" stroke="#000000" points="656.3334,-838.4132 652.8333,-828.4133 649.3334,-838.4133 656.3334,-838.4132"/>
</g>
<!-- 140510906366128 -->
<g id="node27" class="node">
<title>140510906366128</title>
<polygon fill="#ffffff" stroke="#000000" points="295.5,-900 161.5,-900 161.5,-864 295.5,-864 295.5,-900"/>
<text text-anchor="middle" x="228.5" y="-878.3" font-family="Times,serif" font-size="14.00" fill="#000000">Constant(constant=3)</text>
</g>
<!-- 140510906366128&#45;&gt;140510906601824 -->
<g id="edge26" class="edge">
<title>140510906366128&#45;&gt;140510906601824</title>
<path fill="none" stroke="#000000" d="M262.5,-863.5782C262.5,-854.7209 262.5,-846 262.5,-846 262.5,-846 604.1667,-846 604.1667,-846 604.1667,-846 604.1667,-838.4218 604.1667,-838.4218"/>
<polygon fill="#000000" stroke="#000000" points="607.6668,-838.4218 604.1667,-828.4218 600.6668,-838.4219 607.6668,-838.4218"/>
</g>
<!-- 140510906367424 -->
<g id="node34" class="node">
<title>140510906367424</title>
<polygon fill="#ffffff" stroke="#000000" points="211,-828 0,-828 0,-792 211,-792 211,-828"/>
<text text-anchor="middle" x="105.5" y="-806.3" font-family="Times,serif" font-size="14.00" fill="#000000">FastFourierTransformFrequencies()</text>
</g>
<!-- 140510906366128&#45;&gt;140510906367424 -->
<g id="edge38" class="edge">
<title>140510906366128&#45;&gt;140510906367424</title>
<path fill="none" stroke="#000000" d="M186.25,-863.8314C186.25,-863.8314 186.25,-838.4133 186.25,-838.4133"/>
<polygon fill="#000000" stroke="#000000" points="189.7501,-838.4132 186.25,-828.4133 182.7501,-838.4133 189.7501,-838.4132"/>
</g>
<!-- 140510906601584 -->
<g id="node28" class="node">
<title>140510906601584</title>
<polygon fill="#ffff00" stroke="#000000" points="665.5,-972 591.5,-972 591.5,-936 665.5,-936 665.5,-972"/>
<text text-anchor="middle" x="628.5" y="-950.3" font-family="Times,serif" font-size="14.00" fill="#000000">Multiply()</text>
</g>
<!-- 140510906601584&#45;&gt;140510906601728 -->
<g id="edge27" class="edge">
<title>140510906601584&#45;&gt;140510906601728</title>
<path fill="none" stroke="#000000" d="M628.5,-935.8314C628.5,-935.8314 628.5,-910.4133 628.5,-910.4133"/>
<polygon fill="#000000" stroke="#000000" points="632.0001,-910.4132 628.5,-900.4133 625.0001,-910.4133 632.0001,-910.4132"/>
</g>
<!-- 140510906367808 -->
<g id="node29" class="node">
<title>140510906367808</title>
<polygon fill="#ffff00" stroke="#000000" points="703,-1044 134,-1044 134,-1008 703,-1008 703,-1044"/>
<text text-anchor="middle" x="418.5" y="-1022.3" font-family="Times,serif" font-size="14.00" fill="#000000">Monitor(name=audio_in, monitor_client=&lt;airpixel.client.MonitorClient object at 0x7fcb3ea93610&gt;)</text>
</g>
<!-- 140510906367808&#45;&gt;140510906601584 -->
<g id="edge28" class="edge">
<title>140510906367808&#45;&gt;140510906601584</title>
<path fill="none" stroke="#000000" d="M628.5,-1007.8314C628.5,-1007.8314 628.5,-982.4133 628.5,-982.4133"/>
<polygon fill="#000000" stroke="#000000" points="632.0001,-982.4132 628.5,-972.4133 625.0001,-982.4133 632.0001,-982.4132"/>
</g>
<!-- 140510906367952 -->
<g id="node30" class="node">
<title>140510906367952</title>
<polygon fill="#ffffff" stroke="#000000" points="849.5,-1044 721.5,-1044 721.5,-1008 849.5,-1008 849.5,-1044"/>
<text text-anchor="middle" x="785.5" y="-1022.3" font-family="Times,serif" font-size="14.00" fill="#000000">HammingWindow()</text>
</g>
<!-- 140510906367952&#45;&gt;140510906601584 -->
<g id="edge29" class="edge">
<title>140510906367952&#45;&gt;140510906601584</title>
<path fill="none" stroke="#000000" d="M785.5,-1007.8314C785.5,-986.502 785.5,-954 785.5,-954 785.5,-954 675.7068,-954 675.7068,-954"/>
<polygon fill="#000000" stroke="#000000" points="675.7068,-950.5001 665.7068,-954 675.7068,-957.5001 675.7068,-950.5001"/>
</g>
<!-- 140510906365504 -->
<g id="node31" class="node">
<title>140510906365504</title>
<polygon fill="#ffffff" stroke="#000000" points="485.5,-1188 351.5,-1188 351.5,-1152 485.5,-1152 485.5,-1188"/>
<text text-anchor="middle" x="418.5" y="-1166.3" font-family="Times,serif" font-size="14.00" fill="#000000">Constant(constant=3)</text>
</g>
<!-- 140510906365504&#45;&gt;140510906367952 -->
<g id="edge30" class="edge">
<title>140510906365504&#45;&gt;140510906367952</title>
<path fill="none" stroke="#000000" d="M485.8135,-1170C591.7632,-1170 785.5,-1170 785.5,-1170 785.5,-1170 785.5,-1054.2377 785.5,-1054.2377"/>
<polygon fill="#000000" stroke="#000000" points="789.0001,-1054.2377 785.5,-1044.2377 782.0001,-1054.2377 789.0001,-1054.2377"/>
</g>
<!-- 140510906367712 -->
<g id="node32" class="node">
<title>140510906367712</title>
<polygon fill="#ffff00" stroke="#000000" points="518,-1116 319,-1116 319,-1080 518,-1080 518,-1116"/>
<text text-anchor="middle" x="418.5" y="-1094.3" font-family="Times,serif" font-size="14.00" fill="#000000">AudioSource(audio_input=None)</text>
</g>
<!-- 140510906365504&#45;&gt;140510906367712 -->
<g id="edge32" class="edge">
<title>140510906365504&#45;&gt;140510906367712</title>
<path fill="none" stroke="#000000" d="M418.5,-1151.8314C418.5,-1151.8314 418.5,-1126.4133 418.5,-1126.4133"/>
<polygon fill="#000000" stroke="#000000" points="422.0001,-1126.4132 418.5,-1116.4133 415.0001,-1126.4133 422.0001,-1126.4132"/>
</g>
<!-- 140510906365504&#45;&gt;140510906367424 -->
<g id="edge37" class="edge">
<title>140510906365504&#45;&gt;140510906367424</title>
<path fill="none" stroke="#000000" d="M351.1432,-1170C249.0792,-1170 67,-1170 67,-1170 67,-1170 67,-838.3474 67,-838.3474"/>
<polygon fill="#000000" stroke="#000000" points="70.5001,-838.3473 67,-828.3474 63.5001,-838.3474 70.5001,-838.3473"/>
</g>
<!-- 140510906367712&#45;&gt;140510906367808 -->
<g id="edge31" class="edge">
<title>140510906367712&#45;&gt;140510906367808</title>
<path fill="none" stroke="#000000" d="M418.5,-1079.8314C418.5,-1079.8314 418.5,-1054.4133 418.5,-1054.4133"/>
<polygon fill="#000000" stroke="#000000" points="422.0001,-1054.4132 418.5,-1044.4133 415.0001,-1054.4133 422.0001,-1054.4132"/>
</g>
<!-- 140510906367568&#45;&gt;140510906602544 -->
<g id="edge39" class="edge">
<title>140510906367568&#45;&gt;140510906602544</title>
<path fill="none" stroke="#000000" d="M175.0999,-738C147.6672,-738 109.5,-738 109.5,-738 109.5,-738 109.5,-550.0445 109.5,-550.0445"/>
<polygon fill="#000000" stroke="#000000" points="113.0001,-550.0445 109.5,-540.0445 106.0001,-550.0446 113.0001,-550.0445"/>
</g>
<!-- 140510906367568&#45;&gt;140510906602160 -->
<g id="edge33" class="edge">
<title>140510906367568&#45;&gt;140510906602160</title>
<path fill="none" stroke="#000000" d="M202.5,-719.8314C202.5,-719.8314 202.5,-694.4133 202.5,-694.4133"/>
<polygon fill="#000000" stroke="#000000" points="206.0001,-694.4132 202.5,-684.4133 199.0001,-694.4133 206.0001,-694.4132"/>
</g>
<!-- 140510906367424&#45;&gt;140510906367568 -->
<g id="edge34" class="edge">
<title>140510906367424&#45;&gt;140510906367568</title>
<path fill="none" stroke="#000000" d="M193.25,-791.8314C193.25,-791.8314 193.25,-766.4133 193.25,-766.4133"/>
<polygon fill="#000000" stroke="#000000" points="196.7501,-766.4132 193.25,-756.4133 189.7501,-766.4133 196.7501,-766.4132"/>
</g>
</g>
</svg>
