<?xml version="1.0" encoding="UTF-8" standalone="no"?>
<!DOCTYPE svg PUBLIC "-//W3C//DTD SVG 1.1//EN"
 "http://www.w3.org/Graphics/SVG/1.1/DTD/svg11.dtd">
<!-- Generated by graphviz version 2.43.0 (0)
 -->
<!-- Title: Computations Pages: 1 -->
<svg width="1662pt" height="860pt"
 viewBox="0.00 0.00 1661.50 860.00" xmlns="http://www.w3.org/2000/svg" xmlns:xlink="http://www.w3.org/1999/xlink">
<g id="graph0" class="graph" transform="scale(1 1) rotate(0) translate(4 856)">
<title>Computations</title>
<polygon fill="white" stroke="transparent" points="-4,4 -4,-856 1657.5,-856 1657.5,4 -4,4"/>
<!-- 139821825372944 -->
<g id="node1" class="node">
<title>139821825372944</title>
<polygon fill="yellow" stroke="black" points="907,-38 674,-38 674,0 907,0 907,-38"/>
<text text-anchor="middle" x="790.5" y="-22.8" font-family="Times,serif" font-size="14.00">Star(ip_address=, port=1234)</text>
<text text-anchor="middle" x="790.5" y="-7.8" font-family="Times,serif" font-size="14.00">t=6.79ms</text>
</g>
<!-- 139821824642208 -->
<g id="node2" class="node">
<title>139821824642208</title>
<polygon fill="yellow" stroke="black" points="672,-112 585,-112 585,-74 672,-74 672,-112"/>
<text text-anchor="middle" x="628.5" y="-96.8" font-family="Times,serif" font-size="14.00">Roll()</text>
<text text-anchor="middle" x="628.5" y="-81.8" font-family="Times,serif" font-size="14.00">t=3.58ms</text>
</g>
<!-- 139821824642208&#45;&gt;139821825372944 -->
<g id="edge1" class="edge">
<title>139821824642208&#45;&gt;139821825372944</title>
<path fill="none" stroke="black" d="M672.27,-93C685.69,-93 697,-93 697,-93 697,-93 697,-48.06 697,-48.06"/>
<polygon fill="black" stroke="black" points="700.5,-48.06 697,-38.06 693.5,-48.06 700.5,-48.06"/>
</g>
<!-- 139821825316560 -->
<g id="node3" class="node">
<title>139821825316560</title>
<polygon fill="white" stroke="black" points="884.5,-260 710.5,-260 710.5,-222 884.5,-222 884.5,-260"/>
<text text-anchor="middle" x="797.5" y="-244.8" font-family="Times,serif" font-size="14.00">Constant(constant=8)</text>
<text text-anchor="middle" x="797.5" y="-229.8" font-family="Times,serif" font-size="14.00">t=0.00ms</text>
</g>
<!-- 139821825316560&#45;&gt;139821825372944 -->
<g id="edge2" class="edge">
<title>139821825316560&#45;&gt;139821825372944</title>
<path fill="none" stroke="black" d="M748.5,-221.69C748.5,-221.69 748.5,-48.11 748.5,-48.11"/>
<polygon fill="black" stroke="black" points="752,-48.11 748.5,-38.11 745,-48.11 752,-48.11"/>
</g>
<!-- 139821825372512 -->
<g id="node4" class="node">
<title>139821825372512</title>
<polygon fill="white" stroke="black" points="956,-186 869,-186 869,-148 956,-148 956,-186"/>
<text text-anchor="middle" x="912.5" y="-170.8" font-family="Times,serif" font-size="14.00">Multiply()</text>
<text text-anchor="middle" x="912.5" y="-155.8" font-family="Times,serif" font-size="14.00">t=0.00ms</text>
</g>
<!-- 139821825316560&#45;&gt;139821825372512 -->
<g id="edge9" class="edge">
<title>139821825316560&#45;&gt;139821825372512</title>
<path fill="none" stroke="black" d="M876.75,-221.94C876.75,-221.94 876.75,-196.25 876.75,-196.25"/>
<polygon fill="black" stroke="black" points="880.25,-196.25 876.75,-186.25 873.25,-196.25 880.25,-196.25"/>
</g>
<!-- 139821825372656 -->
<g id="node6" class="node">
<title>139821825372656</title>
<polygon fill="white" stroke="black" points="890,-112 777,-112 777,-74 890,-74 890,-112"/>
<text text-anchor="middle" x="833.5" y="-96.8" font-family="Times,serif" font-size="14.00">BeamMasks()</text>
<text text-anchor="middle" x="833.5" y="-81.8" font-family="Times,serif" font-size="14.00">t=0.01ms</text>
</g>
<!-- 139821825316560&#45;&gt;139821825372656 -->
<g id="edge7" class="edge">
<title>139821825316560&#45;&gt;139821825372656</title>
<path fill="none" stroke="black" d="M823,-221.95C823,-221.95 823,-122.44 823,-122.44"/>
<polygon fill="black" stroke="black" points="826.5,-122.44 823,-112.44 819.5,-122.44 826.5,-122.44"/>
</g>
<!-- 139821825372512&#45;&gt;139821825372944 -->
<g id="edge3" class="edge">
<title>139821825372512&#45;&gt;139821825372944</title>
<path fill="none" stroke="black" d="M895.67,-147.95C895.67,-147.95 895.67,-48.44 895.67,-48.44"/>
<polygon fill="black" stroke="black" points="899.17,-48.44 895.67,-38.44 892.17,-48.44 899.17,-48.44"/>
</g>
<!-- 139821825372512&#45;&gt;139821825372656 -->
<g id="edge8" class="edge">
<title>139821825372512&#45;&gt;139821825372656</title>
<path fill="none" stroke="black" d="M879.5,-147.94C879.5,-147.94 879.5,-122.25 879.5,-122.25"/>
<polygon fill="black" stroke="black" points="883,-122.25 879.5,-112.25 876,-122.25 883,-122.25"/>
</g>
<!-- 139821825315840 -->
<g id="node5" class="node">
<title>139821825315840</title>
<polygon fill="white" stroke="black" points="523,-704 340,-704 340,-666 523,-666 523,-704"/>
<text text-anchor="middle" x="431.5" y="-688.8" font-family="Times,serif" font-size="14.00">Constant(constant=36)</text>
<text text-anchor="middle" x="431.5" y="-673.8" font-family="Times,serif" font-size="14.00">t=0.00ms</text>
</g>
<!-- 139821825315840&#45;&gt;139821825372944 -->
<g id="edge4" class="edge">
<title>139821825315840&#45;&gt;139821825372944</title>
<path fill="none" stroke="black" d="M358.25,-665.79C358.25,-556.59 358.25,-19 358.25,-19 358.25,-19 663.81,-19 663.81,-19"/>
<polygon fill="black" stroke="black" points="663.81,-22.5 673.81,-19 663.81,-15.5 663.81,-22.5"/>
</g>
<!-- 139821825316128 -->
<g id="node27" class="node">
<title>139821825316128</title>
<polygon fill="white" stroke="black" points="486.5,-630 376.5,-630 376.5,-592 486.5,-592 486.5,-630"/>
<text text-anchor="middle" x="431.5" y="-614.8" font-family="Times,serif" font-size="14.00">FloorDivide()</text>
<text text-anchor="middle" x="431.5" y="-599.8" font-family="Times,serif" font-size="14.00">t=0.02ms</text>
</g>
<!-- 139821825315840&#45;&gt;139821825316128 -->
<g id="edge31" class="edge">
<title>139821825315840&#45;&gt;139821825316128</title>
<path fill="none" stroke="black" d="M413.17,-665.94C413.17,-665.94 413.17,-640.25 413.17,-640.25"/>
<polygon fill="black" stroke="black" points="416.67,-640.25 413.17,-630.25 409.67,-640.25 416.67,-640.25"/>
</g>
<!-- 139821825372656&#45;&gt;139821825372944 -->
<g id="edge5" class="edge">
<title>139821825372656&#45;&gt;139821825372944</title>
<path fill="none" stroke="black" d="M833.5,-73.94C833.5,-73.94 833.5,-48.25 833.5,-48.25"/>
<polygon fill="black" stroke="black" points="837,-48.25 833.5,-38.25 830,-48.25 837,-48.25"/>
</g>
<!-- 139821825372800 -->
<g id="node7" class="node">
<title>139821825372800</title>
<polygon fill="white" stroke="black" points="1134.5,-112 946.5,-112 946.5,-74 1134.5,-74 1134.5,-112"/>
<text text-anchor="middle" x="1040.5" y="-96.8" font-family="Times,serif" font-size="14.00">Constant(constant=0.5)</text>
<text text-anchor="middle" x="1040.5" y="-81.8" font-family="Times,serif" font-size="14.00">t=0.00ms</text>
</g>
<!-- 139821825372800&#45;&gt;139821825372944 -->
<g id="edge6" class="edge">
<title>139821825372800&#45;&gt;139821825372944</title>
<path fill="none" stroke="black" d="M946.13,-93C921.31,-93 901.33,-93 901.33,-93 901.33,-93 901.33,-48.06 901.33,-48.06"/>
<polygon fill="black" stroke="black" points="904.83,-48.06 901.33,-38.06 897.83,-48.06 904.83,-48.06"/>
</g>
<!-- 139821826930192 -->
<g id="node8" class="node">
<title>139821826930192</title>
<polygon fill="white" stroke="black" points="1086,-260 903,-260 903,-222 1086,-222 1086,-260"/>
<text text-anchor="middle" x="994.5" y="-244.8" font-family="Times,serif" font-size="14.00">Constant(constant=16)</text>
<text text-anchor="middle" x="994.5" y="-229.8" font-family="Times,serif" font-size="14.00">t=infms</text>
</g>
<!-- 139821826930192&#45;&gt;139821825372512 -->
<g id="edge10" class="edge">
<title>139821826930192&#45;&gt;139821825372512</title>
<path fill="none" stroke="black" d="M929.5,-221.94C929.5,-221.94 929.5,-196.25 929.5,-196.25"/>
<polygon fill="black" stroke="black" points="933,-196.25 929.5,-186.25 926,-196.25 933,-196.25"/>
</g>
<!-- 139821824642832 -->
<g id="node9" class="node">
<title>139821824642832</title>
<polygon fill="yellow" stroke="black" points="519,-186 432,-186 432,-148 519,-148 519,-186"/>
<text text-anchor="middle" x="475.5" y="-170.8" font-family="Times,serif" font-size="14.00">Mirror()</text>
<text text-anchor="middle" x="475.5" y="-155.8" font-family="Times,serif" font-size="14.00">t=3.50ms</text>
</g>
<!-- 139821824642832&#45;&gt;139821824642208 -->
<g id="edge11" class="edge">
<title>139821824642832&#45;&gt;139821824642208</title>
<path fill="none" stroke="black" d="M475.5,-147.94C475.5,-126.02 475.5,-93 475.5,-93 475.5,-93 574.66,-93 574.66,-93"/>
<polygon fill="black" stroke="black" points="574.66,-96.5 584.66,-93 574.66,-89.5 574.66,-96.5"/>
</g>
<!-- 139821824642112 -->
<g id="node10" class="node">
<title>139821824642112</title>
<polygon fill="white" stroke="black" points="720,-186 537,-186 537,-148 720,-148 720,-186"/>
<text text-anchor="middle" x="628.5" y="-170.8" font-family="Times,serif" font-size="14.00">Constant(constant=16)</text>
<text text-anchor="middle" x="628.5" y="-155.8" font-family="Times,serif" font-size="14.00">t=0.00ms</text>
</g>
<!-- 139821824642112&#45;&gt;139821824642208 -->
<g id="edge12" class="edge">
<title>139821824642112&#45;&gt;139821824642208</title>
<path fill="none" stroke="black" d="M628.5,-147.94C628.5,-147.94 628.5,-122.25 628.5,-122.25"/>
<polygon fill="black" stroke="black" points="632,-122.25 628.5,-112.25 625,-122.25 632,-122.25"/>
</g>
<!-- 139821825314928 -->
<g id="node11" class="node">
<title>139821825314928</title>
<polygon fill="yellow" stroke="black" points="680,-260 593,-260 593,-222 680,-222 680,-260"/>
<text text-anchor="middle" x="636.5" y="-244.8" font-family="Times,serif" font-size="14.00">Multiply()</text>
<text text-anchor="middle" x="636.5" y="-229.8" font-family="Times,serif" font-size="14.00">t=1.73ms</text>
</g>
<!-- 139821825314928&#45;&gt;139821824642832 -->
<g id="edge13" class="edge">
<title>139821825314928&#45;&gt;139821824642832</title>
<path fill="none" stroke="black" d="M636.5,-221.63C636.5,-212.68 636.5,-204 636.5,-204 636.5,-204 490,-204 490,-204 490,-204 490,-196.37 490,-196.37"/>
<polygon fill="black" stroke="black" points="493.5,-196.37 490,-186.37 486.5,-196.37 493.5,-196.37"/>
</g>
<!-- 139821824642736 -->
<g id="node12" class="node">
<title>139821824642736</title>
<polygon fill="white" stroke="black" points="574.5,-260 376.5,-260 376.5,-222 574.5,-222 574.5,-260"/>
<text text-anchor="middle" x="475.5" y="-244.8" font-family="Times,serif" font-size="14.00">Constant(constant=True)</text>
<text text-anchor="middle" x="475.5" y="-229.8" font-family="Times,serif" font-size="14.00">t=0.00ms</text>
</g>
<!-- 139821824642736&#45;&gt;139821824642832 -->
<g id="edge14" class="edge">
<title>139821824642736&#45;&gt;139821824642832</title>
<path fill="none" stroke="black" d="M461,-221.94C461,-221.94 461,-196.25 461,-196.25"/>
<polygon fill="black" stroke="black" points="464.5,-196.25 461,-186.25 457.5,-196.25 464.5,-196.25"/>
</g>
<!-- 139821825318816 -->
<g id="node13" class="node">
<title>139821825318816</title>
<polygon fill="yellow" stroke="black" points="862.5,-334 702.5,-334 702.5,-296 862.5,-296 862.5,-334"/>
<text text-anchor="middle" x="782.5" y="-318.8" font-family="Times,serif" font-size="14.00">VolumeNormalizer()</text>
<text text-anchor="middle" x="782.5" y="-303.8" font-family="Times,serif" font-size="14.00">t=1.21ms</text>
</g>
<!-- 139821825318816&#45;&gt;139821825314928 -->
<g id="edge15" class="edge">
<title>139821825318816&#45;&gt;139821825314928</title>
<path fill="none" stroke="black" d="M706.5,-295.94C706.5,-274.02 706.5,-241 706.5,-241 706.5,-241 690.04,-241 690.04,-241"/>
<polygon fill="black" stroke="black" points="690.04,-237.5 680.04,-241 690.04,-244.5 690.04,-237.5"/>
</g>
<!-- 139821825317472 -->
<g id="node14" class="node">
<title>139821825317472</title>
<polygon fill="yellow" stroke="black" points="307.5,-630 161.5,-630 161.5,-592 307.5,-592 307.5,-630"/>
<text text-anchor="middle" x="234.5" y="-614.8" font-family="Times,serif" font-size="14.00">ThresholdToggle()</text>
<text text-anchor="middle" x="234.5" y="-599.8" font-family="Times,serif" font-size="14.00">t=2.24ms</text>
</g>
<!-- 139821825317472&#45;&gt;139821825314928 -->
<g id="edge16" class="edge">
<title>139821825317472&#45;&gt;139821825314928</title>
<path fill="none" stroke="black" d="M234.5,-591.92C234.5,-560.18 234.5,-500 234.5,-500 234.5,-500 636.5,-500 636.5,-500 636.5,-500 636.5,-270.04 636.5,-270.04"/>
<polygon fill="black" stroke="black" points="640,-270.04 636.5,-260.04 633,-270.04 640,-270.04"/>
</g>
<!-- 139821825317232 -->
<g id="node15" class="node">
<title>139821825317232</title>
<polygon fill="yellow" stroke="black" points="129,-704 0,-704 0,-666 129,-666 129,-704"/>
<text text-anchor="middle" x="64.5" y="-688.8" font-family="Times,serif" font-size="14.00">History(size=6)</text>
<text text-anchor="middle" x="64.5" y="-673.8" font-family="Times,serif" font-size="14.00">t=0.01ms</text>
</g>
<!-- 139821825317232&#45;&gt;139821825317472 -->
<g id="edge17" class="edge">
<title>139821825317232&#45;&gt;139821825317472</title>
<path fill="none" stroke="black" d="M64.5,-665.94C64.5,-644.02 64.5,-611 64.5,-611 64.5,-611 151.42,-611 151.42,-611"/>
<polygon fill="black" stroke="black" points="151.42,-614.5 161.42,-611 151.42,-607.5 151.42,-614.5"/>
</g>
<!-- 139821825317376 -->
<g id="node16" class="node">
<title>139821825317376</title>
<polygon fill="white" stroke="black" points="321.5,-704 147.5,-704 147.5,-666 321.5,-666 321.5,-704"/>
<text text-anchor="middle" x="234.5" y="-688.8" font-family="Times,serif" font-size="14.00">Constant(constant=0)</text>
<text text-anchor="middle" x="234.5" y="-673.8" font-family="Times,serif" font-size="14.00">t=0.00ms</text>
</g>
<!-- 139821825317376&#45;&gt;139821825317472 -->
<g id="edge18" class="edge">
<title>139821825317376&#45;&gt;139821825317472</title>
<path fill="none" stroke="black" d="M234.5,-665.94C234.5,-665.94 234.5,-640.25 234.5,-640.25"/>
<polygon fill="black" stroke="black" points="238,-640.25 234.5,-630.25 231,-640.25 238,-640.25"/>
</g>
<!-- 139821825317136 -->
<g id="node17" class="node">
<title>139821825317136</title>
<polygon fill="yellow" stroke="black" points="794,-778 57,-778 57,-740 794,-740 794,-778"/>
<text text-anchor="middle" x="425.5" y="-762.8" font-family="Times,serif" font-size="14.00">AudioSource(audio_input=&lt;AudioInput(audio&#45;capture&#45;thread, started daemon 139821817001728)&gt;)</text>
<text text-anchor="middle" x="425.5" y="-747.8" font-family="Times,serif" font-size="14.00">t=0.18ms</text>
</g>
<!-- 139821825317136&#45;&gt;139821825317232 -->
<g id="edge19" class="edge">
<title>139821825317136&#45;&gt;139821825317232</title>
<path fill="none" stroke="black" d="M93,-739.94C93,-739.94 93,-714.25 93,-714.25"/>
<polygon fill="black" stroke="black" points="96.5,-714.25 93,-704.25 89.5,-714.25 96.5,-714.25"/>
</g>
<!-- 139821825317760 -->
<g id="node35" class="node">
<title>139821825317760</title>
<polygon fill="yellow" stroke="black" points="911,-704 824,-704 824,-666 911,-666 911,-704"/>
<text text-anchor="middle" x="867.5" y="-688.8" font-family="Times,serif" font-size="14.00">Multiply()</text>
<text text-anchor="middle" x="867.5" y="-673.8" font-family="Times,serif" font-size="14.00">t=0.37ms</text>
</g>
<!-- 139821825317136&#45;&gt;139821825317760 -->
<g id="edge40" class="edge">
<title>139821825317136&#45;&gt;139821825317760</title>
<path fill="none" stroke="black" d="M788.25,-739.94C788.25,-718.02 788.25,-685 788.25,-685 788.25,-685 813.7,-685 813.7,-685"/>
<polygon fill="black" stroke="black" points="813.7,-688.5 823.7,-685 813.7,-681.5 813.7,-688.5"/>
</g>
<!-- 139821825315216 -->
<g id="node18" class="node">
<title>139821825315216</title>
<polygon fill="white" stroke="black" points="990,-852 789,-852 789,-814 990,-814 990,-852"/>
<text text-anchor="middle" x="889.5" y="-836.8" font-family="Times,serif" font-size="14.00">Constant(constant=2205)</text>
<text text-anchor="middle" x="889.5" y="-821.8" font-family="Times,serif" font-size="14.00">t=0.00ms</text>
</g>
<!-- 139821825315216&#45;&gt;139821825317136 -->
<g id="edge20" class="edge">
<title>139821825315216&#45;&gt;139821825317136</title>
<path fill="none" stroke="black" d="M803.25,-813.94C803.25,-792.02 803.25,-759 803.25,-759 803.25,-759 802.35,-759 802.35,-759"/>
<polygon fill="black" stroke="black" points="804.28,-755.5 794.28,-759 804.28,-762.5 804.28,-755.5"/>
</g>
<!-- 139821825317616 -->
<g id="node37" class="node">
<title>139821825317616</title>
<polygon fill="white" stroke="black" points="966.5,-778 812.5,-778 812.5,-740 966.5,-740 966.5,-778"/>
<text text-anchor="middle" x="889.5" y="-762.8" font-family="Times,serif" font-size="14.00">HammingWindow()</text>
<text text-anchor="middle" x="889.5" y="-747.8" font-family="Times,serif" font-size="14.00">t=0.00ms</text>
</g>
<!-- 139821825315216&#45;&gt;139821825317616 -->
<g id="edge42" class="edge">
<title>139821825315216&#45;&gt;139821825317616</title>
<path fill="none" stroke="black" d="M889.5,-813.94C889.5,-813.94 889.5,-788.25 889.5,-788.25"/>
<polygon fill="black" stroke="black" points="893,-788.25 889.5,-778.25 886,-788.25 893,-788.25"/>
</g>
<!-- 139821825316848 -->
<g id="node39" class="node">
<title>139821825316848</title>
<polygon fill="white" stroke="black" points="1653.5,-704 1381.5,-704 1381.5,-666 1653.5,-666 1653.5,-704"/>
<text text-anchor="middle" x="1517.5" y="-688.8" font-family="Times,serif" font-size="14.00">FastFourierTransformFrequencies()</text>
<text text-anchor="middle" x="1517.5" y="-673.8" font-family="Times,serif" font-size="14.00">t=0.11ms</text>
</g>
<!-- 139821825315216&#45;&gt;139821825316848 -->
<g id="edge47" class="edge">
<title>139821825315216&#45;&gt;139821825316848</title>
<path fill="none" stroke="black" d="M990.23,-833C1172.6,-833 1538.75,-833 1538.75,-833 1538.75,-833 1538.75,-714.05 1538.75,-714.05"/>
<polygon fill="black" stroke="black" points="1542.25,-714.05 1538.75,-704.05 1535.25,-714.05 1542.25,-714.05"/>
</g>
<!-- 139821825318720 -->
<g id="node19" class="node">
<title>139821825318720</title>
<polygon fill="yellow" stroke="black" points="831,-408 734,-408 734,-370 831,-370 831,-408"/>
<text text-anchor="middle" x="782.5" y="-392.8" font-family="Times,serif" font-size="14.00">Resample()</text>
<text text-anchor="middle" x="782.5" y="-377.8" font-family="Times,serif" font-size="14.00">t=1.15ms</text>
</g>
<!-- 139821825318720&#45;&gt;139821825318816 -->
<g id="edge21" class="edge">
<title>139821825318720&#45;&gt;139821825318816</title>
<path fill="none" stroke="black" d="M782.5,-369.94C782.5,-369.94 782.5,-344.25 782.5,-344.25"/>
<polygon fill="black" stroke="black" points="786,-344.25 782.5,-334.25 779,-344.25 786,-344.25"/>
</g>
<!-- 139821825318768 -->
<g id="node20" class="node">
<title>139821825318768</title>
<polygon fill="yellow" stroke="black" points="936,-408 849,-408 849,-370 936,-370 936,-408"/>
<text text-anchor="middle" x="892.5" y="-392.8" font-family="Times,serif" font-size="14.00">Time()</text>
<text text-anchor="middle" x="892.5" y="-377.8" font-family="Times,serif" font-size="14.00">t=0.00ms</text>
</g>
<!-- 139821825318768&#45;&gt;139821825318816 -->
<g id="edge22" class="edge">
<title>139821825318768&#45;&gt;139821825318816</title>
<path fill="none" stroke="black" d="M855.75,-369.94C855.75,-369.94 855.75,-344.25 855.75,-344.25"/>
<polygon fill="black" stroke="black" points="859.25,-344.25 855.75,-334.25 852.25,-344.25 859.25,-344.25"/>
</g>
<!-- 139821825318432 -->
<g id="node21" class="node">
<title>139821825318432</title>
<polygon fill="white" stroke="black" points="1341,-482 1254,-482 1254,-444 1341,-444 1341,-482"/>
<text text-anchor="middle" x="1297.5" y="-466.8" font-family="Times,serif" font-size="14.00">Log2()</text>
<text text-anchor="middle" x="1297.5" y="-451.8" font-family="Times,serif" font-size="14.00">t=0.00ms</text>
</g>
<!-- 139821825318432&#45;&gt;139821825318720 -->
<g id="edge23" class="edge">
<title>139821825318432&#45;&gt;139821825318720</title>
<path fill="none" stroke="black" d="M1297.5,-443.63C1297.5,-434.68 1297.5,-426 1297.5,-426 1297.5,-426 827.5,-426 827.5,-426 827.5,-426 827.5,-418.37 827.5,-418.37"/>
<polygon fill="black" stroke="black" points="831,-418.37 827.5,-408.37 824,-418.37 831,-418.37"/>
</g>
<!-- 139821825318288 -->
<g id="node22" class="node">
<title>139821825318288</title>
<polygon fill="yellow" stroke="black" points="1166,-482 1079,-482 1079,-444 1166,-444 1166,-482"/>
<text text-anchor="middle" x="1122.5" y="-466.8" font-family="Times,serif" font-size="14.00">Multiply()</text>
<text text-anchor="middle" x="1122.5" y="-451.8" font-family="Times,serif" font-size="14.00">t=0.27ms</text>
</g>
<!-- 139821825318288&#45;&gt;139821825318720 -->
<g id="edge24" class="edge">
<title>139821825318288&#45;&gt;139821825318720</title>
<path fill="none" stroke="black" d="M1078.78,-463C995.86,-463 824,-463 824,-463 824,-463 824,-418.06 824,-418.06"/>
<polygon fill="black" stroke="black" points="827.5,-418.06 824,-408.06 820.5,-418.06 827.5,-418.06"/>
</g>
<!-- 139821825318576 -->
<g id="node23" class="node">
<title>139821825318576</title>
<polygon fill="white" stroke="black" points="820.5,-482 730.5,-482 730.5,-444 820.5,-444 820.5,-482"/>
<text text-anchor="middle" x="775.5" y="-466.8" font-family="Times,serif" font-size="14.00">Linspace()</text>
<text text-anchor="middle" x="775.5" y="-451.8" font-family="Times,serif" font-size="14.00">t=0.00ms</text>
</g>
<!-- 139821825318576&#45;&gt;139821825318720 -->
<g id="edge25" class="edge">
<title>139821825318576&#45;&gt;139821825318720</title>
<path fill="none" stroke="black" d="M777.25,-443.94C777.25,-443.94 777.25,-418.25 777.25,-418.25"/>
<polygon fill="black" stroke="black" points="780.75,-418.25 777.25,-408.25 773.75,-418.25 780.75,-418.25"/>
</g>
<!-- 139821825315552 -->
<g id="node24" class="node">
<title>139821825315552</title>
<polygon fill="white" stroke="black" points="764.5,-556 486.5,-556 486.5,-518 764.5,-518 764.5,-556"/>
<text text-anchor="middle" x="625.5" y="-540.8" font-family="Times,serif" font-size="14.00">Constant(constant=6.02236781303)</text>
<text text-anchor="middle" x="625.5" y="-525.8" font-family="Times,serif" font-size="14.00">t=0.01ms</text>
</g>
<!-- 139821825315552&#45;&gt;139821825318576 -->
<g id="edge26" class="edge">
<title>139821825315552&#45;&gt;139821825318576</title>
<path fill="none" stroke="black" d="M747.5,-517.94C747.5,-517.94 747.5,-492.25 747.5,-492.25"/>
<polygon fill="black" stroke="black" points="751,-492.25 747.5,-482.25 744,-492.25 751,-492.25"/>
</g>
<!-- 139821825315696 -->
<g id="node25" class="node">
<title>139821825315696</title>
<polygon fill="white" stroke="black" points="1060.5,-556 782.5,-556 782.5,-518 1060.5,-518 1060.5,-556"/>
<text text-anchor="middle" x="921.5" y="-540.8" font-family="Times,serif" font-size="14.00">Constant(constant=11.0313565963)</text>
<text text-anchor="middle" x="921.5" y="-525.8" font-family="Times,serif" font-size="14.00">t=0.00ms</text>
</g>
<!-- 139821825315696&#45;&gt;139821825318576 -->
<g id="edge27" class="edge">
<title>139821825315696&#45;&gt;139821825318576</title>
<path fill="none" stroke="black" d="M801.5,-517.94C801.5,-517.94 801.5,-492.25 801.5,-492.25"/>
<polygon fill="black" stroke="black" points="805,-492.25 801.5,-482.25 798,-492.25 805,-492.25"/>
</g>
<!-- 139821825316416 -->
<g id="node26" class="node">
<title>139821825316416</title>
<polygon fill="white" stroke="black" points="468,-556 381,-556 381,-518 468,-518 468,-556"/>
<text text-anchor="middle" x="424.5" y="-540.8" font-family="Times,serif" font-size="14.00">Add()</text>
<text text-anchor="middle" x="424.5" y="-525.8" font-family="Times,serif" font-size="14.00">t=0.04ms</text>
</g>
<!-- 139821825316416&#45;&gt;139821825318576 -->
<g id="edge28" class="edge">
<title>139821825316416&#45;&gt;139821825318576</title>
<path fill="none" stroke="black" d="M424.5,-517.94C424.5,-496.02 424.5,-463 424.5,-463 424.5,-463 720.33,-463 720.33,-463"/>
<polygon fill="black" stroke="black" points="720.33,-466.5 730.33,-463 720.33,-459.5 720.33,-466.5"/>
</g>
<!-- 139821825316128&#45;&gt;139821825316416 -->
<g id="edge29" class="edge">
<title>139821825316128&#45;&gt;139821825316416</title>
<path fill="none" stroke="black" d="M410,-591.94C410,-591.94 410,-566.25 410,-566.25"/>
<polygon fill="black" stroke="black" points="413.5,-566.25 410,-556.25 406.5,-566.25 413.5,-566.25"/>
</g>
<!-- 139821825316272 -->
<g id="node28" class="node">
<title>139821825316272</title>
<polygon fill="white" stroke="black" points="678.5,-630 504.5,-630 504.5,-592 678.5,-592 678.5,-630"/>
<text text-anchor="middle" x="591.5" y="-614.8" font-family="Times,serif" font-size="14.00">Constant(constant=1)</text>
<text text-anchor="middle" x="591.5" y="-599.8" font-family="Times,serif" font-size="14.00">t=0.00ms</text>
</g>
<!-- 139821825316272&#45;&gt;139821825316416 -->
<g id="edge30" class="edge">
<title>139821825316272&#45;&gt;139821825316416</title>
<path fill="none" stroke="black" d="M591.5,-591.63C591.5,-582.68 591.5,-574 591.5,-574 591.5,-574 439,-574 439,-574 439,-574 439,-566.37 439,-566.37"/>
<polygon fill="black" stroke="black" points="442.5,-566.37 439,-556.37 435.5,-566.37 442.5,-566.37"/>
</g>
<!-- 139821825315984 -->
<g id="node29" class="node">
<title>139821825315984</title>
<polygon fill="white" stroke="black" points="715.5,-704 541.5,-704 541.5,-666 715.5,-666 715.5,-704"/>
<text text-anchor="middle" x="628.5" y="-688.8" font-family="Times,serif" font-size="14.00">Constant(constant=2)</text>
<text text-anchor="middle" x="628.5" y="-673.8" font-family="Times,serif" font-size="14.00">t=0.00ms</text>
</g>
<!-- 139821825315984&#45;&gt;139821825316128 -->
<g id="edge32" class="edge">
<title>139821825315984&#45;&gt;139821825316128</title>
<path fill="none" stroke="black" d="M610,-665.63C610,-656.68 610,-648 610,-648 610,-648 449.83,-648 449.83,-648 449.83,-648 449.83,-640.37 449.83,-640.37"/>
<polygon fill="black" stroke="black" points="453.33,-640.37 449.83,-630.37 446.33,-640.37 453.33,-640.37"/>
</g>
<!-- 139821825318144 -->
<g id="node30" class="node">
<title>139821825318144</title>
<polygon fill="white" stroke="black" points="1339,-556 1184,-556 1184,-518 1339,-518 1339,-556"/>
<text text-anchor="middle" x="1261.5" y="-540.8" font-family="Times,serif" font-size="14.00">AWeightingVector()</text>
<text text-anchor="middle" x="1261.5" y="-525.8" font-family="Times,serif" font-size="14.00">t=0.00ms</text>
</g>
<!-- 139821825318144&#45;&gt;139821825318288 -->
<g id="edge33" class="edge">
<title>139821825318144&#45;&gt;139821825318288</title>
<path fill="none" stroke="black" d="M1219,-517.94C1219,-496.02 1219,-463 1219,-463 1219,-463 1176.23,-463 1176.23,-463"/>
<polygon fill="black" stroke="black" points="1176.23,-459.5 1166.23,-463 1176.23,-466.5 1176.23,-459.5"/>
</g>
<!-- 139821825318048 -->
<g id="node31" class="node">
<title>139821825318048</title>
<polygon fill="yellow" stroke="black" points="1166,-556 1079,-556 1079,-518 1166,-518 1166,-556"/>
<text text-anchor="middle" x="1122.5" y="-540.8" font-family="Times,serif" font-size="14.00">Slice()</text>
<text text-anchor="middle" x="1122.5" y="-525.8" font-family="Times,serif" font-size="14.00">t=0.53ms</text>
</g>
<!-- 139821825318048&#45;&gt;139821825318288 -->
<g id="edge34" class="edge">
<title>139821825318048&#45;&gt;139821825318288</title>
<path fill="none" stroke="black" d="M1122.5,-517.94C1122.5,-517.94 1122.5,-492.25 1122.5,-492.25"/>
<polygon fill="black" stroke="black" points="1126,-492.25 1122.5,-482.25 1119,-492.25 1126,-492.25"/>
</g>
<!-- 139821825317904 -->
<g id="node32" class="node">
<title>139821825317904</title>
<polygon fill="yellow" stroke="black" points="1032,-630 847,-630 847,-592 1032,-592 1032,-630"/>
<text text-anchor="middle" x="939.5" y="-614.8" font-family="Times,serif" font-size="14.00">FastFourierTransform()</text>
<text text-anchor="middle" x="939.5" y="-599.8" font-family="Times,serif" font-size="14.00">t=0.52ms</text>
</g>
<!-- 139821825317904&#45;&gt;139821825318048 -->
<g id="edge35" class="edge">
<title>139821825317904&#45;&gt;139821825318048</title>
<path fill="none" stroke="black" d="M1032.37,-601C1068.21,-601 1100.75,-601 1100.75,-601 1100.75,-601 1100.75,-566.2 1100.75,-566.2"/>
<polygon fill="black" stroke="black" points="1104.25,-566.2 1100.75,-556.2 1097.25,-566.2 1104.25,-566.2"/>
</g>
<!-- 139821825316704 -->
<g id="node33" class="node">
<title>139821825316704</title>
<polygon fill="white" stroke="black" points="1363.5,-704 1189.5,-704 1189.5,-666 1363.5,-666 1363.5,-704"/>
<text text-anchor="middle" x="1276.5" y="-688.8" font-family="Times,serif" font-size="14.00">Constant(constant=1)</text>
<text text-anchor="middle" x="1276.5" y="-673.8" font-family="Times,serif" font-size="14.00">t=0.00ms</text>
</g>
<!-- 139821825316704&#45;&gt;139821825318048 -->
<g id="edge36" class="edge">
<title>139821825316704&#45;&gt;139821825318048</title>
<path fill="none" stroke="black" d="M1189.31,-685C1183.36,-685 1179.67,-685 1179.67,-685 1179.67,-685 1179.67,-537 1179.67,-537 1179.67,-537 1176.12,-537 1176.12,-537"/>
<polygon fill="black" stroke="black" points="1176.12,-533.5 1166.12,-537 1176.12,-540.5 1176.12,-533.5"/>
</g>
<!-- 139821825316992 -->
<g id="node38" class="node">
<title>139821825316992</title>
<polygon fill="white" stroke="black" points="1320,-630 1233,-630 1233,-592 1320,-592 1320,-630"/>
<text text-anchor="middle" x="1276.5" y="-614.8" font-family="Times,serif" font-size="14.00">Slice()</text>
<text text-anchor="middle" x="1276.5" y="-599.8" font-family="Times,serif" font-size="14.00">t=0.08ms</text>
</g>
<!-- 139821825316704&#45;&gt;139821825316992 -->
<g id="edge45" class="edge">
<title>139821825316704&#45;&gt;139821825316992</title>
<path fill="none" stroke="black" d="M1276.5,-665.94C1276.5,-665.94 1276.5,-640.25 1276.5,-640.25"/>
<polygon fill="black" stroke="black" points="1280,-640.25 1276.5,-630.25 1273,-640.25 1280,-640.25"/>
</g>
<!-- 139821824536736 -->
<g id="node34" class="node">
<title>139821824536736</title>
<polygon fill="white" stroke="black" points="1171,-704 968,-704 968,-666 1171,-666 1171,-704"/>
<text text-anchor="middle" x="1069.5" y="-688.8" font-family="Times,serif" font-size="14.00">Constant(constant=None)</text>
<text text-anchor="middle" x="1069.5" y="-673.8" font-family="Times,serif" font-size="14.00">t=0.00ms</text>
</g>
<!-- 139821824536736&#45;&gt;139821825318048 -->
<g id="edge37" class="edge">
<title>139821824536736&#45;&gt;139821825318048</title>
<path fill="none" stroke="black" d="M1122.5,-665.95C1122.5,-665.95 1122.5,-566.44 1122.5,-566.44"/>
<polygon fill="black" stroke="black" points="1126,-566.44 1122.5,-556.44 1119,-566.44 1126,-566.44"/>
</g>
<!-- 139821824536736&#45;&gt;139821825316992 -->
<g id="edge46" class="edge">
<title>139821824536736&#45;&gt;139821825316992</title>
<path fill="none" stroke="black" d="M1144.25,-665.94C1144.25,-644.02 1144.25,-611 1144.25,-611 1144.25,-611 1222.83,-611 1222.83,-611"/>
<polygon fill="black" stroke="black" points="1222.83,-614.5 1232.83,-611 1222.83,-607.5 1222.83,-614.5"/>
</g>
<!-- 139821825317760&#45;&gt;139821825317904 -->
<g id="edge38" class="edge">
<title>139821825317760&#45;&gt;139821825317904</title>
<path fill="none" stroke="black" d="M879,-665.94C879,-665.94 879,-640.25 879,-640.25"/>
<polygon fill="black" stroke="black" points="882.5,-640.25 879,-630.25 875.5,-640.25 882.5,-640.25"/>
</g>
<!-- 139821825315408 -->
<g id="node36" class="node">
<title>139821825315408</title>
<polygon fill="white" stroke="black" points="1424,-778 1071,-778 1071,-740 1424,-740 1424,-778"/>
<text text-anchor="middle" x="1247.5" y="-762.8" font-family="Times,serif" font-size="14.00">Constant(constant=2.2675736961451248e&#45;05)</text>
<text text-anchor="middle" x="1247.5" y="-747.8" font-family="Times,serif" font-size="14.00">t=0.00ms</text>
</g>
<!-- 139821825315408&#45;&gt;139821825317904 -->
<g id="edge39" class="edge">
<title>139821825315408&#45;&gt;139821825317904</title>
<path fill="none" stroke="black" d="M1175.33,-739.96C1175.33,-701.9 1175.33,-620 1175.33,-620 1175.33,-620 1042.03,-620 1042.03,-620"/>
<polygon fill="black" stroke="black" points="1042.03,-616.5 1032.03,-620 1042.03,-623.5 1042.03,-616.5"/>
</g>
<!-- 139821825315408&#45;&gt;139821825316848 -->
<g id="edge48" class="edge">
<title>139821825315408&#45;&gt;139821825316848</title>
<path fill="none" stroke="black" d="M1402.75,-739.94C1402.75,-739.94 1402.75,-714.25 1402.75,-714.25"/>
<polygon fill="black" stroke="black" points="1406.25,-714.25 1402.75,-704.25 1399.25,-714.25 1406.25,-714.25"/>
</g>
<!-- 139821825317616&#45;&gt;139821825317760 -->
<g id="edge41" class="edge">
<title>139821825317616&#45;&gt;139821825317760</title>
<path fill="none" stroke="black" d="M867.5,-739.94C867.5,-739.94 867.5,-714.25 867.5,-714.25"/>
<polygon fill="black" stroke="black" points="871,-714.25 867.5,-704.25 864,-714.25 871,-714.25"/>
</g>
<!-- 139821825316992&#45;&gt;139821825318432 -->
<g id="edge49" class="edge">
<title>139821825316992&#45;&gt;139821825318432</title>
<path fill="none" stroke="black" d="M1320.13,-604C1336.96,-604 1352.25,-604 1352.25,-604 1352.25,-604 1352.25,-463 1352.25,-463 1352.25,-463 1351.14,-463 1351.14,-463"/>
<polygon fill="black" stroke="black" points="1351.17,-459.5 1341.17,-463 1351.17,-466.5 1351.17,-459.5"/>
</g>
<!-- 139821825316992&#45;&gt;139821825318144 -->
<g id="edge43" class="edge">
<title>139821825316992&#45;&gt;139821825318144</title>
<path fill="none" stroke="black" d="M1276.5,-591.94C1276.5,-591.94 1276.5,-566.25 1276.5,-566.25"/>
<polygon fill="black" stroke="black" points="1280,-566.25 1276.5,-556.25 1273,-566.25 1280,-566.25"/>
</g>
<!-- 139821825316848&#45;&gt;139821825316992 -->
<g id="edge44" class="edge">
<title>139821825316848&#45;&gt;139821825316992</title>
<path fill="none" stroke="black" d="M1517.5,-665.7C1517.5,-645.59 1517.5,-617 1517.5,-617 1517.5,-617 1330.14,-617 1330.14,-617"/>
<polygon fill="black" stroke="black" points="1330.14,-613.5 1320.14,-617 1330.14,-620.5 1330.14,-613.5"/>
</g>
</g>
</svg>
