<?xml version="1.0" encoding="UTF-8" standalone="no"?>
<!DOCTYPE svg PUBLIC "-//W3C//DTD SVG 1.1//EN"
 "http://www.w3.org/Graphics/SVG/1.1/DTD/svg11.dtd">
<!-- Generated by graphviz version 2.43.0 (0)
 -->
<!-- Title: Computations Pages: 1 -->
<svg width="2379pt" height="1304pt"
 viewBox="0.00 0.00 2379.00 1304.00" xmlns="http://www.w3.org/2000/svg" xmlns:xlink="http://www.w3.org/1999/xlink">
<g id="graph0" class="graph" transform="scale(1 1) rotate(0) translate(4 1300)">
<title>Computations</title>
<polygon fill="white" stroke="transparent" points="-4,4 -4,-1300 2375,-1300 2375,4 -4,4"/>
<!-- 139983398170784 -->
<g id="node1" class="node">
<title>139983398170784</title>
<polygon fill="yellow" stroke="black" points="2068.5,-38 1835.5,-38 1835.5,0 2068.5,0 2068.5,-38"/>
<text text-anchor="middle" x="1952" y="-22.8" font-family="Times,serif" font-size="14.00">Star(ip_address=, port=1234)</text>
<text text-anchor="middle" x="1952" y="-7.8" font-family="Times,serif" font-size="14.00">t=7.59ms</text>
</g>
<!-- 139983398112704 -->
<g id="node2" class="node">
<title>139983398112704</title>
<polygon fill="yellow" stroke="black" points="1756,-112 1054,-112 1054,-74 1756,-74 1756,-112"/>
<text text-anchor="middle" x="1405" y="-96.8" font-family="Times,serif" font-size="14.00">Monitor(name=final, monitor_client=&lt;airpixel.client.MonitorClient object at 0x7f506dcdfc70&gt;)</text>
<text text-anchor="middle" x="1405" y="-81.8" font-family="Times,serif" font-size="14.00">t=4.69ms</text>
</g>
<!-- 139983398112704&#45;&gt;139983398170784 -->
<g id="edge1" class="edge">
<title>139983398112704&#45;&gt;139983398170784</title>
<path fill="none" stroke="black" d="M1405,-73.8C1405,-49.85 1405,-12 1405,-12 1405,-12 1825.33,-12 1825.33,-12"/>
<polygon fill="black" stroke="black" points="1825.33,-15.5 1835.33,-12 1825.33,-8.5 1825.33,-15.5"/>
</g>
<!-- 139983398109728 -->
<g id="node3" class="node">
<title>139983398109728</title>
<polygon fill="white" stroke="black" points="1902,-260 1728,-260 1728,-222 1902,-222 1902,-260"/>
<text text-anchor="middle" x="1815" y="-244.8" font-family="Times,serif" font-size="14.00">Constant(constant=8)</text>
<text text-anchor="middle" x="1815" y="-229.8" font-family="Times,serif" font-size="14.00">t=0.00ms</text>
</g>
<!-- 139983398109728&#45;&gt;139983398170784 -->
<g id="edge2" class="edge">
<title>139983398109728&#45;&gt;139983398170784</title>
<path fill="none" stroke="black" d="M1784.25,-221.83C1784.25,-168.97 1784.25,-25 1784.25,-25 1784.25,-25 1825.49,-25 1825.49,-25"/>
<polygon fill="black" stroke="black" points="1825.49,-28.5 1835.49,-25 1825.49,-21.5 1825.49,-28.5"/>
</g>
<!-- 139983398112944 -->
<g id="node4" class="node">
<title>139983398112944</title>
<polygon fill="white" stroke="black" points="2022.5,-186 1935.5,-186 1935.5,-148 2022.5,-148 2022.5,-186"/>
<text text-anchor="middle" x="1979" y="-170.8" font-family="Times,serif" font-size="14.00">Multiply()</text>
<text text-anchor="middle" x="1979" y="-155.8" font-family="Times,serif" font-size="14.00">t=0.00ms</text>
</g>
<!-- 139983398109728&#45;&gt;139983398112944 -->
<g id="edge9" class="edge">
<title>139983398109728&#45;&gt;139983398112944</title>
<path fill="none" stroke="black" d="M1872.17,-221.94C1872.17,-200.02 1872.17,-167 1872.17,-167 1872.17,-167 1925.24,-167 1925.24,-167"/>
<polygon fill="black" stroke="black" points="1925.24,-170.5 1935.24,-167 1925.24,-163.5 1925.24,-170.5"/>
</g>
<!-- 139983398113088 -->
<g id="node6" class="node">
<title>139983398113088</title>
<polygon fill="white" stroke="black" points="1925.5,-112 1812.5,-112 1812.5,-74 1925.5,-74 1925.5,-112"/>
<text text-anchor="middle" x="1869" y="-96.8" font-family="Times,serif" font-size="14.00">BeamMasks()</text>
<text text-anchor="middle" x="1869" y="-81.8" font-family="Times,serif" font-size="14.00">t=0.00ms</text>
</g>
<!-- 139983398109728&#45;&gt;139983398113088 -->
<g id="edge7" class="edge">
<title>139983398109728&#45;&gt;139983398113088</title>
<path fill="none" stroke="black" d="M1842.33,-221.95C1842.33,-221.95 1842.33,-122.44 1842.33,-122.44"/>
<polygon fill="black" stroke="black" points="1845.83,-122.44 1842.33,-112.44 1838.83,-122.44 1845.83,-122.44"/>
</g>
<!-- 139983398112944&#45;&gt;139983398170784 -->
<g id="edge3" class="edge">
<title>139983398112944&#45;&gt;139983398170784</title>
<path fill="none" stroke="black" d="M1940.83,-147.95C1940.83,-147.95 1940.83,-48.44 1940.83,-48.44"/>
<polygon fill="black" stroke="black" points="1944.33,-48.44 1940.83,-38.44 1937.33,-48.44 1944.33,-48.44"/>
</g>
<!-- 139983398112944&#45;&gt;139983398113088 -->
<g id="edge8" class="edge">
<title>139983398112944&#45;&gt;139983398113088</title>
<path fill="none" stroke="black" d="M1938.17,-147.94C1938.17,-126.02 1938.17,-93 1938.17,-93 1938.17,-93 1935.8,-93 1935.8,-93"/>
<polygon fill="black" stroke="black" points="1935.8,-89.5 1925.8,-93 1935.8,-96.5 1935.8,-89.5"/>
</g>
<!-- 139983398109440 -->
<g id="node5" class="node">
<title>139983398109440</title>
<polygon fill="white" stroke="black" points="2126.5,-112 1943.5,-112 1943.5,-74 2126.5,-74 2126.5,-112"/>
<text text-anchor="middle" x="2035" y="-96.8" font-family="Times,serif" font-size="14.00">Constant(constant=36)</text>
<text text-anchor="middle" x="2035" y="-81.8" font-family="Times,serif" font-size="14.00">t=infms</text>
</g>
<!-- 139983398109440&#45;&gt;139983398170784 -->
<g id="edge4" class="edge">
<title>139983398109440&#45;&gt;139983398170784</title>
<path fill="none" stroke="black" d="M2006,-73.94C2006,-73.94 2006,-48.25 2006,-48.25"/>
<polygon fill="black" stroke="black" points="2009.5,-48.25 2006,-38.25 2002.5,-48.25 2009.5,-48.25"/>
</g>
<!-- 139983398113088&#45;&gt;139983398170784 -->
<g id="edge5" class="edge">
<title>139983398113088&#45;&gt;139983398170784</title>
<path fill="none" stroke="black" d="M1880.5,-73.94C1880.5,-73.94 1880.5,-48.25 1880.5,-48.25"/>
<polygon fill="black" stroke="black" points="1884,-48.25 1880.5,-38.25 1877,-48.25 1884,-48.25"/>
</g>
<!-- 139983398113232 -->
<g id="node7" class="node">
<title>139983398113232</title>
<polygon fill="white" stroke="black" points="2371,-112 2183,-112 2183,-74 2371,-74 2371,-112"/>
<text text-anchor="middle" x="2277" y="-96.8" font-family="Times,serif" font-size="14.00">Constant(constant=0.5)</text>
<text text-anchor="middle" x="2277" y="-81.8" font-family="Times,serif" font-size="14.00">t=0.00ms</text>
</g>
<!-- 139983398113232&#45;&gt;139983398170784 -->
<g id="edge6" class="edge">
<title>139983398113232&#45;&gt;139983398170784</title>
<path fill="none" stroke="black" d="M2277,-73.94C2277,-52.02 2277,-19 2277,-19 2277,-19 2078.87,-19 2078.87,-19"/>
<polygon fill="black" stroke="black" points="2078.87,-15.5 2068.87,-19 2078.87,-22.5 2078.87,-15.5"/>
</g>
<!-- 139983398112800 -->
<g id="node8" class="node">
<title>139983398112800</title>
<polygon fill="white" stroke="black" points="2103.5,-260 1920.5,-260 1920.5,-222 2103.5,-222 2103.5,-260"/>
<text text-anchor="middle" x="2012" y="-244.8" font-family="Times,serif" font-size="14.00">Constant(constant=16)</text>
<text text-anchor="middle" x="2012" y="-229.8" font-family="Times,serif" font-size="14.00">t=infms</text>
</g>
<!-- 139983398112800&#45;&gt;139983398112944 -->
<g id="edge10" class="edge">
<title>139983398112800&#45;&gt;139983398112944</title>
<path fill="none" stroke="black" d="M1979,-221.94C1979,-221.94 1979,-196.25 1979,-196.25"/>
<polygon fill="black" stroke="black" points="1982.5,-196.25 1979,-186.25 1975.5,-196.25 1982.5,-196.25"/>
</g>
<!-- 139983398112560 -->
<g id="node9" class="node">
<title>139983398112560</title>
<polygon fill="yellow" stroke="black" points="1448.5,-186 1361.5,-186 1361.5,-148 1448.5,-148 1448.5,-186"/>
<text text-anchor="middle" x="1405" y="-170.8" font-family="Times,serif" font-size="14.00">Roll()</text>
<text text-anchor="middle" x="1405" y="-155.8" font-family="Times,serif" font-size="14.00">t=2.22ms</text>
</g>
<!-- 139983398112560&#45;&gt;139983398112704 -->
<g id="edge11" class="edge">
<title>139983398112560&#45;&gt;139983398112704</title>
<path fill="none" stroke="black" d="M1405,-147.94C1405,-147.94 1405,-122.25 1405,-122.25"/>
<polygon fill="black" stroke="black" points="1408.5,-122.25 1405,-112.25 1401.5,-122.25 1408.5,-122.25"/>
</g>
<!-- 139983398112128 -->
<g id="node10" class="node">
<title>139983398112128</title>
<polygon fill="yellow" stroke="black" points="1372.5,-260 1285.5,-260 1285.5,-222 1372.5,-222 1372.5,-260"/>
<text text-anchor="middle" x="1329" y="-244.8" font-family="Times,serif" font-size="14.00">Mirror()</text>
<text text-anchor="middle" x="1329" y="-229.8" font-family="Times,serif" font-size="14.00">t=4.37ms</text>
</g>
<!-- 139983398112128&#45;&gt;139983398112560 -->
<g id="edge12" class="edge">
<title>139983398112128&#45;&gt;139983398112560</title>
<path fill="none" stroke="black" d="M1367,-221.94C1367,-221.94 1367,-196.25 1367,-196.25"/>
<polygon fill="black" stroke="black" points="1370.5,-196.25 1367,-186.25 1363.5,-196.25 1370.5,-196.25"/>
</g>
<!-- 139983398112416 -->
<g id="node11" class="node">
<title>139983398112416</title>
<polygon fill="white" stroke="black" points="1573.5,-260 1390.5,-260 1390.5,-222 1573.5,-222 1573.5,-260"/>
<text text-anchor="middle" x="1482" y="-244.8" font-family="Times,serif" font-size="14.00">Constant(constant=16)</text>
<text text-anchor="middle" x="1482" y="-229.8" font-family="Times,serif" font-size="14.00">t=0.00ms</text>
</g>
<!-- 139983398112416&#45;&gt;139983398112560 -->
<g id="edge13" class="edge">
<title>139983398112416&#45;&gt;139983398112560</title>
<path fill="none" stroke="black" d="M1419.5,-221.94C1419.5,-221.94 1419.5,-196.25 1419.5,-196.25"/>
<polygon fill="black" stroke="black" points="1423,-196.25 1419.5,-186.25 1416,-196.25 1423,-196.25"/>
</g>
<!-- 139983398112032 -->
<g id="node12" class="node">
<title>139983398112032</title>
<polygon fill="yellow" stroke="black" points="1292.5,-334 1205.5,-334 1205.5,-296 1292.5,-296 1292.5,-334"/>
<text text-anchor="middle" x="1249" y="-318.8" font-family="Times,serif" font-size="14.00">Multiply()</text>
<text text-anchor="middle" x="1249" y="-303.8" font-family="Times,serif" font-size="14.00">t=2.17ms</text>
</g>
<!-- 139983398112032&#45;&gt;139983398112128 -->
<g id="edge14" class="edge">
<title>139983398112032&#45;&gt;139983398112128</title>
<path fill="none" stroke="black" d="M1289,-295.94C1289,-295.94 1289,-270.25 1289,-270.25"/>
<polygon fill="black" stroke="black" points="1292.5,-270.25 1289,-260.25 1285.5,-270.25 1292.5,-270.25"/>
</g>
<!-- 139983398112176 -->
<g id="node13" class="node">
<title>139983398112176</title>
<polygon fill="white" stroke="black" points="1509,-334 1311,-334 1311,-296 1509,-296 1509,-334"/>
<text text-anchor="middle" x="1410" y="-318.8" font-family="Times,serif" font-size="14.00">Constant(constant=True)</text>
<text text-anchor="middle" x="1410" y="-303.8" font-family="Times,serif" font-size="14.00">t=0.00ms</text>
</g>
<!-- 139983398112176&#45;&gt;139983398112128 -->
<g id="edge15" class="edge">
<title>139983398112176&#45;&gt;139983398112128</title>
<path fill="none" stroke="black" d="M1341.75,-295.94C1341.75,-295.94 1341.75,-270.25 1341.75,-270.25"/>
<polygon fill="black" stroke="black" points="1345.25,-270.25 1341.75,-260.25 1338.25,-270.25 1345.25,-270.25"/>
</g>
<!-- 139983398111648 -->
<g id="node14" class="node">
<title>139983398111648</title>
<polygon fill="yellow" stroke="black" points="902,-408 742,-408 742,-370 902,-370 902,-408"/>
<text text-anchor="middle" x="822" y="-392.8" font-family="Times,serif" font-size="14.00">VolumeNormalizer()</text>
<text text-anchor="middle" x="822" y="-377.8" font-family="Times,serif" font-size="14.00">t=2.36ms</text>
</g>
<!-- 139983398111648&#45;&gt;139983398112032 -->
<g id="edge16" class="edge">
<title>139983398111648&#45;&gt;139983398112032</title>
<path fill="none" stroke="black" d="M902.02,-389C1021.98,-389 1234.5,-389 1234.5,-389 1234.5,-389 1234.5,-344.06 1234.5,-344.06"/>
<polygon fill="black" stroke="black" points="1238,-344.06 1234.5,-334.06 1231,-344.06 1238,-344.06"/>
</g>
<!-- 139983414820000 -->
<g id="node15" class="node">
<title>139983414820000</title>
<polygon fill="yellow" stroke="black" points="1429,-1000 1283,-1000 1283,-962 1429,-962 1429,-1000"/>
<text text-anchor="middle" x="1356" y="-984.8" font-family="Times,serif" font-size="14.00">ThresholdToggle()</text>
<text text-anchor="middle" x="1356" y="-969.8" font-family="Times,serif" font-size="14.00">t=1.97ms</text>
</g>
<!-- 139983414820000&#45;&gt;139983398112032 -->
<g id="edge17" class="edge">
<title>139983414820000&#45;&gt;139983398112032</title>
<path fill="none" stroke="black" d="M1378.5,-961.52C1378.5,-891.13 1378.5,-654 1378.5,-654 1378.5,-654 1263.5,-654 1263.5,-654 1263.5,-654 1263.5,-344.2 1263.5,-344.2"/>
<polygon fill="black" stroke="black" points="1267,-344.2 1263.5,-334.2 1260,-344.2 1267,-344.2"/>
</g>
<!-- 139983414820528 -->
<g id="node16" class="node">
<title>139983414820528</title>
<polygon fill="yellow" stroke="black" points="1168.5,-1074 1039.5,-1074 1039.5,-1036 1168.5,-1036 1168.5,-1074"/>
<text text-anchor="middle" x="1104" y="-1058.8" font-family="Times,serif" font-size="14.00">History(size=6)</text>
<text text-anchor="middle" x="1104" y="-1043.8" font-family="Times,serif" font-size="14.00">t=0.00ms</text>
</g>
<!-- 139983414820528&#45;&gt;139983414820000 -->
<g id="edge18" class="edge">
<title>139983414820528&#45;&gt;139983414820000</title>
<path fill="none" stroke="black" d="M1104,-1035.63C1104,-1026.68 1104,-1018 1104,-1018 1104,-1018 1331.67,-1018 1331.67,-1018 1331.67,-1018 1331.67,-1010.37 1331.67,-1010.37"/>
<polygon fill="black" stroke="black" points="1335.17,-1010.37 1331.67,-1000.37 1328.17,-1010.37 1335.17,-1010.37"/>
</g>
<!-- 139983414819904 -->
<g id="node17" class="node">
<title>139983414819904</title>
<polygon fill="white" stroke="black" points="1443,-1074 1269,-1074 1269,-1036 1443,-1036 1443,-1074"/>
<text text-anchor="middle" x="1356" y="-1058.8" font-family="Times,serif" font-size="14.00">Constant(constant=0)</text>
<text text-anchor="middle" x="1356" y="-1043.8" font-family="Times,serif" font-size="14.00">t=0.00ms</text>
</g>
<!-- 139983414819904&#45;&gt;139983414820000 -->
<g id="edge19" class="edge">
<title>139983414819904&#45;&gt;139983414820000</title>
<path fill="none" stroke="black" d="M1380.33,-1035.94C1380.33,-1035.94 1380.33,-1010.25 1380.33,-1010.25"/>
<polygon fill="black" stroke="black" points="1383.83,-1010.25 1380.33,-1000.25 1376.83,-1010.25 1383.83,-1010.25"/>
</g>
<!-- 139983414819568 -->
<g id="node18" class="node">
<title>139983414819568</title>
<polygon fill="yellow" stroke="black" points="1365.5,-1148 634.5,-1148 634.5,-1110 1365.5,-1110 1365.5,-1148"/>
<text text-anchor="middle" x="1000" y="-1132.8" font-family="Times,serif" font-size="14.00">Monitor(name=audio_in, monitor_client=&lt;airpixel.client.MonitorClient object at 0x7f506dcdfc70&gt;)</text>
<text text-anchor="middle" x="1000" y="-1117.8" font-family="Times,serif" font-size="14.00">t=0.30ms</text>
</g>
<!-- 139983414819568&#45;&gt;139983414820528 -->
<g id="edge20" class="edge">
<title>139983414819568&#45;&gt;139983414820528</title>
<path fill="none" stroke="black" d="M1104,-1109.94C1104,-1109.94 1104,-1084.25 1104,-1084.25"/>
<polygon fill="black" stroke="black" points="1107.5,-1084.25 1104,-1074.25 1100.5,-1084.25 1107.5,-1084.25"/>
</g>
<!-- 139983398110256 -->
<g id="node39" class="node">
<title>139983398110256</title>
<polygon fill="yellow" stroke="black" points="939.5,-1074 852.5,-1074 852.5,-1036 939.5,-1036 939.5,-1074"/>
<text text-anchor="middle" x="896" y="-1058.8" font-family="Times,serif" font-size="14.00">Multiply()</text>
<text text-anchor="middle" x="896" y="-1043.8" font-family="Times,serif" font-size="14.00">t=0.32ms</text>
</g>
<!-- 139983414819568&#45;&gt;139983398110256 -->
<g id="edge42" class="edge">
<title>139983414819568&#45;&gt;139983398110256</title>
<path fill="none" stroke="black" d="M896,-1109.94C896,-1109.94 896,-1084.25 896,-1084.25"/>
<polygon fill="black" stroke="black" points="899.5,-1084.25 896,-1074.25 892.5,-1084.25 899.5,-1084.25"/>
</g>
<!-- 139983414820432 -->
<g id="node19" class="node">
<title>139983414820432</title>
<polygon fill="yellow" stroke="black" points="1336.5,-1222 599.5,-1222 599.5,-1184 1336.5,-1184 1336.5,-1222"/>
<text text-anchor="middle" x="968" y="-1206.8" font-family="Times,serif" font-size="14.00">AudioSource(audio_input=&lt;AudioInput(audio&#45;capture&#45;thread, started daemon 139983406737152)&gt;)</text>
<text text-anchor="middle" x="968" y="-1191.8" font-family="Times,serif" font-size="14.00">t=0.15ms</text>
</g>
<!-- 139983414820432&#45;&gt;139983414819568 -->
<g id="edge21" class="edge">
<title>139983414820432&#45;&gt;139983414819568</title>
<path fill="none" stroke="black" d="M985.5,-1183.94C985.5,-1183.94 985.5,-1158.25 985.5,-1158.25"/>
<polygon fill="black" stroke="black" points="989,-1158.25 985.5,-1148.25 982,-1158.25 989,-1158.25"/>
</g>
<!-- 139983414820048 -->
<g id="node20" class="node">
<title>139983414820048</title>
<polygon fill="white" stroke="black" points="640.5,-1296 439.5,-1296 439.5,-1258 640.5,-1258 640.5,-1296"/>
<text text-anchor="middle" x="540" y="-1280.8" font-family="Times,serif" font-size="14.00">Constant(constant=2205)</text>
<text text-anchor="middle" x="540" y="-1265.8" font-family="Times,serif" font-size="14.00">t=0.00ms</text>
</g>
<!-- 139983414820048&#45;&gt;139983414820432 -->
<g id="edge22" class="edge">
<title>139983414820048&#45;&gt;139983414820432</title>
<path fill="none" stroke="black" d="M620,-1257.94C620,-1257.94 620,-1232.25 620,-1232.25"/>
<polygon fill="black" stroke="black" points="623.5,-1232.25 620,-1222.25 616.5,-1232.25 623.5,-1232.25"/>
</g>
<!-- 139983416324784 -->
<g id="node40" class="node">
<title>139983416324784</title>
<polygon fill="white" stroke="black" points="617,-1148 463,-1148 463,-1110 617,-1110 617,-1148"/>
<text text-anchor="middle" x="540" y="-1132.8" font-family="Times,serif" font-size="14.00">HammingWindow()</text>
<text text-anchor="middle" x="540" y="-1117.8" font-family="Times,serif" font-size="14.00">t=0.00ms</text>
</g>
<!-- 139983414820048&#45;&gt;139983416324784 -->
<g id="edge44" class="edge">
<title>139983414820048&#45;&gt;139983416324784</title>
<path fill="none" stroke="black" d="M531.25,-1257.95C531.25,-1257.95 531.25,-1158.44 531.25,-1158.44"/>
<polygon fill="black" stroke="black" points="534.75,-1158.44 531.25,-1148.44 527.75,-1158.44 534.75,-1158.44"/>
</g>
<!-- 139983398110016 -->
<g id="node42" class="node">
<title>139983398110016</title>
<polygon fill="white" stroke="black" points="272,-926 0,-926 0,-888 272,-888 272,-926"/>
<text text-anchor="middle" x="136" y="-910.8" font-family="Times,serif" font-size="14.00">FastFourierTransformFrequencies()</text>
<text text-anchor="middle" x="136" y="-895.8" font-family="Times,serif" font-size="14.00">t=0.16ms</text>
</g>
<!-- 139983414820048&#45;&gt;139983398110016 -->
<g id="edge49" class="edge">
<title>139983414820048&#45;&gt;139983398110016</title>
<path fill="none" stroke="black" d="M439.41,-1277C303.43,-1277 77.75,-1277 77.75,-1277 77.75,-1277 77.75,-936.11 77.75,-936.11"/>
<polygon fill="black" stroke="black" points="81.25,-936.11 77.75,-926.11 74.25,-936.11 81.25,-936.11"/>
</g>
<!-- 139983398111600 -->
<g id="node21" class="node">
<title>139983398111600</title>
<polygon fill="yellow" stroke="black" points="1195,-482 449,-482 449,-444 1195,-444 1195,-482"/>
<text text-anchor="middle" x="822" y="-466.8" font-family="Times,serif" font-size="14.00">Monitor(name=resampled, monitor_client=&lt;airpixel.client.MonitorClient object at 0x7f506dcdfc70&gt;)</text>
<text text-anchor="middle" x="822" y="-451.8" font-family="Times,serif" font-size="14.00">t=2.31ms</text>
</g>
<!-- 139983398111600&#45;&gt;139983398111648 -->
<g id="edge23" class="edge">
<title>139983398111600&#45;&gt;139983398111648</title>
<path fill="none" stroke="black" d="M822,-443.94C822,-443.94 822,-418.25 822,-418.25"/>
<polygon fill="black" stroke="black" points="825.5,-418.25 822,-408.25 818.5,-418.25 825.5,-418.25"/>
</g>
<!-- 139983398111696 -->
<g id="node22" class="node">
<title>139983398111696</title>
<polygon fill="yellow" stroke="black" points="430.5,-482 343.5,-482 343.5,-444 430.5,-444 430.5,-482"/>
<text text-anchor="middle" x="387" y="-466.8" font-family="Times,serif" font-size="14.00">Time()</text>
<text text-anchor="middle" x="387" y="-451.8" font-family="Times,serif" font-size="14.00">t=0.00ms</text>
</g>
<!-- 139983398111696&#45;&gt;139983398111648 -->
<g id="edge24" class="edge">
<title>139983398111696&#45;&gt;139983398111648</title>
<path fill="none" stroke="black" d="M387,-443.94C387,-422.02 387,-389 387,-389 387,-389 731.96,-389 731.96,-389"/>
<polygon fill="black" stroke="black" points="731.96,-392.5 741.96,-389 731.96,-385.5 731.96,-392.5"/>
</g>
<!-- 139983398111504 -->
<g id="node23" class="node">
<title>139983398111504</title>
<polygon fill="yellow" stroke="black" points="763.5,-556 666.5,-556 666.5,-518 763.5,-518 763.5,-556"/>
<text text-anchor="middle" x="715" y="-540.8" font-family="Times,serif" font-size="14.00">Resample()</text>
<text text-anchor="middle" x="715" y="-525.8" font-family="Times,serif" font-size="14.00">t=1.03ms</text>
</g>
<!-- 139983398111504&#45;&gt;139983398111600 -->
<g id="edge25" class="edge">
<title>139983398111504&#45;&gt;139983398111600</title>
<path fill="none" stroke="black" d="M715,-517.94C715,-517.94 715,-492.25 715,-492.25"/>
<polygon fill="black" stroke="black" points="718.5,-492.25 715,-482.25 711.5,-492.25 718.5,-492.25"/>
</g>
<!-- 139983398111216 -->
<g id="node24" class="node">
<title>139983398111216</title>
<polygon fill="white" stroke="black" points="106.5,-630 19.5,-630 19.5,-592 106.5,-592 106.5,-630"/>
<text text-anchor="middle" x="63" y="-614.8" font-family="Times,serif" font-size="14.00">Log2()</text>
<text text-anchor="middle" x="63" y="-599.8" font-family="Times,serif" font-size="14.00">t=0.00ms</text>
</g>
<!-- 139983398111216&#45;&gt;139983398111504 -->
<g id="edge26" class="edge">
<title>139983398111216&#45;&gt;139983398111504</title>
<path fill="none" stroke="black" d="M63,-591.94C63,-570.02 63,-537 63,-537 63,-537 656.26,-537 656.26,-537"/>
<polygon fill="black" stroke="black" points="656.26,-540.5 666.26,-537 656.26,-533.5 656.26,-540.5"/>
</g>
<!-- 139983398111120 -->
<g id="node25" class="node">
<title>139983398111120</title>
<polygon fill="yellow" stroke="black" points="877,-630 125,-630 125,-592 877,-592 877,-630"/>
<text text-anchor="middle" x="501" y="-614.8" font-family="Times,serif" font-size="14.00">Monitor(name=a_weighted, monitor_client=&lt;airpixel.client.MonitorClient object at 0x7f506dcdfc70&gt;)</text>
<text text-anchor="middle" x="501" y="-599.8" font-family="Times,serif" font-size="14.00">t=0.75ms</text>
</g>
<!-- 139983398111120&#45;&gt;139983398111504 -->
<g id="edge27" class="edge">
<title>139983398111120&#45;&gt;139983398111504</title>
<path fill="none" stroke="black" d="M715,-591.94C715,-591.94 715,-566.25 715,-566.25"/>
<polygon fill="black" stroke="black" points="718.5,-566.25 715,-556.25 711.5,-566.25 718.5,-566.25"/>
</g>
<!-- 139983398111360 -->
<g id="node26" class="node">
<title>139983398111360</title>
<polygon fill="white" stroke="black" points="985,-630 895,-630 895,-592 985,-592 985,-630"/>
<text text-anchor="middle" x="940" y="-614.8" font-family="Times,serif" font-size="14.00">Linspace()</text>
<text text-anchor="middle" x="940" y="-599.8" font-family="Times,serif" font-size="14.00">t=0.00ms</text>
</g>
<!-- 139983398111360&#45;&gt;139983398111504 -->
<g id="edge28" class="edge">
<title>139983398111360&#45;&gt;139983398111504</title>
<path fill="none" stroke="black" d="M940,-591.94C940,-570.02 940,-537 940,-537 940,-537 773.54,-537 773.54,-537"/>
<polygon fill="black" stroke="black" points="773.54,-533.5 763.54,-537 773.54,-540.5 773.54,-533.5"/>
</g>
<!-- 139983414820720 -->
<g id="node27" class="node">
<title>139983414820720</title>
<polygon fill="white" stroke="black" points="1328,-704 1050,-704 1050,-666 1328,-666 1328,-704"/>
<text text-anchor="middle" x="1189" y="-688.8" font-family="Times,serif" font-size="14.00">Constant(constant=6.02236781303)</text>
<text text-anchor="middle" x="1189" y="-673.8" font-family="Times,serif" font-size="14.00">t=0.01ms</text>
</g>
<!-- 139983414820720&#45;&gt;139983398111360 -->
<g id="edge29" class="edge">
<title>139983414820720&#45;&gt;139983398111360</title>
<path fill="none" stroke="black" d="M1122.5,-665.94C1122.5,-644.02 1122.5,-611 1122.5,-611 1122.5,-611 995.11,-611 995.11,-611"/>
<polygon fill="black" stroke="black" points="995.11,-607.5 985.11,-611 995.11,-614.5 995.11,-607.5"/>
</g>
<!-- 139983398109296 -->
<g id="node28" class="node">
<title>139983398109296</title>
<polygon fill="white" stroke="black" points="830,-704 552,-704 552,-666 830,-666 830,-704"/>
<text text-anchor="middle" x="691" y="-688.8" font-family="Times,serif" font-size="14.00">Constant(constant=11.0313565963)</text>
<text text-anchor="middle" x="691" y="-673.8" font-family="Times,serif" font-size="14.00">t=0.01ms</text>
</g>
<!-- 139983398109296&#45;&gt;139983398111360 -->
<g id="edge30" class="edge">
<title>139983398109296&#45;&gt;139983398111360</title>
<path fill="none" stroke="black" d="M691,-665.76C691,-654.31 691,-642 691,-642 691,-642 925,-642 925,-642 925,-642 925,-640.1 925,-640.1"/>
<polygon fill="black" stroke="black" points="928.5,-640.1 925,-630.1 921.5,-640.1 928.5,-640.1"/>
</g>
<!-- 139983398109584 -->
<g id="node29" class="node">
<title>139983398109584</title>
<polygon fill="white" stroke="black" points="1031.5,-704 848.5,-704 848.5,-666 1031.5,-666 1031.5,-704"/>
<text text-anchor="middle" x="940" y="-688.8" font-family="Times,serif" font-size="14.00">Constant(constant=19)</text>
<text text-anchor="middle" x="940" y="-673.8" font-family="Times,serif" font-size="14.00">t=0.01ms</text>
</g>
<!-- 139983398109584&#45;&gt;139983398111360 -->
<g id="edge31" class="edge">
<title>139983398109584&#45;&gt;139983398111360</title>
<path fill="none" stroke="black" d="M955,-665.94C955,-665.94 955,-640.25 955,-640.25"/>
<polygon fill="black" stroke="black" points="958.5,-640.25 955,-630.25 951.5,-640.25 958.5,-640.25"/>
</g>
<!-- 139983398110976 -->
<g id="node30" class="node">
<title>139983398110976</title>
<polygon fill="yellow" stroke="black" points="533.5,-704 446.5,-704 446.5,-666 533.5,-666 533.5,-704"/>
<text text-anchor="middle" x="490" y="-688.8" font-family="Times,serif" font-size="14.00">Multiply()</text>
<text text-anchor="middle" x="490" y="-673.8" font-family="Times,serif" font-size="14.00">t=0.64ms</text>
</g>
<!-- 139983398110976&#45;&gt;139983398111120 -->
<g id="edge32" class="edge">
<title>139983398110976&#45;&gt;139983398111120</title>
<path fill="none" stroke="black" d="M490,-665.94C490,-665.94 490,-640.25 490,-640.25"/>
<polygon fill="black" stroke="black" points="493.5,-640.25 490,-630.25 486.5,-640.25 493.5,-640.25"/>
</g>
<!-- 139983398110832 -->
<g id="node31" class="node">
<title>139983398110832</title>
<polygon fill="white" stroke="black" points="246.5,-778 91.5,-778 91.5,-740 246.5,-740 246.5,-778"/>
<text text-anchor="middle" x="169" y="-762.8" font-family="Times,serif" font-size="14.00">AWeightingVector()</text>
<text text-anchor="middle" x="169" y="-747.8" font-family="Times,serif" font-size="14.00">t=0.00ms</text>
</g>
<!-- 139983398110832&#45;&gt;139983398110976 -->
<g id="edge33" class="edge">
<title>139983398110832&#45;&gt;139983398110976</title>
<path fill="none" stroke="black" d="M185.75,-739.94C185.75,-718.02 185.75,-685 185.75,-685 185.75,-685 436.41,-685 436.41,-685"/>
<polygon fill="black" stroke="black" points="436.41,-688.5 446.41,-685 436.41,-681.5 436.41,-688.5"/>
</g>
<!-- 139983398110736 -->
<g id="node32" class="node">
<title>139983398110736</title>
<polygon fill="yellow" stroke="black" points="951.5,-778 264.5,-778 264.5,-740 951.5,-740 951.5,-778"/>
<text text-anchor="middle" x="608" y="-762.8" font-family="Times,serif" font-size="14.00">Monitor(name=fft, monitor_client=&lt;airpixel.client.MonitorClient object at 0x7f506dcdfc70&gt;)</text>
<text text-anchor="middle" x="608" y="-747.8" font-family="Times,serif" font-size="14.00">t=1.26ms</text>
</g>
<!-- 139983398110736&#45;&gt;139983398110976 -->
<g id="edge34" class="edge">
<title>139983398110736&#45;&gt;139983398110976</title>
<path fill="none" stroke="black" d="M490,-739.94C490,-739.94 490,-714.25 490,-714.25"/>
<polygon fill="black" stroke="black" points="493.5,-714.25 490,-704.25 486.5,-714.25 493.5,-714.25"/>
</g>
<!-- 139983398110640 -->
<g id="node33" class="node">
<title>139983398110640</title>
<polygon fill="yellow" stroke="black" points="646.5,-852 559.5,-852 559.5,-814 646.5,-814 646.5,-852"/>
<text text-anchor="middle" x="603" y="-836.8" font-family="Times,serif" font-size="14.00">Slice()</text>
<text text-anchor="middle" x="603" y="-821.8" font-family="Times,serif" font-size="14.00">t=0.51ms</text>
</g>
<!-- 139983398110640&#45;&gt;139983398110736 -->
<g id="edge35" class="edge">
<title>139983398110640&#45;&gt;139983398110736</title>
<path fill="none" stroke="black" d="M603,-813.94C603,-813.94 603,-788.25 603,-788.25"/>
<polygon fill="black" stroke="black" points="606.5,-788.25 603,-778.25 599.5,-788.25 606.5,-788.25"/>
</g>
<!-- 139983398110496 -->
<g id="node34" class="node">
<title>139983398110496</title>
<polygon fill="yellow" stroke="black" points="889.5,-926 704.5,-926 704.5,-888 889.5,-888 889.5,-926"/>
<text text-anchor="middle" x="797" y="-910.8" font-family="Times,serif" font-size="14.00">FastFourierTransform()</text>
<text text-anchor="middle" x="797" y="-895.8" font-family="Times,serif" font-size="14.00">t=1.01ms</text>
</g>
<!-- 139983398110496&#45;&gt;139983398110640 -->
<g id="edge36" class="edge">
<title>139983398110496&#45;&gt;139983398110640</title>
<path fill="none" stroke="black" d="M797,-887.94C797,-866.02 797,-833 797,-833 797,-833 656.54,-833 656.54,-833"/>
<polygon fill="black" stroke="black" points="656.54,-829.5 646.54,-833 656.54,-836.5 656.54,-829.5"/>
</g>
<!-- 139983398109872 -->
<g id="node35" class="node">
<title>139983398109872</title>
<polygon fill="white" stroke="black" points="686,-926 512,-926 512,-888 686,-888 686,-926"/>
<text text-anchor="middle" x="599" y="-910.8" font-family="Times,serif" font-size="14.00">Constant(constant=1)</text>
<text text-anchor="middle" x="599" y="-895.8" font-family="Times,serif" font-size="14.00">t=0.00ms</text>
</g>
<!-- 139983398109872&#45;&gt;139983398110640 -->
<g id="edge37" class="edge">
<title>139983398109872&#45;&gt;139983398110640</title>
<path fill="none" stroke="black" d="M603,-887.94C603,-887.94 603,-862.25 603,-862.25"/>
<polygon fill="black" stroke="black" points="606.5,-862.25 603,-852.25 599.5,-862.25 606.5,-862.25"/>
</g>
<!-- 139983414819760 -->
<g id="node41" class="node">
<title>139983414819760</title>
<polygon fill="white" stroke="black" points="212.5,-852 125.5,-852 125.5,-814 212.5,-814 212.5,-852"/>
<text text-anchor="middle" x="169" y="-836.8" font-family="Times,serif" font-size="14.00">Slice()</text>
<text text-anchor="middle" x="169" y="-821.8" font-family="Times,serif" font-size="14.00">t=0.11ms</text>
</g>
<!-- 139983398109872&#45;&gt;139983414819760 -->
<g id="edge47" class="edge">
<title>139983398109872&#45;&gt;139983414819760</title>
<path fill="none" stroke="black" d="M535.75,-887.94C535.75,-863.16 535.75,-823 535.75,-823 535.75,-823 222.51,-823 222.51,-823"/>
<polygon fill="black" stroke="black" points="222.51,-819.5 212.51,-823 222.51,-826.5 222.51,-819.5"/>
</g>
<!-- 139983416368672 -->
<g id="node36" class="node">
<title>139983416368672</title>
<polygon fill="white" stroke="black" points="493.5,-926 290.5,-926 290.5,-888 493.5,-888 493.5,-926"/>
<text text-anchor="middle" x="392" y="-910.8" font-family="Times,serif" font-size="14.00">Constant(constant=None)</text>
<text text-anchor="middle" x="392" y="-895.8" font-family="Times,serif" font-size="14.00">t=0.00ms</text>
</g>
<!-- 139983416368672&#45;&gt;139983398110640 -->
<g id="edge38" class="edge">
<title>139983416368672&#45;&gt;139983398110640</title>
<path fill="none" stroke="black" d="M425.83,-887.94C425.83,-866.02 425.83,-833 425.83,-833 425.83,-833 549.21,-833 549.21,-833"/>
<polygon fill="black" stroke="black" points="549.21,-836.5 559.21,-833 549.21,-829.5 549.21,-836.5"/>
</g>
<!-- 139983416368672&#45;&gt;139983414819760 -->
<g id="edge48" class="edge">
<title>139983416368672&#45;&gt;139983414819760</title>
<path fill="none" stroke="black" d="M358.17,-887.85C358.17,-868.68 358.17,-842 358.17,-842 358.17,-842 222.87,-842 222.87,-842"/>
<polygon fill="black" stroke="black" points="222.87,-838.5 212.87,-842 222.87,-845.5 222.87,-838.5"/>
</g>
<!-- 139983398110400 -->
<g id="node37" class="node">
<title>139983398110400</title>
<polygon fill="yellow" stroke="black" points="1265,-1000 527,-1000 527,-962 1265,-962 1265,-1000"/>
<text text-anchor="middle" x="896" y="-984.8" font-family="Times,serif" font-size="14.00">Monitor(name=hamming, monitor_client=&lt;airpixel.client.MonitorClient object at 0x7f506dcdfc70&gt;)</text>
<text text-anchor="middle" x="896" y="-969.8" font-family="Times,serif" font-size="14.00">t=0.88ms</text>
</g>
<!-- 139983398110400&#45;&gt;139983398110496 -->
<g id="edge39" class="edge">
<title>139983398110400&#45;&gt;139983398110496</title>
<path fill="none" stroke="black" d="M827.83,-961.94C827.83,-961.94 827.83,-936.25 827.83,-936.25"/>
<polygon fill="black" stroke="black" points="831.33,-936.25 827.83,-926.25 824.33,-936.25 831.33,-936.25"/>
</g>
<!-- 139983414819328 -->
<g id="node38" class="node">
<title>139983414819328</title>
<polygon fill="white" stroke="black" points="508.5,-1000 155.5,-1000 155.5,-962 508.5,-962 508.5,-1000"/>
<text text-anchor="middle" x="332" y="-984.8" font-family="Times,serif" font-size="14.00">Constant(constant=2.2675736961451248e&#45;05)</text>
<text text-anchor="middle" x="332" y="-969.8" font-family="Times,serif" font-size="14.00">t=0.00ms</text>
</g>
<!-- 139983414819328&#45;&gt;139983398110496 -->
<g id="edge40" class="edge">
<title>139983414819328&#45;&gt;139983398110496</title>
<path fill="none" stroke="black" d="M501,-961.63C501,-952.68 501,-944 501,-944 501,-944 766.17,-944 766.17,-944 766.17,-944 766.17,-936.37 766.17,-936.37"/>
<polygon fill="black" stroke="black" points="769.67,-936.37 766.17,-926.37 762.67,-936.37 769.67,-936.37"/>
</g>
<!-- 139983414819328&#45;&gt;139983398110016 -->
<g id="edge50" class="edge">
<title>139983414819328&#45;&gt;139983398110016</title>
<path fill="none" stroke="black" d="M213.75,-961.94C213.75,-961.94 213.75,-936.25 213.75,-936.25"/>
<polygon fill="black" stroke="black" points="217.25,-936.25 213.75,-926.25 210.25,-936.25 217.25,-936.25"/>
</g>
<!-- 139983398110256&#45;&gt;139983398110400 -->
<g id="edge41" class="edge">
<title>139983398110256&#45;&gt;139983398110400</title>
<path fill="none" stroke="black" d="M896,-1035.94C896,-1035.94 896,-1010.25 896,-1010.25"/>
<polygon fill="black" stroke="black" points="899.5,-1010.25 896,-1000.25 892.5,-1010.25 899.5,-1010.25"/>
</g>
<!-- 139983416324784&#45;&gt;139983398110256 -->
<g id="edge43" class="edge">
<title>139983416324784&#45;&gt;139983398110256</title>
<path fill="none" stroke="black" d="M572,-1109.94C572,-1088.02 572,-1055 572,-1055 572,-1055 842.3,-1055 842.3,-1055"/>
<polygon fill="black" stroke="black" points="842.3,-1058.5 852.3,-1055 842.3,-1051.5 842.3,-1058.5"/>
</g>
<!-- 139983414819760&#45;&gt;139983398111216 -->
<g id="edge51" class="edge">
<title>139983414819760&#45;&gt;139983398111216</title>
<path fill="none" stroke="black" d="M125.44,-833C93.43,-833 55.5,-833 55.5,-833 55.5,-833 55.5,-640.31 55.5,-640.31"/>
<polygon fill="black" stroke="black" points="59,-640.31 55.5,-630.31 52,-640.31 59,-640.31"/>
</g>
<!-- 139983414819760&#45;&gt;139983398110832 -->
<g id="edge45" class="edge">
<title>139983414819760&#45;&gt;139983398110832</title>
<path fill="none" stroke="black" d="M169,-813.94C169,-813.94 169,-788.25 169,-788.25"/>
<polygon fill="black" stroke="black" points="172.5,-788.25 169,-778.25 165.5,-788.25 172.5,-788.25"/>
</g>
<!-- 139983398110016&#45;&gt;139983414819760 -->
<g id="edge46" class="edge">
<title>139983398110016&#45;&gt;139983414819760</title>
<path fill="none" stroke="black" d="M169,-887.94C169,-887.94 169,-862.25 169,-862.25"/>
<polygon fill="black" stroke="black" points="172.5,-862.25 169,-852.25 165.5,-862.25 172.5,-862.25"/>
</g>
</g>
</svg>
