<?xml version="1.0" encoding="UTF-8" standalone="no"?>
<!DOCTYPE svg PUBLIC "-//W3C//DTD SVG 1.1//EN"
 "http://www.w3.org/Graphics/SVG/1.1/DTD/svg11.dtd">
<!-- Generated by graphviz version 2.40.1 (20161225.0304)
 -->
<!-- Title: Computations Pages: 1 -->
<svg width="1563pt" height="712pt"
 viewBox="0.00 0.00 1563.00 712.00" xmlns="http://www.w3.org/2000/svg" xmlns:xlink="http://www.w3.org/1999/xlink">
<g id="graph0" class="graph" transform="scale(1 1) rotate(0) translate(4 708)">
<title>Computations</title>
<polygon fill="#ffffff" stroke="transparent" points="-4,4 -4,-708 1559,-708 1559,4 -4,4"/>
<!-- 140078047391216 -->
<g id="node1" class="node">
<title>140078047391216</title>
<polygon fill="#ffff00" stroke="#000000" points="1350.5,-38 1117.5,-38 1117.5,0 1350.5,0 1350.5,-38"/>
<text text-anchor="middle" x="1234" y="-22.8" font-family="Times,serif" font-size="14.00" fill="#000000">Star(ip_address=localhost, port=50000)</text>
<text text-anchor="middle" x="1234" y="-7.8" font-family="Times,serif" font-size="14.00" fill="#000000">t=3.59ms</text>
</g>
<!-- 140078047391024 -->
<g id="node2" class="node">
<title>140078047391024</title>
<polygon fill="#ffff00" stroke="#000000" points="1148.5,-112 1079.5,-112 1079.5,-74 1148.5,-74 1148.5,-112"/>
<text text-anchor="middle" x="1114" y="-96.8" font-family="Times,serif" font-size="14.00" fill="#000000">Roll()</text>
<text text-anchor="middle" x="1114" y="-81.8" font-family="Times,serif" font-size="14.00" fill="#000000">t=0.48ms</text>
</g>
<!-- 140078047391024&#45;&gt;140078047391216 -->
<g id="edge1" class="edge">
<title>140078047391024&#45;&gt;140078047391216</title>
<path fill="none" stroke="#000000" d="M1133,-73.9432C1133,-73.9432 1133,-48.2495 1133,-48.2495"/>
<polygon fill="#000000" stroke="#000000" points="1136.5001,-48.2494 1133,-38.2495 1129.5001,-48.2495 1136.5001,-48.2494"/>
</g>
<!-- 140078047388768 -->
<g id="node3" class="node">
<title>140078047388768</title>
<polygon fill="#ffffff" stroke="#000000" points="1301,-112 1167,-112 1167,-74 1301,-74 1301,-112"/>
<text text-anchor="middle" x="1234" y="-96.8" font-family="Times,serif" font-size="14.00" fill="#000000">Constant(constant=8)</text>
<text text-anchor="middle" x="1234" y="-81.8" font-family="Times,serif" font-size="14.00" fill="#000000">t=infms</text>
</g>
<!-- 140078047388768&#45;&gt;140078047391216 -->
<g id="edge2" class="edge">
<title>140078047388768&#45;&gt;140078047391216</title>
<path fill="none" stroke="#000000" d="M1234,-73.9432C1234,-73.9432 1234,-48.2495 1234,-48.2495"/>
<polygon fill="#000000" stroke="#000000" points="1237.5001,-48.2494 1234,-38.2495 1230.5001,-48.2495 1237.5001,-48.2494"/>
</g>
<!-- 140078047388480 -->
<g id="node4" class="node">
<title>140078047388480</title>
<polygon fill="#ffffff" stroke="#000000" points="1459,-112 1319,-112 1319,-74 1459,-74 1459,-112"/>
<text text-anchor="middle" x="1389" y="-96.8" font-family="Times,serif" font-size="14.00" fill="#000000">Constant(constant=36)</text>
<text text-anchor="middle" x="1389" y="-81.8" font-family="Times,serif" font-size="14.00" fill="#000000">t=infms</text>
</g>
<!-- 140078047388480&#45;&gt;140078047391216 -->
<g id="edge3" class="edge">
<title>140078047388480&#45;&gt;140078047391216</title>
<path fill="none" stroke="#000000" d="M1334.75,-73.9432C1334.75,-73.9432 1334.75,-48.2495 1334.75,-48.2495"/>
<polygon fill="#000000" stroke="#000000" points="1338.2501,-48.2494 1334.75,-38.2495 1331.2501,-48.2495 1338.2501,-48.2494"/>
</g>
<!-- 140078047390640 -->
<g id="node5" class="node">
<title>140078047390640</title>
<polygon fill="#ffff00" stroke="#000000" points="1087.5,-186 1018.5,-186 1018.5,-148 1087.5,-148 1087.5,-186"/>
<text text-anchor="middle" x="1053" y="-170.8" font-family="Times,serif" font-size="14.00" fill="#000000">Mirror()</text>
<text text-anchor="middle" x="1053" y="-155.8" font-family="Times,serif" font-size="14.00" fill="#000000">t=0.42ms</text>
</g>
<!-- 140078047390640&#45;&gt;140078047391024 -->
<g id="edge4" class="edge">
<title>140078047390640&#45;&gt;140078047391024</title>
<path fill="none" stroke="#000000" d="M1083.5,-147.9432C1083.5,-147.9432 1083.5,-122.2495 1083.5,-122.2495"/>
<polygon fill="#000000" stroke="#000000" points="1087.0001,-122.2494 1083.5,-112.2495 1080.0001,-122.2495 1087.0001,-122.2494"/>
</g>
<!-- 140078047390880 -->
<g id="node6" class="node">
<title>140078047390880</title>
<polygon fill="#ffffff" stroke="#000000" points="1246,-186 1106,-186 1106,-148 1246,-148 1246,-186"/>
<text text-anchor="middle" x="1176" y="-170.8" font-family="Times,serif" font-size="14.00" fill="#000000">Constant(constant=16)</text>
<text text-anchor="middle" x="1176" y="-155.8" font-family="Times,serif" font-size="14.00" fill="#000000">t=0.00ms</text>
</g>
<!-- 140078047390880&#45;&gt;140078047391024 -->
<g id="edge5" class="edge">
<title>140078047390880&#45;&gt;140078047391024</title>
<path fill="none" stroke="#000000" d="M1127.25,-147.9432C1127.25,-147.9432 1127.25,-122.2495 1127.25,-122.2495"/>
<polygon fill="#000000" stroke="#000000" points="1130.7501,-122.2494 1127.25,-112.2495 1123.7501,-122.2495 1130.7501,-122.2494"/>
</g>
<!-- 140078047390304 -->
<g id="node7" class="node">
<title>140078047390304</title>
<polygon fill="#ffff00" stroke="#000000" points="1039,-260 907,-260 907,-222 1039,-222 1039,-260"/>
<text text-anchor="middle" x="973" y="-244.8" font-family="Times,serif" font-size="14.00" fill="#000000">VolumeNormalizer()</text>
<text text-anchor="middle" x="973" y="-229.8" font-family="Times,serif" font-size="14.00" fill="#000000">t=0.20ms</text>
</g>
<!-- 140078047390304&#45;&gt;140078047390640 -->
<g id="edge6" class="edge">
<title>140078047390304&#45;&gt;140078047390640</title>
<path fill="none" stroke="#000000" d="M1028.75,-221.9432C1028.75,-221.9432 1028.75,-196.2495 1028.75,-196.2495"/>
<polygon fill="#000000" stroke="#000000" points="1032.2501,-196.2494 1028.75,-186.2495 1025.2501,-196.2495 1032.2501,-196.2494"/>
</g>
<!-- 140078047390352 -->
<g id="node8" class="node">
<title>140078047390352</title>
<polygon fill="#ffffff" stroke="#000000" points="1209,-260 1057,-260 1057,-222 1209,-222 1209,-260"/>
<text text-anchor="middle" x="1133" y="-244.8" font-family="Times,serif" font-size="14.00" fill="#000000">Constant(constant=True)</text>
<text text-anchor="middle" x="1133" y="-229.8" font-family="Times,serif" font-size="14.00" fill="#000000">t=0.00ms</text>
</g>
<!-- 140078047390352&#45;&gt;140078047390640 -->
<g id="edge7" class="edge">
<title>140078047390352&#45;&gt;140078047390640</title>
<path fill="none" stroke="#000000" d="M1072.25,-221.9432C1072.25,-221.9432 1072.25,-196.2495 1072.25,-196.2495"/>
<polygon fill="#000000" stroke="#000000" points="1075.7501,-196.2494 1072.25,-186.2495 1068.7501,-196.2495 1075.7501,-196.2494"/>
</g>
<!-- 140078047390208 -->
<g id="node9" class="node">
<title>140078047390208</title>
<polygon fill="#ffff00" stroke="#000000" points="967,-334 887,-334 887,-296 967,-296 967,-334"/>
<text text-anchor="middle" x="927" y="-318.8" font-family="Times,serif" font-size="14.00" fill="#000000">Resample()</text>
<text text-anchor="middle" x="927" y="-303.8" font-family="Times,serif" font-size="14.00" fill="#000000">t=0.33ms</text>
</g>
<!-- 140078047390208&#45;&gt;140078047390304 -->
<g id="edge8" class="edge">
<title>140078047390208&#45;&gt;140078047390304</title>
<path fill="none" stroke="#000000" d="M937,-295.9432C937,-295.9432 937,-270.2495 937,-270.2495"/>
<polygon fill="#000000" stroke="#000000" points="940.5001,-270.2494 937,-260.2495 933.5001,-270.2495 940.5001,-270.2494"/>
</g>
<!-- 140078047390256 -->
<g id="node10" class="node">
<title>140078047390256</title>
<polygon fill="#ffff00" stroke="#000000" points="1054.5,-334 985.5,-334 985.5,-296 1054.5,-296 1054.5,-334"/>
<text text-anchor="middle" x="1020" y="-318.8" font-family="Times,serif" font-size="14.00" fill="#000000">Time()</text>
<text text-anchor="middle" x="1020" y="-303.8" font-family="Times,serif" font-size="14.00" fill="#000000">t=0.00ms</text>
</g>
<!-- 140078047390256&#45;&gt;140078047390304 -->
<g id="edge9" class="edge">
<title>140078047390256&#45;&gt;140078047390304</title>
<path fill="none" stroke="#000000" d="M1012.25,-295.9432C1012.25,-295.9432 1012.25,-270.2495 1012.25,-270.2495"/>
<polygon fill="#000000" stroke="#000000" points="1015.7501,-270.2494 1012.25,-260.2495 1008.7501,-270.2495 1015.7501,-270.2494"/>
</g>
<!-- 140078047389056 -->
<g id="node11" class="node">
<title>140078047389056</title>
<polygon fill="#ffffff" stroke="#000000" points="961.5,-408 892.5,-408 892.5,-370 961.5,-370 961.5,-408"/>
<text text-anchor="middle" x="927" y="-392.8" font-family="Times,serif" font-size="14.00" fill="#000000">Log2()</text>
<text text-anchor="middle" x="927" y="-377.8" font-family="Times,serif" font-size="14.00" fill="#000000">t=0.00ms</text>
</g>
<!-- 140078047389056&#45;&gt;140078047390208 -->
<g id="edge10" class="edge">
<title>140078047389056&#45;&gt;140078047390208</title>
<path fill="none" stroke="#000000" d="M927,-369.9432C927,-369.9432 927,-344.2495 927,-344.2495"/>
<polygon fill="#000000" stroke="#000000" points="930.5001,-344.2494 927,-334.2495 923.5001,-344.2495 930.5001,-344.2494"/>
</g>
<!-- 140078047389920 -->
<g id="node12" class="node">
<title>140078047389920</title>
<polygon fill="#ffff00" stroke="#000000" points="871,-408 797,-408 797,-370 871,-370 871,-408"/>
<text text-anchor="middle" x="834" y="-392.8" font-family="Times,serif" font-size="14.00" fill="#000000">Multiply()</text>
<text text-anchor="middle" x="834" y="-377.8" font-family="Times,serif" font-size="14.00" fill="#000000">t=0.31ms</text>
</g>
<!-- 140078047389920&#45;&gt;140078047390208 -->
<g id="edge11" class="edge">
<title>140078047389920&#45;&gt;140078047390208</title>
<path fill="none" stroke="#000000" d="M834,-369.9432C834,-348.0175 834,-315 834,-315 834,-315 876.7497,-315 876.7497,-315"/>
<polygon fill="#000000" stroke="#000000" points="876.7498,-318.5001 886.7497,-315 876.7497,-311.5001 876.7498,-318.5001"/>
</g>
<!-- 140078047390064 -->
<g id="node13" class="node">
<title>140078047390064</title>
<polygon fill="#ffffff" stroke="#000000" points="1213,-408 1139,-408 1139,-370 1213,-370 1213,-408"/>
<text text-anchor="middle" x="1176" y="-392.8" font-family="Times,serif" font-size="14.00" fill="#000000">Linspace()</text>
<text text-anchor="middle" x="1176" y="-377.8" font-family="Times,serif" font-size="14.00" fill="#000000">t=0.00ms</text>
</g>
<!-- 140078047390064&#45;&gt;140078047390208 -->
<g id="edge12" class="edge">
<title>140078047390064&#45;&gt;140078047390208</title>
<path fill="none" stroke="#000000" d="M1138.8967,-389C1081.1305,-389 976.25,-389 976.25,-389 976.25,-389 976.25,-315 976.25,-315 976.25,-315 975.3467,-315 975.3467,-315"/>
<polygon fill="#000000" stroke="#000000" points="977.2168,-311.5001 967.2168,-315 977.2167,-318.5001 977.2168,-311.5001"/>
</g>
<!-- 140078047388192 -->
<g id="node14" class="node">
<title>140078047388192</title>
<polygon fill="#ffffff" stroke="#000000" points="1167,-482 955,-482 955,-444 1167,-444 1167,-482"/>
<text text-anchor="middle" x="1061" y="-466.8" font-family="Times,serif" font-size="14.00" fill="#000000">Constant(constant=6.02236781303)</text>
<text text-anchor="middle" x="1061" y="-451.8" font-family="Times,serif" font-size="14.00" fill="#000000">t=0.00ms</text>
</g>
<!-- 140078047388192&#45;&gt;140078047390064 -->
<g id="edge13" class="edge">
<title>140078047388192&#45;&gt;140078047390064</title>
<path fill="none" stroke="#000000" d="M1153,-443.9432C1153,-443.9432 1153,-418.2495 1153,-418.2495"/>
<polygon fill="#000000" stroke="#000000" points="1156.5001,-418.2494 1153,-408.2495 1149.5001,-418.2495 1156.5001,-418.2494"/>
</g>
<!-- 140078047388336 -->
<g id="node15" class="node">
<title>140078047388336</title>
<polygon fill="#ffffff" stroke="#000000" points="1397,-482 1185,-482 1185,-444 1397,-444 1397,-482"/>
<text text-anchor="middle" x="1291" y="-466.8" font-family="Times,serif" font-size="14.00" fill="#000000">Constant(constant=11.0313565963)</text>
<text text-anchor="middle" x="1291" y="-451.8" font-family="Times,serif" font-size="14.00" fill="#000000">t=0.00ms</text>
</g>
<!-- 140078047388336&#45;&gt;140078047390064 -->
<g id="edge14" class="edge">
<title>140078047388336&#45;&gt;140078047390064</title>
<path fill="none" stroke="#000000" d="M1199,-443.9432C1199,-443.9432 1199,-418.2495 1199,-418.2495"/>
<polygon fill="#000000" stroke="#000000" points="1202.5001,-418.2494 1199,-408.2495 1195.5001,-418.2495 1202.5001,-418.2494"/>
</g>
<!-- 140078047388624 -->
<g id="node16" class="node">
<title>140078047388624</title>
<polygon fill="#ffffff" stroke="#000000" points="1555,-482 1415,-482 1415,-444 1555,-444 1555,-482"/>
<text text-anchor="middle" x="1485" y="-466.8" font-family="Times,serif" font-size="14.00" fill="#000000">Constant(constant=18)</text>
<text text-anchor="middle" x="1485" y="-451.8" font-family="Times,serif" font-size="14.00" fill="#000000">t=0.00ms</text>
</g>
<!-- 140078047388624&#45;&gt;140078047390064 -->
<g id="edge15" class="edge">
<title>140078047388624&#45;&gt;140078047390064</title>
<path fill="none" stroke="#000000" d="M1437,-443.9432C1437,-422.0175 1437,-389 1437,-389 1437,-389 1223.1178,-389 1223.1178,-389"/>
<polygon fill="#000000" stroke="#000000" points="1223.1178,-385.5001 1213.1178,-389 1223.1177,-392.5001 1223.1178,-385.5001"/>
</g>
<!-- 140078047389200 -->
<g id="node17" class="node">
<title>140078047389200</title>
<polygon fill="#ffffff" stroke="#000000" points="899,-482 769,-482 769,-444 899,-444 899,-482"/>
<text text-anchor="middle" x="834" y="-466.8" font-family="Times,serif" font-size="14.00" fill="#000000">AWeightingVector()</text>
<text text-anchor="middle" x="834" y="-451.8" font-family="Times,serif" font-size="14.00" fill="#000000">t=0.00ms</text>
</g>
<!-- 140078047389200&#45;&gt;140078047389920 -->
<g id="edge16" class="edge">
<title>140078047389200&#45;&gt;140078047389920</title>
<path fill="none" stroke="#000000" d="M834,-443.9432C834,-443.9432 834,-418.2495 834,-418.2495"/>
<polygon fill="#000000" stroke="#000000" points="837.5001,-418.2494 834,-408.2495 830.5001,-418.2495 837.5001,-418.2494"/>
</g>
<!-- 140078047389776 -->
<g id="node18" class="node">
<title>140078047389776</title>
<polygon fill="#ffff00" stroke="#000000" points="751,-482 605,-482 605,-444 751,-444 751,-482"/>
<text text-anchor="middle" x="678" y="-466.8" font-family="Times,serif" font-size="14.00" fill="#000000">FastFourierTransform()</text>
<text text-anchor="middle" x="678" y="-451.8" font-family="Times,serif" font-size="14.00" fill="#000000">t=0.30ms</text>
</g>
<!-- 140078047389776&#45;&gt;140078047389920 -->
<g id="edge17" class="edge">
<title>140078047389776&#45;&gt;140078047389920</title>
<path fill="none" stroke="#000000" d="M678,-443.9432C678,-422.0175 678,-389 678,-389 678,-389 786.6341,-389 786.6341,-389"/>
<polygon fill="#000000" stroke="#000000" points="786.6341,-392.5001 796.6341,-389 786.6341,-385.5001 786.6341,-392.5001"/>
</g>
<!-- 140078047389632 -->
<g id="node19" class="node">
<title>140078047389632</title>
<polygon fill="#ffff00" stroke="#000000" points="685,-556 611,-556 611,-518 685,-518 685,-556"/>
<text text-anchor="middle" x="648" y="-540.8" font-family="Times,serif" font-size="14.00" fill="#000000">Multiply()</text>
<text text-anchor="middle" x="648" y="-525.8" font-family="Times,serif" font-size="14.00" fill="#000000">t=0.20ms</text>
</g>
<!-- 140078047389632&#45;&gt;140078047389776 -->
<g id="edge18" class="edge">
<title>140078047389632&#45;&gt;140078047389776</title>
<path fill="none" stroke="#000000" d="M648,-517.9432C648,-517.9432 648,-492.2495 648,-492.2495"/>
<polygon fill="#000000" stroke="#000000" points="651.5001,-492.2494 648,-482.2495 644.5001,-492.2495 651.5001,-492.2494"/>
</g>
<!-- 140078047388048 -->
<g id="node20" class="node">
<title>140078047388048</title>
<polygon fill="#ffffff" stroke="#000000" points="999.5,-630 730.5,-630 730.5,-592 999.5,-592 999.5,-630"/>
<text text-anchor="middle" x="865" y="-614.8" font-family="Times,serif" font-size="14.00" fill="#000000">Constant(constant=4.5351473922902495e&#45;05)</text>
<text text-anchor="middle" x="865" y="-599.8" font-family="Times,serif" font-size="14.00" fill="#000000">t=0.00ms</text>
</g>
<!-- 140078047388048&#45;&gt;140078047389776 -->
<g id="edge19" class="edge">
<title>140078047388048&#45;&gt;140078047389776</title>
<path fill="none" stroke="#000000" d="M740.75,-591.9546C740.75,-591.9546 740.75,-492.4423 740.75,-492.4423"/>
<polygon fill="#000000" stroke="#000000" points="744.2501,-492.4423 740.75,-482.4423 737.2501,-492.4423 744.2501,-492.4423"/>
</g>
<!-- 140078047388912 -->
<g id="node24" class="node">
<title>140078047388912</title>
<polygon fill="#ffffff" stroke="#000000" points="1001.5,-556 790.5,-556 790.5,-518 1001.5,-518 1001.5,-556"/>
<text text-anchor="middle" x="896" y="-540.8" font-family="Times,serif" font-size="14.00" fill="#000000">FastFourierTransformFrequencies()</text>
<text text-anchor="middle" x="896" y="-525.8" font-family="Times,serif" font-size="14.00" fill="#000000">t=0.04ms</text>
</g>
<!-- 140078047388048&#45;&gt;140078047388912 -->
<g id="edge26" class="edge">
<title>140078047388048&#45;&gt;140078047388912</title>
<path fill="none" stroke="#000000" d="M895,-591.9432C895,-591.9432 895,-566.2495 895,-566.2495"/>
<polygon fill="#000000" stroke="#000000" points="898.5001,-566.2494 895,-556.2495 891.5001,-566.2495 898.5001,-566.2494"/>
</g>
<!-- 140078047389344 -->
<g id="node21" class="node">
<title>140078047389344</title>
<polygon fill="#ffff00" stroke="#000000" points="566,-630 0,-630 0,-592 566,-592 566,-630"/>
<text text-anchor="middle" x="283" y="-614.8" font-family="Times,serif" font-size="14.00" fill="#000000">AudioSource(audio_input=&lt;AudioInput(audio&#45;capture&#45;thread, started daemon 140077997610752)&gt;)</text>
<text text-anchor="middle" x="283" y="-599.8" font-family="Times,serif" font-size="14.00" fill="#000000">t=0.19ms</text>
</g>
<!-- 140078047389344&#45;&gt;140078047389632 -->
<g id="edge20" class="edge">
<title>140078047389344&#45;&gt;140078047389632</title>
<path fill="none" stroke="#000000" d="M283,-591.9432C283,-570.0175 283,-537 283,-537 283,-537 600.9932,-537 600.9932,-537"/>
<polygon fill="#000000" stroke="#000000" points="600.9932,-540.5001 610.9932,-537 600.9932,-533.5001 600.9932,-540.5001"/>
</g>
<!-- 140078047389488 -->
<g id="node22" class="node">
<title>140078047389488</title>
<polygon fill="#ffffff" stroke="#000000" points="712,-630 584,-630 584,-592 712,-592 712,-630"/>
<text text-anchor="middle" x="648" y="-614.8" font-family="Times,serif" font-size="14.00" fill="#000000">HammingWindow()</text>
<text text-anchor="middle" x="648" y="-599.8" font-family="Times,serif" font-size="14.00" fill="#000000">t=0.00ms</text>
</g>
<!-- 140078047389488&#45;&gt;140078047389632 -->
<g id="edge21" class="edge">
<title>140078047389488&#45;&gt;140078047389632</title>
<path fill="none" stroke="#000000" d="M648,-591.9432C648,-591.9432 648,-566.2495 648,-566.2495"/>
<polygon fill="#000000" stroke="#000000" points="651.5001,-566.2494 648,-556.2495 644.5001,-566.2495 651.5001,-566.2494"/>
</g>
<!-- 140078047387808 -->
<g id="node23" class="node">
<title>140078047387808</title>
<polygon fill="#ffffff" stroke="#000000" points="725,-704 571,-704 571,-666 725,-666 725,-704"/>
<text text-anchor="middle" x="648" y="-688.8" font-family="Times,serif" font-size="14.00" fill="#000000">Constant(constant=1102)</text>
<text text-anchor="middle" x="648" y="-673.8" font-family="Times,serif" font-size="14.00" fill="#000000">t=0.00ms</text>
</g>
<!-- 140078047387808&#45;&gt;140078047389344 -->
<g id="edge23" class="edge">
<title>140078047387808&#45;&gt;140078047389344</title>
<path fill="none" stroke="#000000" d="M577.5,-665.9432C577.5,-644.0175 577.5,-611 577.5,-611 577.5,-611 576.3149,-611 576.3149,-611"/>
<polygon fill="#000000" stroke="#000000" points="576.3149,-607.5001 566.3149,-611 576.3148,-614.5001 576.3149,-607.5001"/>
</g>
<!-- 140078047387808&#45;&gt;140078047389488 -->
<g id="edge22" class="edge">
<title>140078047387808&#45;&gt;140078047389488</title>
<path fill="none" stroke="#000000" d="M648,-665.9432C648,-665.9432 648,-640.2495 648,-640.2495"/>
<polygon fill="#000000" stroke="#000000" points="651.5001,-640.2494 648,-630.2495 644.5001,-640.2495 651.5001,-640.2494"/>
</g>
<!-- 140078047387808&#45;&gt;140078047388912 -->
<g id="edge25" class="edge">
<title>140078047387808&#45;&gt;140078047388912</title>
<path fill="none" stroke="#000000" d="M718.5,-665.9546C718.5,-625.9821 718.5,-537 718.5,-537 718.5,-537 780.4402,-537 780.4402,-537"/>
<polygon fill="#000000" stroke="#000000" points="780.4402,-540.5001 790.4402,-537 780.4401,-533.5001 780.4402,-540.5001"/>
</g>
<!-- 140078047388912&#45;&gt;140078047389056 -->
<g id="edge27" class="edge">
<title>140078047388912&#45;&gt;140078047389056</title>
<path fill="none" stroke="#000000" d="M927,-517.9546C927,-517.9546 927,-418.4423 927,-418.4423"/>
<polygon fill="#000000" stroke="#000000" points="930.5001,-418.4423 927,-408.4423 923.5001,-418.4423 930.5001,-418.4423"/>
</g>
<!-- 140078047388912&#45;&gt;140078047389200 -->
<g id="edge24" class="edge">
<title>140078047388912&#45;&gt;140078047389200</title>
<path fill="none" stroke="#000000" d="M844.75,-517.9432C844.75,-517.9432 844.75,-492.2495 844.75,-492.2495"/>
<polygon fill="#000000" stroke="#000000" points="848.2501,-492.2494 844.75,-482.2495 841.2501,-492.2495 848.2501,-492.2494"/>
</g>
</g>
</svg>
