<?xml version="1.0" encoding="UTF-8" standalone="no"?>
<!DOCTYPE svg PUBLIC "-//W3C//DTD SVG 1.1//EN"
 "http://www.w3.org/Graphics/SVG/1.1/DTD/svg11.dtd">
<!-- Generated by graphviz version 2.40.1 (20161225.0304)
 -->
<!-- Title: Computations Pages: 1 -->
<svg width="1623pt" height="1082pt"
 viewBox="0.00 0.00 1622.50 1082.00" xmlns="http://www.w3.org/2000/svg" xmlns:xlink="http://www.w3.org/1999/xlink">
<g id="graph0" class="graph" transform="scale(1 1) rotate(0) translate(4 1078)">
<title>Computations</title>
<polygon fill="#ffffff" stroke="transparent" points="-4,4 -4,-1078 1618.5,-1078 1618.5,4 -4,4"/>
<!-- 139928813635664 -->
<g id="node1" class="node">
<title>139928813635664</title>
<polygon fill="#ffff00" stroke="#000000" points="1506,-38 1273,-38 1273,0 1506,0 1506,-38"/>
<text text-anchor="middle" x="1389.5" y="-22.8" font-family="Times,serif" font-size="14.00" fill="#000000">Star(ip_address=localhost, port=50000)</text>
<text text-anchor="middle" x="1389.5" y="-7.8" font-family="Times,serif" font-size="14.00" fill="#000000">t=6.16ms</text>
</g>
<!-- 139928813635472 -->
<g id="node2" class="node">
<title>139928813635472</title>
<polygon fill="#ffff00" stroke="#000000" points="1304,-112 1235,-112 1235,-74 1304,-74 1304,-112"/>
<text text-anchor="middle" x="1269.5" y="-96.8" font-family="Times,serif" font-size="14.00" fill="#000000">Roll()</text>
<text text-anchor="middle" x="1269.5" y="-81.8" font-family="Times,serif" font-size="14.00" fill="#000000">t=2.30ms</text>
</g>
<!-- 139928813635472&#45;&gt;139928813635664 -->
<g id="edge1" class="edge">
<title>139928813635472&#45;&gt;139928813635664</title>
<path fill="none" stroke="#000000" d="M1288.5,-73.9432C1288.5,-73.9432 1288.5,-48.2495 1288.5,-48.2495"/>
<polygon fill="#000000" stroke="#000000" points="1292.0001,-48.2494 1288.5,-38.2495 1285.0001,-48.2495 1292.0001,-48.2494"/>
</g>
<!-- 139928813420208 -->
<g id="node3" class="node">
<title>139928813420208</title>
<polygon fill="#ffffff" stroke="#000000" points="1456.5,-112 1322.5,-112 1322.5,-74 1456.5,-74 1456.5,-112"/>
<text text-anchor="middle" x="1389.5" y="-96.8" font-family="Times,serif" font-size="14.00" fill="#000000">Constant(constant=8)</text>
<text text-anchor="middle" x="1389.5" y="-81.8" font-family="Times,serif" font-size="14.00" fill="#000000">t=infms</text>
</g>
<!-- 139928813420208&#45;&gt;139928813635664 -->
<g id="edge2" class="edge">
<title>139928813420208&#45;&gt;139928813635664</title>
<path fill="none" stroke="#000000" d="M1389.5,-73.9432C1389.5,-73.9432 1389.5,-48.2495 1389.5,-48.2495"/>
<polygon fill="#000000" stroke="#000000" points="1393.0001,-48.2494 1389.5,-38.2495 1386.0001,-48.2495 1393.0001,-48.2494"/>
</g>
<!-- 139928813419920 -->
<g id="node4" class="node">
<title>139928813419920</title>
<polygon fill="#ffffff" stroke="#000000" points="1614.5,-112 1474.5,-112 1474.5,-74 1614.5,-74 1614.5,-112"/>
<text text-anchor="middle" x="1544.5" y="-96.8" font-family="Times,serif" font-size="14.00" fill="#000000">Constant(constant=36)</text>
<text text-anchor="middle" x="1544.5" y="-81.8" font-family="Times,serif" font-size="14.00" fill="#000000">t=infms</text>
</g>
<!-- 139928813419920&#45;&gt;139928813635664 -->
<g id="edge3" class="edge">
<title>139928813419920&#45;&gt;139928813635664</title>
<path fill="none" stroke="#000000" d="M1490.25,-73.9432C1490.25,-73.9432 1490.25,-48.2495 1490.25,-48.2495"/>
<polygon fill="#000000" stroke="#000000" points="1493.7501,-48.2494 1490.25,-38.2495 1486.7501,-48.2495 1493.7501,-48.2494"/>
</g>
<!-- 139928813418816 -->
<g id="node5" class="node">
<title>139928813418816</title>
<polygon fill="#ffff00" stroke="#000000" points="1243,-186 1174,-186 1174,-148 1243,-148 1243,-186"/>
<text text-anchor="middle" x="1208.5" y="-170.8" font-family="Times,serif" font-size="14.00" fill="#000000">Mirror()</text>
<text text-anchor="middle" x="1208.5" y="-155.8" font-family="Times,serif" font-size="14.00" fill="#000000">t=2.22ms</text>
</g>
<!-- 139928813418816&#45;&gt;139928813635472 -->
<g id="edge4" class="edge">
<title>139928813418816&#45;&gt;139928813635472</title>
<path fill="none" stroke="#000000" d="M1239,-147.9432C1239,-147.9432 1239,-122.2495 1239,-122.2495"/>
<polygon fill="#000000" stroke="#000000" points="1242.5001,-122.2494 1239,-112.2495 1235.5001,-122.2495 1242.5001,-122.2494"/>
</g>
<!-- 139928813635328 -->
<g id="node6" class="node">
<title>139928813635328</title>
<polygon fill="#ffffff" stroke="#000000" points="1401.5,-186 1261.5,-186 1261.5,-148 1401.5,-148 1401.5,-186"/>
<text text-anchor="middle" x="1331.5" y="-170.8" font-family="Times,serif" font-size="14.00" fill="#000000">Constant(constant=16)</text>
<text text-anchor="middle" x="1331.5" y="-155.8" font-family="Times,serif" font-size="14.00" fill="#000000">t=0.00ms</text>
</g>
<!-- 139928813635328&#45;&gt;139928813635472 -->
<g id="edge5" class="edge">
<title>139928813635328&#45;&gt;139928813635472</title>
<path fill="none" stroke="#000000" d="M1282.75,-147.9432C1282.75,-147.9432 1282.75,-122.2495 1282.75,-122.2495"/>
<polygon fill="#000000" stroke="#000000" points="1286.2501,-122.2494 1282.75,-112.2495 1279.2501,-122.2495 1286.2501,-122.2494"/>
</g>
<!-- 139928813418336 -->
<g id="node7" class="node">
<title>139928813418336</title>
<polygon fill="#ffff00" stroke="#000000" points="1194.5,-260 1062.5,-260 1062.5,-222 1194.5,-222 1194.5,-260"/>
<text text-anchor="middle" x="1128.5" y="-244.8" font-family="Times,serif" font-size="14.00" fill="#000000">VolumeNormalizer()</text>
<text text-anchor="middle" x="1128.5" y="-229.8" font-family="Times,serif" font-size="14.00" fill="#000000">t=1.10ms</text>
</g>
<!-- 139928813418336&#45;&gt;139928813418816 -->
<g id="edge6" class="edge">
<title>139928813418336&#45;&gt;139928813418816</title>
<path fill="none" stroke="#000000" d="M1184.25,-221.9432C1184.25,-221.9432 1184.25,-196.2495 1184.25,-196.2495"/>
<polygon fill="#000000" stroke="#000000" points="1187.7501,-196.2494 1184.25,-186.2495 1180.7501,-196.2495 1187.7501,-196.2494"/>
</g>
<!-- 139928813635088 -->
<g id="node8" class="node">
<title>139928813635088</title>
<polygon fill="#ffffff" stroke="#000000" points="1364.5,-260 1212.5,-260 1212.5,-222 1364.5,-222 1364.5,-260"/>
<text text-anchor="middle" x="1288.5" y="-244.8" font-family="Times,serif" font-size="14.00" fill="#000000">Constant(constant=True)</text>
<text text-anchor="middle" x="1288.5" y="-229.8" font-family="Times,serif" font-size="14.00" fill="#000000">t=0.00ms</text>
</g>
<!-- 139928813635088&#45;&gt;139928813418816 -->
<g id="edge7" class="edge">
<title>139928813635088&#45;&gt;139928813418816</title>
<path fill="none" stroke="#000000" d="M1227.75,-221.9432C1227.75,-221.9432 1227.75,-196.2495 1227.75,-196.2495"/>
<polygon fill="#000000" stroke="#000000" points="1231.2501,-196.2494 1227.75,-186.2495 1224.2501,-196.2495 1231.2501,-196.2494"/>
</g>
<!-- 139928813418192 -->
<g id="node9" class="node">
<title>139928813418192</title>
<polygon fill="#ffff00" stroke="#000000" points="1248,-334 667,-334 667,-296 1248,-296 1248,-334"/>
<text text-anchor="middle" x="957.5" y="-318.8" font-family="Times,serif" font-size="14.00" fill="#000000">Monitor(name=resampled, monitor_client=&lt;airpixel.client.MonitorClient object at 0x7f43b737b580&gt;)</text>
<text text-anchor="middle" x="957.5" y="-303.8" font-family="Times,serif" font-size="14.00" fill="#000000">t=2.10ms</text>
</g>
<!-- 139928813418192&#45;&gt;139928813418336 -->
<g id="edge8" class="edge">
<title>139928813418192&#45;&gt;139928813418336</title>
<path fill="none" stroke="#000000" d="M1106.5,-295.9432C1106.5,-295.9432 1106.5,-270.2495 1106.5,-270.2495"/>
<polygon fill="#000000" stroke="#000000" points="1110.0001,-270.2494 1106.5,-260.2495 1103.0001,-270.2495 1110.0001,-270.2494"/>
</g>
<!-- 139928813418288 -->
<g id="node10" class="node">
<title>139928813418288</title>
<polygon fill="#ffff00" stroke="#000000" points="1335,-334 1266,-334 1266,-296 1335,-296 1335,-334"/>
<text text-anchor="middle" x="1300.5" y="-318.8" font-family="Times,serif" font-size="14.00" fill="#000000">Time()</text>
<text text-anchor="middle" x="1300.5" y="-303.8" font-family="Times,serif" font-size="14.00" fill="#000000">t=0.01ms</text>
</g>
<!-- 139928813418288&#45;&gt;139928813418336 -->
<g id="edge9" class="edge">
<title>139928813418288&#45;&gt;139928813418336</title>
<path fill="none" stroke="#000000" d="M1300.5,-295.6331C1300.5,-286.6809 1300.5,-278 1300.5,-278 1300.5,-278 1150.5,-278 1150.5,-278 1150.5,-278 1150.5,-270.3669 1150.5,-270.3669"/>
<polygon fill="#000000" stroke="#000000" points="1154.0001,-270.3669 1150.5,-260.3669 1147.0001,-270.3669 1154.0001,-270.3669"/>
</g>
<!-- 139928813418624 -->
<g id="node11" class="node">
<title>139928813418624</title>
<polygon fill="#ffff00" stroke="#000000" points="997.5,-408 917.5,-408 917.5,-370 997.5,-370 997.5,-408"/>
<text text-anchor="middle" x="957.5" y="-392.8" font-family="Times,serif" font-size="14.00" fill="#000000">Resample()</text>
<text text-anchor="middle" x="957.5" y="-377.8" font-family="Times,serif" font-size="14.00" fill="#000000">t=0.90ms</text>
</g>
<!-- 139928813418624&#45;&gt;139928813418192 -->
<g id="edge10" class="edge">
<title>139928813418624&#45;&gt;139928813418192</title>
<path fill="none" stroke="#000000" d="M957.5,-369.9432C957.5,-369.9432 957.5,-344.2495 957.5,-344.2495"/>
<polygon fill="#000000" stroke="#000000" points="961.0001,-344.2494 957.5,-334.2495 954.0001,-344.2495 961.0001,-344.2494"/>
</g>
<!-- 139928813634464 -->
<g id="node12" class="node">
<title>139928813634464</title>
<polygon fill="#ffffff" stroke="#000000" points="1230.5,-482 684.5,-482 684.5,-444 1230.5,-444 1230.5,-482"/>
<text text-anchor="middle" x="957.5" y="-466.8" font-family="Times,serif" font-size="14.00" fill="#000000">Monitor(name=freq, monitor_client=&lt;airpixel.client.MonitorClient object at 0x7f43b737b580&gt;)</text>
<text text-anchor="middle" x="957.5" y="-451.8" font-family="Times,serif" font-size="14.00" fill="#000000">t=0.00ms</text>
</g>
<!-- 139928813634464&#45;&gt;139928813418624 -->
<g id="edge11" class="edge">
<title>139928813634464&#45;&gt;139928813418624</title>
<path fill="none" stroke="#000000" d="M957.5,-443.9432C957.5,-443.9432 957.5,-418.2495 957.5,-418.2495"/>
<polygon fill="#000000" stroke="#000000" points="961.0001,-418.2494 957.5,-408.2495 954.0001,-418.2495 961.0001,-418.2494"/>
</g>
<!-- 139928813418768 -->
<g id="node13" class="node">
<title>139928813418768</title>
<polygon fill="#ffff00" stroke="#000000" points="666,-482 79,-482 79,-444 666,-444 666,-482"/>
<text text-anchor="middle" x="372.5" y="-466.8" font-family="Times,serif" font-size="14.00" fill="#000000">Monitor(name=a_weighted, monitor_client=&lt;airpixel.client.MonitorClient object at 0x7f43b737b580&gt;)</text>
<text text-anchor="middle" x="372.5" y="-451.8" font-family="Times,serif" font-size="14.00" fill="#000000">t=1.76ms</text>
</g>
<!-- 139928813418768&#45;&gt;139928813418624 -->
<g id="edge12" class="edge">
<title>139928813418768&#45;&gt;139928813418624</title>
<path fill="none" stroke="#000000" d="M372.5,-443.9432C372.5,-422.0175 372.5,-389 372.5,-389 372.5,-389 907.2906,-389 907.2906,-389"/>
<polygon fill="#000000" stroke="#000000" points="907.2906,-392.5001 917.2906,-389 907.2905,-385.5001 907.2906,-392.5001"/>
</g>
<!-- 139928813418240 -->
<g id="node14" class="node">
<title>139928813418240</title>
<polygon fill="#ffffff" stroke="#000000" points="1322.5,-482 1248.5,-482 1248.5,-444 1322.5,-444 1322.5,-482"/>
<text text-anchor="middle" x="1285.5" y="-466.8" font-family="Times,serif" font-size="14.00" fill="#000000">Linspace()</text>
<text text-anchor="middle" x="1285.5" y="-451.8" font-family="Times,serif" font-size="14.00" fill="#000000">t=0.00ms</text>
</g>
<!-- 139928813418240&#45;&gt;139928813418624 -->
<g id="edge13" class="edge">
<title>139928813418240&#45;&gt;139928813418624</title>
<path fill="none" stroke="#000000" d="M1257.25,-443.9432C1257.25,-422.0175 1257.25,-389 1257.25,-389 1257.25,-389 1007.6146,-389 1007.6146,-389"/>
<polygon fill="#000000" stroke="#000000" points="1007.6146,-385.5001 997.6146,-389 1007.6146,-392.5001 1007.6146,-385.5001"/>
</g>
<!-- 139928813419632 -->
<g id="node15" class="node">
<title>139928813419632</title>
<polygon fill="#ffffff" stroke="#000000" points="1161.5,-556 949.5,-556 949.5,-518 1161.5,-518 1161.5,-556"/>
<text text-anchor="middle" x="1055.5" y="-540.8" font-family="Times,serif" font-size="14.00" fill="#000000">Constant(constant=6.02236781303)</text>
<text text-anchor="middle" x="1055.5" y="-525.8" font-family="Times,serif" font-size="14.00" fill="#000000">t=0.00ms</text>
</g>
<!-- 139928813419632&#45;&gt;139928813418240 -->
<g id="edge14" class="edge">
<title>139928813419632&#45;&gt;139928813418240</title>
<path fill="none" stroke="#000000" d="M1055.5,-517.6331C1055.5,-508.6809 1055.5,-500 1055.5,-500 1055.5,-500 1273.1667,-500 1273.1667,-500 1273.1667,-500 1273.1667,-492.3669 1273.1667,-492.3669"/>
<polygon fill="#000000" stroke="#000000" points="1276.6668,-492.3669 1273.1667,-482.3669 1269.6668,-492.3669 1276.6668,-492.3669"/>
</g>
<!-- 139928813419776 -->
<g id="node16" class="node">
<title>139928813419776</title>
<polygon fill="#ffffff" stroke="#000000" points="1391.5,-556 1179.5,-556 1179.5,-518 1391.5,-518 1391.5,-556"/>
<text text-anchor="middle" x="1285.5" y="-540.8" font-family="Times,serif" font-size="14.00" fill="#000000">Constant(constant=11.0313565963)</text>
<text text-anchor="middle" x="1285.5" y="-525.8" font-family="Times,serif" font-size="14.00" fill="#000000">t=0.00ms</text>
</g>
<!-- 139928813419776&#45;&gt;139928813418240 -->
<g id="edge15" class="edge">
<title>139928813419776&#45;&gt;139928813418240</title>
<path fill="none" stroke="#000000" d="M1297.8333,-517.9432C1297.8333,-517.9432 1297.8333,-492.2495 1297.8333,-492.2495"/>
<polygon fill="#000000" stroke="#000000" points="1301.3334,-492.2494 1297.8333,-482.2495 1294.3334,-492.2495 1301.3334,-492.2494"/>
</g>
<!-- 139928813420064 -->
<g id="node17" class="node">
<title>139928813420064</title>
<polygon fill="#ffffff" stroke="#000000" points="1549.5,-556 1409.5,-556 1409.5,-518 1549.5,-518 1549.5,-556"/>
<text text-anchor="middle" x="1479.5" y="-540.8" font-family="Times,serif" font-size="14.00" fill="#000000">Constant(constant=18)</text>
<text text-anchor="middle" x="1479.5" y="-525.8" font-family="Times,serif" font-size="14.00" fill="#000000">t=0.00ms</text>
</g>
<!-- 139928813420064&#45;&gt;139928813418240 -->
<g id="edge16" class="edge">
<title>139928813420064&#45;&gt;139928813418240</title>
<path fill="none" stroke="#000000" d="M1433,-517.9432C1433,-496.0175 1433,-463 1433,-463 1433,-463 1332.7205,-463 1332.7205,-463"/>
<polygon fill="#000000" stroke="#000000" points="1332.7205,-459.5001 1322.7205,-463 1332.7204,-466.5001 1332.7205,-459.5001"/>
</g>
<!-- 139928813418096 -->
<g id="node18" class="node">
<title>139928813418096</title>
<polygon fill="#ffff00" stroke="#000000" points="448.5,-556 374.5,-556 374.5,-518 448.5,-518 448.5,-556"/>
<text text-anchor="middle" x="411.5" y="-540.8" font-family="Times,serif" font-size="14.00" fill="#000000">Multiply()</text>
<text text-anchor="middle" x="411.5" y="-525.8" font-family="Times,serif" font-size="14.00" fill="#000000">t=0.72ms</text>
</g>
<!-- 139928813418096&#45;&gt;139928813418768 -->
<g id="edge17" class="edge">
<title>139928813418096&#45;&gt;139928813418768</title>
<path fill="none" stroke="#000000" d="M411.5,-517.9432C411.5,-517.9432 411.5,-492.2495 411.5,-492.2495"/>
<polygon fill="#000000" stroke="#000000" points="415.0001,-492.2494 411.5,-482.2495 408.0001,-492.2495 415.0001,-492.2494"/>
</g>
<!-- 139928813634560 -->
<g id="node19" class="node">
<title>139928813634560</title>
<polygon fill="#ffffff" stroke="#000000" points="833.5,-630 703.5,-630 703.5,-592 833.5,-592 833.5,-630"/>
<text text-anchor="middle" x="768.5" y="-614.8" font-family="Times,serif" font-size="14.00" fill="#000000">AWeightingVector()</text>
<text text-anchor="middle" x="768.5" y="-599.8" font-family="Times,serif" font-size="14.00" fill="#000000">t=0.00ms</text>
</g>
<!-- 139928813634560&#45;&gt;139928813418096 -->
<g id="edge18" class="edge">
<title>139928813634560&#45;&gt;139928813418096</title>
<path fill="none" stroke="#000000" d="M768.5,-591.9432C768.5,-570.0175 768.5,-537 768.5,-537 768.5,-537 458.695,-537 458.695,-537"/>
<polygon fill="#000000" stroke="#000000" points="458.695,-533.5001 448.695,-537 458.6949,-540.5001 458.695,-533.5001"/>
</g>
<!-- 139928813634848 -->
<g id="node20" class="node">
<title>139928813634848</title>
<polygon fill="#ffff00" stroke="#000000" points="680,-630 143,-630 143,-592 680,-592 680,-630"/>
<text text-anchor="middle" x="411.5" y="-614.8" font-family="Times,serif" font-size="14.00" fill="#000000">Monitor(name=fft, monitor_client=&lt;airpixel.client.MonitorClient object at 0x7f43b737b580&gt;)</text>
<text text-anchor="middle" x="411.5" y="-599.8" font-family="Times,serif" font-size="14.00" fill="#000000">t=1.43ms</text>
</g>
<!-- 139928813634848&#45;&gt;139928813418096 -->
<g id="edge19" class="edge">
<title>139928813634848&#45;&gt;139928813418096</title>
<path fill="none" stroke="#000000" d="M411.5,-591.9432C411.5,-591.9432 411.5,-566.2495 411.5,-566.2495"/>
<polygon fill="#000000" stroke="#000000" points="415.0001,-566.2494 411.5,-556.2495 408.0001,-566.2495 415.0001,-566.2494"/>
</g>
<!-- 139928813634704 -->
<g id="node21" class="node">
<title>139928813634704</title>
<polygon fill="#ffff00" stroke="#000000" points="484.5,-704 338.5,-704 338.5,-666 484.5,-666 484.5,-704"/>
<text text-anchor="middle" x="411.5" y="-688.8" font-family="Times,serif" font-size="14.00" fill="#000000">FastFourierTransform()</text>
<text text-anchor="middle" x="411.5" y="-673.8" font-family="Times,serif" font-size="14.00" fill="#000000">t=0.55ms</text>
</g>
<!-- 139928813634704&#45;&gt;139928813634848 -->
<g id="edge20" class="edge">
<title>139928813634704&#45;&gt;139928813634848</title>
<path fill="none" stroke="#000000" d="M411.5,-665.9432C411.5,-665.9432 411.5,-640.2495 411.5,-640.2495"/>
<polygon fill="#000000" stroke="#000000" points="415.0001,-640.2494 411.5,-630.2495 408.0001,-640.2495 415.0001,-640.2494"/>
</g>
<!-- 139928813634080 -->
<g id="node22" class="node">
<title>139928813634080</title>
<polygon fill="#ffff00" stroke="#000000" points="577,-778 0,-778 0,-740 577,-740 577,-778"/>
<text text-anchor="middle" x="288.5" y="-762.8" font-family="Times,serif" font-size="14.00" fill="#000000">Monitor(name=hamming, monitor_client=&lt;airpixel.client.MonitorClient object at 0x7f43b737b580&gt;)</text>
<text text-anchor="middle" x="288.5" y="-747.8" font-family="Times,serif" font-size="14.00" fill="#000000">t=0.98ms</text>
</g>
<!-- 139928813634080&#45;&gt;139928813634704 -->
<g id="edge21" class="edge">
<title>139928813634080&#45;&gt;139928813634704</title>
<path fill="none" stroke="#000000" d="M411.5,-739.9432C411.5,-739.9432 411.5,-714.2495 411.5,-714.2495"/>
<polygon fill="#000000" stroke="#000000" points="415.0001,-714.2494 411.5,-704.2495 408.0001,-714.2495 415.0001,-714.2494"/>
</g>
<!-- 139928813419488 -->
<g id="node23" class="node">
<title>139928813419488</title>
<polygon fill="#ffffff" stroke="#000000" points="864,-778 595,-778 595,-740 864,-740 864,-778"/>
<text text-anchor="middle" x="729.5" y="-762.8" font-family="Times,serif" font-size="14.00" fill="#000000">Constant(constant=4.5351473922902495e&#45;05)</text>
<text text-anchor="middle" x="729.5" y="-747.8" font-family="Times,serif" font-size="14.00" fill="#000000">t=0.00ms</text>
</g>
<!-- 139928813419488&#45;&gt;139928813634704 -->
<g id="edge22" class="edge">
<title>139928813419488&#45;&gt;139928813634704</title>
<path fill="none" stroke="#000000" d="M637.5,-739.9432C637.5,-718.0175 637.5,-685 637.5,-685 637.5,-685 494.5636,-685 494.5636,-685"/>
<polygon fill="#000000" stroke="#000000" points="494.5637,-681.5001 484.5636,-685 494.5636,-688.5001 494.5637,-681.5001"/>
</g>
<!-- 139928813420352 -->
<g id="node29" class="node">
<title>139928813420352</title>
<polygon fill="#ffffff" stroke="#000000" points="916,-704 705,-704 705,-666 916,-666 916,-704"/>
<text text-anchor="middle" x="810.5" y="-688.8" font-family="Times,serif" font-size="14.00" fill="#000000">FastFourierTransformFrequencies()</text>
<text text-anchor="middle" x="810.5" y="-673.8" font-family="Times,serif" font-size="14.00" fill="#000000">t=0.03ms</text>
</g>
<!-- 139928813419488&#45;&gt;139928813420352 -->
<g id="edge31" class="edge">
<title>139928813419488&#45;&gt;139928813420352</title>
<path fill="none" stroke="#000000" d="M784.5,-739.9432C784.5,-739.9432 784.5,-714.2495 784.5,-714.2495"/>
<polygon fill="#000000" stroke="#000000" points="788.0001,-714.2494 784.5,-704.2495 781.0001,-714.2495 788.0001,-714.2494"/>
</g>
<!-- 139928813633936 -->
<g id="node24" class="node">
<title>139928813633936</title>
<polygon fill="#ffff00" stroke="#000000" points="325.5,-852 251.5,-852 251.5,-814 325.5,-814 325.5,-852"/>
<text text-anchor="middle" x="288.5" y="-836.8" font-family="Times,serif" font-size="14.00" fill="#000000">Multiply()</text>
<text text-anchor="middle" x="288.5" y="-821.8" font-family="Times,serif" font-size="14.00" fill="#000000">t=0.32ms</text>
</g>
<!-- 139928813633936&#45;&gt;139928813634080 -->
<g id="edge23" class="edge">
<title>139928813633936&#45;&gt;139928813634080</title>
<path fill="none" stroke="#000000" d="M288.5,-813.9432C288.5,-813.9432 288.5,-788.2495 288.5,-788.2495"/>
<polygon fill="#000000" stroke="#000000" points="292.0001,-788.2494 288.5,-778.2495 285.0001,-788.2495 292.0001,-788.2494"/>
</g>
<!-- 139928813633696 -->
<g id="node25" class="node">
<title>139928813633696</title>
<polygon fill="#ffff00" stroke="#000000" points="864.5,-926 292.5,-926 292.5,-888 864.5,-888 864.5,-926"/>
<text text-anchor="middle" x="578.5" y="-910.8" font-family="Times,serif" font-size="14.00" fill="#000000">Monitor(name=audio_in, monitor_client=&lt;airpixel.client.MonitorClient object at 0x7f43b737b580&gt;)</text>
<text text-anchor="middle" x="578.5" y="-895.8" font-family="Times,serif" font-size="14.00" fill="#000000">t=0.62ms</text>
</g>
<!-- 139928813633696&#45;&gt;139928813633936 -->
<g id="edge24" class="edge">
<title>139928813633696&#45;&gt;139928813633936</title>
<path fill="none" stroke="#000000" d="M309,-887.9432C309,-887.9432 309,-862.2495 309,-862.2495"/>
<polygon fill="#000000" stroke="#000000" points="312.5001,-862.2494 309,-852.2495 305.5001,-862.2495 312.5001,-862.2494"/>
</g>
<!-- 139928813633840 -->
<g id="node26" class="node">
<title>139928813633840</title>
<polygon fill="#ffffff" stroke="#000000" points="274.5,-926 146.5,-926 146.5,-888 274.5,-888 274.5,-926"/>
<text text-anchor="middle" x="210.5" y="-910.8" font-family="Times,serif" font-size="14.00" fill="#000000">HammingWindow()</text>
<text text-anchor="middle" x="210.5" y="-895.8" font-family="Times,serif" font-size="14.00" fill="#000000">t=0.00ms</text>
</g>
<!-- 139928813633840&#45;&gt;139928813633936 -->
<g id="edge25" class="edge">
<title>139928813633840&#45;&gt;139928813633936</title>
<path fill="none" stroke="#000000" d="M263,-887.9432C263,-887.9432 263,-862.2495 263,-862.2495"/>
<polygon fill="#000000" stroke="#000000" points="266.5001,-862.2494 263,-852.2495 259.5001,-862.2495 266.5001,-862.2494"/>
</g>
<!-- 139928813419296 -->
<g id="node27" class="node">
<title>139928813419296</title>
<polygon fill="#ffffff" stroke="#000000" points="655.5,-1074 501.5,-1074 501.5,-1036 655.5,-1036 655.5,-1074"/>
<text text-anchor="middle" x="578.5" y="-1058.8" font-family="Times,serif" font-size="14.00" fill="#000000">Constant(constant=1102)</text>
<text text-anchor="middle" x="578.5" y="-1043.8" font-family="Times,serif" font-size="14.00" fill="#000000">t=0.00ms</text>
</g>
<!-- 139928813419296&#45;&gt;139928813633840 -->
<g id="edge26" class="edge">
<title>139928813419296&#45;&gt;139928813633840</title>
<path fill="none" stroke="#000000" d="M501.3551,-1055C393.4457,-1055 210.5,-1055 210.5,-1055 210.5,-1055 210.5,-936.0454 210.5,-936.0454"/>
<polygon fill="#000000" stroke="#000000" points="214.0001,-936.0454 210.5,-926.0454 207.0001,-936.0455 214.0001,-936.0454"/>
</g>
<!-- 139928813420496 -->
<g id="node28" class="node">
<title>139928813420496</title>
<polygon fill="#ffff00" stroke="#000000" points="861.5,-1000 295.5,-1000 295.5,-962 861.5,-962 861.5,-1000"/>
<text text-anchor="middle" x="578.5" y="-984.8" font-family="Times,serif" font-size="14.00" fill="#000000">AudioSource(audio_input=&lt;AudioInput(audio&#45;capture&#45;thread, started daemon 139928686180096)&gt;)</text>
<text text-anchor="middle" x="578.5" y="-969.8" font-family="Times,serif" font-size="14.00" fill="#000000">t=0.12ms</text>
</g>
<!-- 139928813419296&#45;&gt;139928813420496 -->
<g id="edge28" class="edge">
<title>139928813419296&#45;&gt;139928813420496</title>
<path fill="none" stroke="#000000" d="M578.5,-1035.9432C578.5,-1035.9432 578.5,-1010.2495 578.5,-1010.2495"/>
<polygon fill="#000000" stroke="#000000" points="582.0001,-1010.2494 578.5,-1000.2495 575.0001,-1010.2495 582.0001,-1010.2494"/>
</g>
<!-- 139928813419296&#45;&gt;139928813420352 -->
<g id="edge30" class="edge">
<title>139928813419296&#45;&gt;139928813420352</title>
<path fill="none" stroke="#000000" d="M655.5618,-1055C747.8799,-1055 890.25,-1055 890.25,-1055 890.25,-1055 890.25,-714.1137 890.25,-714.1137"/>
<polygon fill="#000000" stroke="#000000" points="893.7501,-714.1136 890.25,-704.1137 886.7501,-714.1137 893.7501,-714.1136"/>
</g>
<!-- 139928813420496&#45;&gt;139928813633696 -->
<g id="edge27" class="edge">
<title>139928813420496&#45;&gt;139928813633696</title>
<path fill="none" stroke="#000000" d="M578.5,-961.9432C578.5,-961.9432 578.5,-936.2495 578.5,-936.2495"/>
<polygon fill="#000000" stroke="#000000" points="582.0001,-936.2494 578.5,-926.2495 575.0001,-936.2495 582.0001,-936.2494"/>
</g>
<!-- 139928813420352&#45;&gt;139928813634560 -->
<g id="edge29" class="edge">
<title>139928813420352&#45;&gt;139928813634560</title>
<path fill="none" stroke="#000000" d="M769.25,-665.9432C769.25,-665.9432 769.25,-640.2495 769.25,-640.2495"/>
<polygon fill="#000000" stroke="#000000" points="772.7501,-640.2494 769.25,-630.2495 765.7501,-640.2495 772.7501,-640.2494"/>
</g>
<!-- 139928813634320 -->
<g id="node30" class="node">
<title>139928813634320</title>
<polygon fill="#ffffff" stroke="#000000" points="941,-630 872,-630 872,-592 941,-592 941,-630"/>
<text text-anchor="middle" x="906.5" y="-614.8" font-family="Times,serif" font-size="14.00" fill="#000000">Log2()</text>
<text text-anchor="middle" x="906.5" y="-599.8" font-family="Times,serif" font-size="14.00" fill="#000000">t=0.19ms</text>
</g>
<!-- 139928813420352&#45;&gt;139928813634320 -->
<g id="edge33" class="edge">
<title>139928813420352&#45;&gt;139928813634320</title>
<path fill="none" stroke="#000000" d="M894,-665.9432C894,-665.9432 894,-640.2495 894,-640.2495"/>
<polygon fill="#000000" stroke="#000000" points="897.5001,-640.2494 894,-630.2495 890.5001,-640.2495 897.5001,-640.2494"/>
</g>
<!-- 139928813634320&#45;&gt;139928813634464 -->
<g id="edge32" class="edge">
<title>139928813634320&#45;&gt;139928813634464</title>
<path fill="none" stroke="#000000" d="M906.5,-591.9546C906.5,-591.9546 906.5,-492.4423 906.5,-492.4423"/>
<polygon fill="#000000" stroke="#000000" points="910.0001,-492.4423 906.5,-482.4423 903.0001,-492.4423 910.0001,-492.4423"/>
</g>
</g>
</svg>
