<?xml version="1.0" encoding="UTF-8" standalone="no"?>
<!DOCTYPE svg PUBLIC "-//W3C//DTD SVG 1.1//EN"
 "http://www.w3.org/Graphics/SVG/1.1/DTD/svg11.dtd">
<!-- Generated by graphviz version 2.40.1 (20161225.0304)
 -->
<!-- Title: Computations Pages: 1 -->
<svg width="1563pt" height="692pt"
 viewBox="0.00 0.00 1563.00 692.00" xmlns="http://www.w3.org/2000/svg" xmlns:xlink="http://www.w3.org/1999/xlink">
<g id="graph0" class="graph" transform="scale(1 1) rotate(0) translate(4 688)">
<title>Computations</title>
<polygon fill="#ffffff" stroke="transparent" points="-4,4 -4,-688 1559,-688 1559,4 -4,4"/>
<!-- 139877313447248 -->
<g id="node1" class="node">
<title>139877313447248</title>
<polygon fill="#ffff00" stroke="#000000" points="1361.5,-36 1128.5,-36 1128.5,0 1361.5,0 1361.5,-36"/>
<text text-anchor="middle" x="1245" y="-14.3" font-family="Times,serif" font-size="14.00" fill="#000000">Star(ip_address=localhost, port=50000)</text>
</g>
<!-- 139877313447056 -->
<g id="node2" class="node">
<title>139877313447056</title>
<polygon fill="#ffff00" stroke="#000000" points="1160,-108 1106,-108 1106,-72 1160,-72 1160,-108"/>
<text text-anchor="middle" x="1133" y="-86.3" font-family="Times,serif" font-size="14.00" fill="#000000">Roll()</text>
</g>
<!-- 139877313447056&#45;&gt;139877313447248 -->
<g id="edge1" class="edge">
<title>139877313447056&#45;&gt;139877313447248</title>
<path fill="none" stroke="#000000" d="M1144.25,-71.8314C1144.25,-71.8314 1144.25,-46.4133 1144.25,-46.4133"/>
<polygon fill="#000000" stroke="#000000" points="1147.7501,-46.4132 1144.25,-36.4133 1140.7501,-46.4133 1147.7501,-46.4132"/>
</g>
<!-- 139877313261520 -->
<g id="node3" class="node">
<title>139877313261520</title>
<polygon fill="#ffffff" stroke="#000000" points="1312,-108 1178,-108 1178,-72 1312,-72 1312,-108"/>
<text text-anchor="middle" x="1245" y="-86.3" font-family="Times,serif" font-size="14.00" fill="#000000">Constant(constant=8)</text>
</g>
<!-- 139877313261520&#45;&gt;139877313447248 -->
<g id="edge2" class="edge">
<title>139877313261520&#45;&gt;139877313447248</title>
<path fill="none" stroke="#000000" d="M1245,-71.8314C1245,-71.8314 1245,-46.4133 1245,-46.4133"/>
<polygon fill="#000000" stroke="#000000" points="1248.5001,-46.4132 1245,-36.4133 1241.5001,-46.4133 1248.5001,-46.4132"/>
</g>
<!-- 139877313260512 -->
<g id="node4" class="node">
<title>139877313260512</title>
<polygon fill="#ffffff" stroke="#000000" points="1470,-108 1330,-108 1330,-72 1470,-72 1470,-108"/>
<text text-anchor="middle" x="1400" y="-86.3" font-family="Times,serif" font-size="14.00" fill="#000000">Constant(constant=36)</text>
</g>
<!-- 139877313260512&#45;&gt;139877313447248 -->
<g id="edge3" class="edge">
<title>139877313260512&#45;&gt;139877313447248</title>
<path fill="none" stroke="#000000" d="M1345.75,-71.8314C1345.75,-71.8314 1345.75,-46.4133 1345.75,-46.4133"/>
<polygon fill="#000000" stroke="#000000" points="1349.2501,-46.4132 1345.75,-36.4133 1342.2501,-46.4133 1349.2501,-46.4132"/>
</g>
<!-- 139877313446816 -->
<g id="node5" class="node">
<title>139877313446816</title>
<polygon fill="#ffff00" stroke="#000000" points="1105,-180 1043,-180 1043,-144 1105,-144 1105,-180"/>
<text text-anchor="middle" x="1074" y="-158.3" font-family="Times,serif" font-size="14.00" fill="#000000">Mirror()</text>
</g>
<!-- 139877313446816&#45;&gt;139877313447056 -->
<g id="edge4" class="edge">
<title>139877313446816&#45;&gt;139877313447056</title>
<path fill="none" stroke="#000000" d="M1105.1067,-162C1110.5449,-162 1114.5,-162 1114.5,-162 1114.5,-162 1114.5,-118.1686 1114.5,-118.1686"/>
<polygon fill="#000000" stroke="#000000" points="1118.0001,-118.1686 1114.5,-108.1686 1111.0001,-118.1687 1118.0001,-118.1686"/>
</g>
<!-- 139877313446960 -->
<g id="node6" class="node">
<title>139877313446960</title>
<polygon fill="#ffffff" stroke="#000000" points="1263,-180 1123,-180 1123,-144 1263,-144 1263,-180"/>
<text text-anchor="middle" x="1193" y="-158.3" font-family="Times,serif" font-size="14.00" fill="#000000">Constant(constant=16)</text>
</g>
<!-- 139877313446960&#45;&gt;139877313447056 -->
<g id="edge5" class="edge">
<title>139877313446960&#45;&gt;139877313447056</title>
<path fill="none" stroke="#000000" d="M1141.5,-143.8314C1141.5,-143.8314 1141.5,-118.4133 1141.5,-118.4133"/>
<polygon fill="#000000" stroke="#000000" points="1145.0001,-118.4132 1141.5,-108.4133 1138.0001,-118.4133 1145.0001,-118.4132"/>
</g>
<!-- 139877313446576 -->
<g id="node7" class="node">
<title>139877313446576</title>
<polygon fill="#ffff00" stroke="#000000" points="1060,-252 928,-252 928,-216 1060,-216 1060,-252"/>
<text text-anchor="middle" x="994" y="-230.3" font-family="Times,serif" font-size="14.00" fill="#000000">VolumeNormalizer()</text>
</g>
<!-- 139877313446576&#45;&gt;139877313446816 -->
<g id="edge6" class="edge">
<title>139877313446576&#45;&gt;139877313446816</title>
<path fill="none" stroke="#000000" d="M1051.5,-215.8314C1051.5,-215.8314 1051.5,-190.4133 1051.5,-190.4133"/>
<polygon fill="#000000" stroke="#000000" points="1055.0001,-190.4132 1051.5,-180.4133 1048.0001,-190.4133 1055.0001,-190.4132"/>
</g>
<!-- 139877313446864 -->
<g id="node8" class="node">
<title>139877313446864</title>
<polygon fill="#ffffff" stroke="#000000" points="1230,-252 1078,-252 1078,-216 1230,-216 1230,-252"/>
<text text-anchor="middle" x="1154" y="-230.3" font-family="Times,serif" font-size="14.00" fill="#000000">Constant(constant=True)</text>
</g>
<!-- 139877313446864&#45;&gt;139877313446816 -->
<g id="edge7" class="edge">
<title>139877313446864&#45;&gt;139877313446816</title>
<path fill="none" stroke="#000000" d="M1091.5,-215.8314C1091.5,-215.8314 1091.5,-190.4133 1091.5,-190.4133"/>
<polygon fill="#000000" stroke="#000000" points="1095.0001,-190.4132 1091.5,-180.4133 1088.0001,-190.4133 1095.0001,-190.4132"/>
</g>
<!-- 139877313446384 -->
<g id="node9" class="node">
<title>139877313446384</title>
<polygon fill="#ffff00" stroke="#000000" points="967,-324 887,-324 887,-288 967,-288 967,-324"/>
<text text-anchor="middle" x="927" y="-302.3" font-family="Times,serif" font-size="14.00" fill="#000000">Resample()</text>
</g>
<!-- 139877313446384&#45;&gt;139877313446576 -->
<g id="edge8" class="edge">
<title>139877313446384&#45;&gt;139877313446576</title>
<path fill="none" stroke="#000000" d="M947.5,-287.8314C947.5,-287.8314 947.5,-262.4133 947.5,-262.4133"/>
<polygon fill="#000000" stroke="#000000" points="951.0001,-262.4132 947.5,-252.4133 944.0001,-262.4133 951.0001,-262.4132"/>
</g>
<!-- 139877313446480 -->
<g id="node10" class="node">
<title>139877313446480</title>
<polygon fill="#ffffff" stroke="#000000" points="1137,-324 985,-324 985,-288 1137,-288 1137,-324"/>
<text text-anchor="middle" x="1061" y="-302.3" font-family="Times,serif" font-size="14.00" fill="#000000">Constant(constant=True)</text>
</g>
<!-- 139877313446480&#45;&gt;139877313446576 -->
<g id="edge9" class="edge">
<title>139877313446480&#45;&gt;139877313446576</title>
<path fill="none" stroke="#000000" d="M1022.5,-287.8314C1022.5,-287.8314 1022.5,-262.4133 1022.5,-262.4133"/>
<polygon fill="#000000" stroke="#000000" points="1026.0001,-262.4132 1022.5,-252.4133 1019.0001,-262.4133 1026.0001,-262.4132"/>
</g>
<!-- 139877313261088 -->
<g id="node11" class="node">
<title>139877313261088</title>
<polygon fill="#ffffff" stroke="#000000" points="954,-396 900,-396 900,-360 954,-360 954,-396"/>
<text text-anchor="middle" x="927" y="-374.3" font-family="Times,serif" font-size="14.00" fill="#000000">Log2()</text>
</g>
<!-- 139877313261088&#45;&gt;139877313446384 -->
<g id="edge10" class="edge">
<title>139877313261088&#45;&gt;139877313446384</title>
<path fill="none" stroke="#000000" d="M927,-359.8314C927,-359.8314 927,-334.4133 927,-334.4133"/>
<polygon fill="#000000" stroke="#000000" points="930.5001,-334.4132 927,-324.4133 923.5001,-334.4133 930.5001,-334.4132"/>
</g>
<!-- 139877313446192 -->
<g id="node12" class="node">
<title>139877313446192</title>
<polygon fill="#ffff00" stroke="#000000" points="871,-396 797,-396 797,-360 871,-360 871,-396"/>
<text text-anchor="middle" x="834" y="-374.3" font-family="Times,serif" font-size="14.00" fill="#000000">Multiply()</text>
</g>
<!-- 139877313446192&#45;&gt;139877313446384 -->
<g id="edge11" class="edge">
<title>139877313446192&#45;&gt;139877313446384</title>
<path fill="none" stroke="#000000" d="M871.0306,-378C882.8846,-378 893,-378 893,-378 893,-378 893,-334.1686 893,-334.1686"/>
<polygon fill="#000000" stroke="#000000" points="896.5001,-334.1686 893,-324.1686 889.5001,-334.1687 896.5001,-334.1686"/>
</g>
<!-- 139877313446288 -->
<g id="node13" class="node">
<title>139877313446288</title>
<polygon fill="#ffffff" stroke="#000000" points="1213,-396 1139,-396 1139,-360 1213,-360 1213,-396"/>
<text text-anchor="middle" x="1176" y="-374.3" font-family="Times,serif" font-size="14.00" fill="#000000">Linspace()</text>
</g>
<!-- 139877313446288&#45;&gt;139877313446384 -->
<g id="edge12" class="edge">
<title>139877313446288&#45;&gt;139877313446384</title>
<path fill="none" stroke="#000000" d="M1138.5499,-378C1076.9509,-378 961,-378 961,-378 961,-378 961,-334.1686 961,-334.1686"/>
<polygon fill="#000000" stroke="#000000" points="964.5001,-334.1686 961,-324.1686 957.5001,-334.1687 964.5001,-334.1686"/>
</g>
<!-- 139877313261232 -->
<g id="node14" class="node">
<title>139877313261232</title>
<polygon fill="#ffffff" stroke="#000000" points="1167,-468 955,-468 955,-432 1167,-432 1167,-468"/>
<text text-anchor="middle" x="1061" y="-446.3" font-family="Times,serif" font-size="14.00" fill="#000000">Constant(constant=6.02236781303)</text>
</g>
<!-- 139877313261232&#45;&gt;139877313446288 -->
<g id="edge13" class="edge">
<title>139877313261232&#45;&gt;139877313446288</title>
<path fill="none" stroke="#000000" d="M1153,-431.8314C1153,-431.8314 1153,-406.4133 1153,-406.4133"/>
<polygon fill="#000000" stroke="#000000" points="1156.5001,-406.4132 1153,-396.4133 1149.5001,-406.4133 1156.5001,-406.4132"/>
</g>
<!-- 139877313259744 -->
<g id="node15" class="node">
<title>139877313259744</title>
<polygon fill="#ffffff" stroke="#000000" points="1397,-468 1185,-468 1185,-432 1397,-432 1397,-468"/>
<text text-anchor="middle" x="1291" y="-446.3" font-family="Times,serif" font-size="14.00" fill="#000000">Constant(constant=11.0313565963)</text>
</g>
<!-- 139877313259744&#45;&gt;139877313446288 -->
<g id="edge14" class="edge">
<title>139877313259744&#45;&gt;139877313446288</title>
<path fill="none" stroke="#000000" d="M1199,-431.8314C1199,-431.8314 1199,-406.4133 1199,-406.4133"/>
<polygon fill="#000000" stroke="#000000" points="1202.5001,-406.4132 1199,-396.4133 1195.5001,-406.4133 1202.5001,-406.4132"/>
</g>
<!-- 139877313260416 -->
<g id="node16" class="node">
<title>139877313260416</title>
<polygon fill="#ffffff" stroke="#000000" points="1555,-468 1415,-468 1415,-432 1555,-432 1555,-468"/>
<text text-anchor="middle" x="1485" y="-446.3" font-family="Times,serif" font-size="14.00" fill="#000000">Constant(constant=18)</text>
</g>
<!-- 139877313260416&#45;&gt;139877313446288 -->
<g id="edge15" class="edge">
<title>139877313260416&#45;&gt;139877313446288</title>
<path fill="none" stroke="#000000" d="M1442.5,-431.8314C1442.5,-410.502 1442.5,-378 1442.5,-378 1442.5,-378 1223.0557,-378 1223.0557,-378"/>
<polygon fill="#000000" stroke="#000000" points="1223.0557,-374.5001 1213.0557,-378 1223.0556,-381.5001 1223.0557,-374.5001"/>
</g>
<!-- 139877313261328 -->
<g id="node17" class="node">
<title>139877313261328</title>
<polygon fill="#ffffff" stroke="#000000" points="899,-468 769,-468 769,-432 899,-432 899,-468"/>
<text text-anchor="middle" x="834" y="-446.3" font-family="Times,serif" font-size="14.00" fill="#000000">AWeightingVector()</text>
</g>
<!-- 139877313261328&#45;&gt;139877313446192 -->
<g id="edge16" class="edge">
<title>139877313261328&#45;&gt;139877313446192</title>
<path fill="none" stroke="#000000" d="M834,-431.8314C834,-431.8314 834,-406.4133 834,-406.4133"/>
<polygon fill="#000000" stroke="#000000" points="837.5001,-406.4132 834,-396.4133 830.5001,-406.4133 837.5001,-406.4132"/>
</g>
<!-- 139877313446096 -->
<g id="node18" class="node">
<title>139877313446096</title>
<polygon fill="#ffff00" stroke="#000000" points="751,-468 605,-468 605,-432 751,-432 751,-468"/>
<text text-anchor="middle" x="678" y="-446.3" font-family="Times,serif" font-size="14.00" fill="#000000">FastFourierTransform()</text>
</g>
<!-- 139877313446096&#45;&gt;139877313446192 -->
<g id="edge17" class="edge">
<title>139877313446096&#45;&gt;139877313446192</title>
<path fill="none" stroke="#000000" d="M678,-431.8314C678,-410.502 678,-378 678,-378 678,-378 786.6341,-378 786.6341,-378"/>
<polygon fill="#000000" stroke="#000000" points="786.6341,-381.5001 796.6341,-378 786.6341,-374.5001 786.6341,-381.5001"/>
</g>
<!-- 139877313446000 -->
<g id="node19" class="node">
<title>139877313446000</title>
<polygon fill="#ffff00" stroke="#000000" points="685,-540 611,-540 611,-504 685,-504 685,-540"/>
<text text-anchor="middle" x="648" y="-518.3" font-family="Times,serif" font-size="14.00" fill="#000000">Multiply()</text>
</g>
<!-- 139877313446000&#45;&gt;139877313446096 -->
<g id="edge18" class="edge">
<title>139877313446000&#45;&gt;139877313446096</title>
<path fill="none" stroke="#000000" d="M648,-503.8314C648,-503.8314 648,-478.4133 648,-478.4133"/>
<polygon fill="#000000" stroke="#000000" points="651.5001,-478.4132 648,-468.4133 644.5001,-478.4133 651.5001,-478.4132"/>
</g>
<!-- 139877313261136 -->
<g id="node20" class="node">
<title>139877313261136</title>
<polygon fill="#ffffff" stroke="#000000" points="999.5,-612 730.5,-612 730.5,-576 999.5,-576 999.5,-612"/>
<text text-anchor="middle" x="865" y="-590.3" font-family="Times,serif" font-size="14.00" fill="#000000">Constant(constant=4.5351473922902495e&#45;05)</text>
</g>
<!-- 139877313261136&#45;&gt;139877313446096 -->
<g id="edge19" class="edge">
<title>139877313261136&#45;&gt;139877313446096</title>
<path fill="none" stroke="#000000" d="M740.75,-575.7623C740.75,-575.7623 740.75,-478.0896 740.75,-478.0896"/>
<polygon fill="#000000" stroke="#000000" points="744.2501,-478.0896 740.75,-468.0896 737.2501,-478.0897 744.2501,-478.0896"/>
</g>
<!-- 139877313261184 -->
<g id="node24" class="node">
<title>139877313261184</title>
<polygon fill="#ffffff" stroke="#000000" points="1001.5,-540 790.5,-540 790.5,-504 1001.5,-504 1001.5,-540"/>
<text text-anchor="middle" x="896" y="-518.3" font-family="Times,serif" font-size="14.00" fill="#000000">FastFourierTransformFrequencies()</text>
</g>
<!-- 139877313261136&#45;&gt;139877313261184 -->
<g id="edge26" class="edge">
<title>139877313261136&#45;&gt;139877313261184</title>
<path fill="none" stroke="#000000" d="M895,-575.8314C895,-575.8314 895,-550.4133 895,-550.4133"/>
<polygon fill="#000000" stroke="#000000" points="898.5001,-550.4132 895,-540.4133 891.5001,-550.4133 898.5001,-550.4132"/>
</g>
<!-- 139877313260848 -->
<g id="node21" class="node">
<title>139877313260848</title>
<polygon fill="#ffff00" stroke="#000000" points="566,-612 0,-612 0,-576 566,-576 566,-612"/>
<text text-anchor="middle" x="283" y="-590.3" font-family="Times,serif" font-size="14.00" fill="#000000">AudioSource(audio_input=&lt;AudioInput(audio&#45;capture&#45;thread, started daemon 139877263668992)&gt;)</text>
</g>
<!-- 139877313260848&#45;&gt;139877313446000 -->
<g id="edge20" class="edge">
<title>139877313260848&#45;&gt;139877313446000</title>
<path fill="none" stroke="#000000" d="M283,-575.8314C283,-554.502 283,-522 283,-522 283,-522 600.9932,-522 600.9932,-522"/>
<polygon fill="#000000" stroke="#000000" points="600.9932,-525.5001 610.9932,-522 600.9932,-518.5001 600.9932,-525.5001"/>
</g>
<!-- 139877313261376 -->
<g id="node22" class="node">
<title>139877313261376</title>
<polygon fill="#ffffff" stroke="#000000" points="712,-612 584,-612 584,-576 712,-576 712,-612"/>
<text text-anchor="middle" x="648" y="-590.3" font-family="Times,serif" font-size="14.00" fill="#000000">HammingWindow()</text>
</g>
<!-- 139877313261376&#45;&gt;139877313446000 -->
<g id="edge21" class="edge">
<title>139877313261376&#45;&gt;139877313446000</title>
<path fill="none" stroke="#000000" d="M648,-575.8314C648,-575.8314 648,-550.4133 648,-550.4133"/>
<polygon fill="#000000" stroke="#000000" points="651.5001,-550.4132 648,-540.4133 644.5001,-550.4133 651.5001,-550.4132"/>
</g>
<!-- 139877313260992 -->
<g id="node23" class="node">
<title>139877313260992</title>
<polygon fill="#ffffff" stroke="#000000" points="725,-684 571,-684 571,-648 725,-648 725,-684"/>
<text text-anchor="middle" x="648" y="-662.3" font-family="Times,serif" font-size="14.00" fill="#000000">Constant(constant=1102)</text>
</g>
<!-- 139877313260992&#45;&gt;139877313260848 -->
<g id="edge23" class="edge">
<title>139877313260992&#45;&gt;139877313260848</title>
<path fill="none" stroke="#000000" d="M577.5,-647.8314C577.5,-626.502 577.5,-594 577.5,-594 577.5,-594 576.3149,-594 576.3149,-594"/>
<polygon fill="#000000" stroke="#000000" points="576.3149,-590.5001 566.3149,-594 576.3148,-597.5001 576.3149,-590.5001"/>
</g>
<!-- 139877313260992&#45;&gt;139877313261376 -->
<g id="edge22" class="edge">
<title>139877313260992&#45;&gt;139877313261376</title>
<path fill="none" stroke="#000000" d="M648,-647.8314C648,-647.8314 648,-622.4133 648,-622.4133"/>
<polygon fill="#000000" stroke="#000000" points="651.5001,-622.4132 648,-612.4133 644.5001,-622.4133 651.5001,-622.4132"/>
</g>
<!-- 139877313260992&#45;&gt;139877313261184 -->
<g id="edge25" class="edge">
<title>139877313260992&#45;&gt;139877313261184</title>
<path fill="none" stroke="#000000" d="M718.5,-647.7623C718.5,-609.0139 718.5,-522 718.5,-522 718.5,-522 780.4402,-522 780.4402,-522"/>
<polygon fill="#000000" stroke="#000000" points="780.4402,-525.5001 790.4402,-522 780.4401,-518.5001 780.4402,-525.5001"/>
</g>
<!-- 139877313261184&#45;&gt;139877313261088 -->
<g id="edge27" class="edge">
<title>139877313261184&#45;&gt;139877313261088</title>
<path fill="none" stroke="#000000" d="M927,-503.7623C927,-503.7623 927,-406.0896 927,-406.0896"/>
<polygon fill="#000000" stroke="#000000" points="930.5001,-406.0896 927,-396.0896 923.5001,-406.0897 930.5001,-406.0896"/>
</g>
<!-- 139877313261184&#45;&gt;139877313261328 -->
<g id="edge24" class="edge">
<title>139877313261184&#45;&gt;139877313261328</title>
<path fill="none" stroke="#000000" d="M844.75,-503.8314C844.75,-503.8314 844.75,-478.4133 844.75,-478.4133"/>
<polygon fill="#000000" stroke="#000000" points="848.2501,-478.4132 844.75,-468.4133 841.2501,-478.4133 848.2501,-478.4132"/>
</g>
</g>
</svg>
