<?xml version="1.0" encoding="UTF-8" standalone="no"?>
<!DOCTYPE svg PUBLIC "-//W3C//DTD SVG 1.1//EN"
 "http://www.w3.org/Graphics/SVG/1.1/DTD/svg11.dtd">
<!-- Generated by graphviz version 2.40.1 (20161225.0304)
 -->
<!-- Title: Computations Pages: 1 -->
<svg width="774pt" height="548pt"
 viewBox="0.00 0.00 774.00 548.00" xmlns="http://www.w3.org/2000/svg" xmlns:xlink="http://www.w3.org/1999/xlink">
<g id="graph0" class="graph" transform="scale(1 1) rotate(0) translate(4 544)">
<title>Computations</title>
<polygon fill="#ffffff" stroke="transparent" points="-4,4 -4,-544 770,-544 770,4 -4,4"/>
<!-- 140699073378960 -->
<g id="node1" class="node">
<title>140699073378960</title>
<polygon fill="#ffff00" stroke="#000000" points="663,-36 609,-36 609,0 663,0 663,-36"/>
<text text-anchor="middle" x="636" y="-14.3" font-family="Times,serif" font-size="14.00" fill="#000000">Roll()</text>
</g>
<!-- 140699073378768 -->
<g id="node2" class="node">
<title>140699073378768</title>
<polygon fill="#ffff00" stroke="#000000" points="608,-108 546,-108 546,-72 608,-72 608,-108"/>
<text text-anchor="middle" x="577" y="-86.3" font-family="Times,serif" font-size="14.00" fill="#000000">Mirror()</text>
</g>
<!-- 140699073378768&#45;&gt;140699073378960 -->
<g id="edge1" class="edge">
<title>140699073378768&#45;&gt;140699073378960</title>
<path fill="none" stroke="#000000" d="M608.1067,-90C613.5449,-90 617.5,-90 617.5,-90 617.5,-90 617.5,-46.1686 617.5,-46.1686"/>
<polygon fill="#000000" stroke="#000000" points="621.0001,-46.1686 617.5,-36.1686 614.0001,-46.1687 621.0001,-46.1686"/>
</g>
<!-- 140699073378864 -->
<g id="node3" class="node">
<title>140699073378864</title>
<polygon fill="#ffffff" stroke="#000000" points="766,-108 626,-108 626,-72 766,-72 766,-108"/>
<text text-anchor="middle" x="696" y="-86.3" font-family="Times,serif" font-size="14.00" fill="#000000">Constant(constant=16)</text>
</g>
<!-- 140699073378864&#45;&gt;140699073378960 -->
<g id="edge2" class="edge">
<title>140699073378864&#45;&gt;140699073378960</title>
<path fill="none" stroke="#000000" d="M644.5,-71.8314C644.5,-71.8314 644.5,-46.4133 644.5,-46.4133"/>
<polygon fill="#000000" stroke="#000000" points="648.0001,-46.4132 644.5,-36.4133 641.0001,-46.4133 648.0001,-46.4132"/>
</g>
<!-- 140699073378576 -->
<g id="node4" class="node">
<title>140699073378576</title>
<polygon fill="#ffff00" stroke="#000000" points="550,-180 470,-180 470,-144 550,-144 550,-180"/>
<text text-anchor="middle" x="510" y="-158.3" font-family="Times,serif" font-size="14.00" fill="#000000">Resample()</text>
</g>
<!-- 140699073378576&#45;&gt;140699073378768 -->
<g id="edge3" class="edge">
<title>140699073378576&#45;&gt;140699073378768</title>
<path fill="none" stroke="#000000" d="M550.1243,-156C557.8886,-156 563.6667,-156 563.6667,-156 563.6667,-156 563.6667,-118.0348 563.6667,-118.0348"/>
<polygon fill="#000000" stroke="#000000" points="567.1668,-118.0348 563.6667,-108.0348 560.1668,-118.0348 567.1668,-118.0348"/>
</g>
<!-- 140699073378672 -->
<g id="node5" class="node">
<title>140699073378672</title>
<polygon fill="#ffffff" stroke="#000000" points="720,-180 568,-180 568,-144 720,-144 720,-180"/>
<text text-anchor="middle" x="644" y="-158.3" font-family="Times,serif" font-size="14.00" fill="#000000">Constant(constant=True)</text>
</g>
<!-- 140699073378672&#45;&gt;140699073378768 -->
<g id="edge4" class="edge">
<title>140699073378672&#45;&gt;140699073378768</title>
<path fill="none" stroke="#000000" d="M588,-143.8314C588,-143.8314 588,-118.4133 588,-118.4133"/>
<polygon fill="#000000" stroke="#000000" points="591.5001,-118.4132 588,-108.4133 584.5001,-118.4133 591.5001,-118.4132"/>
</g>
<!-- 140699127221936 -->
<g id="node6" class="node">
<title>140699127221936</title>
<polygon fill="#ffffff" stroke="#000000" points="537,-252 483,-252 483,-216 537,-216 537,-252"/>
<text text-anchor="middle" x="510" y="-230.3" font-family="Times,serif" font-size="14.00" fill="#000000">Log2()</text>
</g>
<!-- 140699127221936&#45;&gt;140699073378576 -->
<g id="edge5" class="edge">
<title>140699127221936&#45;&gt;140699073378576</title>
<path fill="none" stroke="#000000" d="M510,-215.8314C510,-215.8314 510,-190.4133 510,-190.4133"/>
<polygon fill="#000000" stroke="#000000" points="513.5001,-190.4132 510,-180.4133 506.5001,-190.4133 513.5001,-190.4132"/>
</g>
<!-- 140699073378480 -->
<g id="node7" class="node">
<title>140699073378480</title>
<polygon fill="#ffff00" stroke="#000000" points="460,-252 386,-252 386,-216 460,-216 460,-252"/>
<text text-anchor="middle" x="423" y="-230.3" font-family="Times,serif" font-size="14.00" fill="#000000">Multiply()</text>
</g>
<!-- 140699073378480&#45;&gt;140699073378576 -->
<g id="edge6" class="edge">
<title>140699073378480&#45;&gt;140699073378576</title>
<path fill="none" stroke="#000000" d="M460.1575,-234C469.2868,-234 476.5,-234 476.5,-234 476.5,-234 476.5,-190.1686 476.5,-190.1686"/>
<polygon fill="#000000" stroke="#000000" points="480.0001,-190.1686 476.5,-180.1686 473.0001,-190.1687 480.0001,-190.1686"/>
</g>
<!-- 140699151070112 -->
<g id="node8" class="node">
<title>140699151070112</title>
<polygon fill="#ffffff" stroke="#000000" points="711,-252 555,-252 555,-216 711,-216 711,-252"/>
<text text-anchor="middle" x="633" y="-230.3" font-family="Times,serif" font-size="14.00" fill="#000000">Constant(constant=None)</text>
</g>
<!-- 140699151070112&#45;&gt;140699073378576 -->
<g id="edge7" class="edge">
<title>140699151070112&#45;&gt;140699073378576</title>
<path fill="none" stroke="#000000" d="M559.3333,-215.9652C559.3333,-196.4238 559.3333,-168 559.3333,-168 559.3333,-168 558.4285,-168 558.4285,-168"/>
<polygon fill="#000000" stroke="#000000" points="560.2849,-164.5001 550.2848,-168 560.2848,-171.5001 560.2849,-164.5001"/>
</g>
<!-- 140699127221888 -->
<g id="node9" class="node">
<title>140699127221888</title>
<polygon fill="#ffffff" stroke="#000000" points="488,-324 358,-324 358,-288 488,-288 488,-324"/>
<text text-anchor="middle" x="423" y="-302.3" font-family="Times,serif" font-size="14.00" fill="#000000">AWeightingVector()</text>
</g>
<!-- 140699127221888&#45;&gt;140699073378480 -->
<g id="edge8" class="edge">
<title>140699127221888&#45;&gt;140699073378480</title>
<path fill="none" stroke="#000000" d="M423,-287.8314C423,-287.8314 423,-262.4133 423,-262.4133"/>
<polygon fill="#000000" stroke="#000000" points="426.5001,-262.4132 423,-252.4133 419.5001,-262.4133 426.5001,-262.4132"/>
</g>
<!-- 140699073378384 -->
<g id="node10" class="node">
<title>140699073378384</title>
<polygon fill="#ffff00" stroke="#000000" points="340,-324 194,-324 194,-288 340,-288 340,-324"/>
<text text-anchor="middle" x="267" y="-302.3" font-family="Times,serif" font-size="14.00" fill="#000000">FastFourierTransform()</text>
</g>
<!-- 140699073378384&#45;&gt;140699073378480 -->
<g id="edge9" class="edge">
<title>140699073378384&#45;&gt;140699073378480</title>
<path fill="none" stroke="#000000" d="M267,-287.8314C267,-266.502 267,-234 267,-234 267,-234 375.6341,-234 375.6341,-234"/>
<polygon fill="#000000" stroke="#000000" points="375.6341,-237.5001 385.6341,-234 375.6341,-230.5001 375.6341,-237.5001"/>
</g>
<!-- 140699073378288 -->
<g id="node11" class="node">
<title>140699073378288</title>
<polygon fill="#ffff00" stroke="#000000" points="283,-396 209,-396 209,-360 283,-360 283,-396"/>
<text text-anchor="middle" x="246" y="-374.3" font-family="Times,serif" font-size="14.00" fill="#000000">Multiply()</text>
</g>
<!-- 140699073378288&#45;&gt;140699073378384 -->
<g id="edge10" class="edge">
<title>140699073378288&#45;&gt;140699073378384</title>
<path fill="none" stroke="#000000" d="M246,-359.8314C246,-359.8314 246,-334.4133 246,-334.4133"/>
<polygon fill="#000000" stroke="#000000" points="249.5001,-334.4132 246,-324.4133 242.5001,-334.4133 249.5001,-334.4132"/>
</g>
<!-- 140699127220736 -->
<g id="node12" class="node">
<title>140699127220736</title>
<polygon fill="#ffffff" stroke="#000000" points="514.5,-468 363.5,-468 363.5,-432 514.5,-432 514.5,-468"/>
<text text-anchor="middle" x="439" y="-446.3" font-family="Times,serif" font-size="14.00" fill="#000000">Constant(constant=0.02)</text>
</g>
<!-- 140699127220736&#45;&gt;140699073378384 -->
<g id="edge11" class="edge">
<title>140699127220736&#45;&gt;140699073378384</title>
<path fill="none" stroke="#000000" d="M363.1564,-450C356.2286,-450 351.75,-450 351.75,-450 351.75,-450 351.75,-306 351.75,-306 351.75,-306 350.3202,-306 350.3202,-306"/>
<polygon fill="#000000" stroke="#000000" points="350.3203,-302.5001 340.3202,-306 350.3202,-309.5001 350.3203,-302.5001"/>
</g>
<!-- 140699127221168 -->
<g id="node16" class="node">
<title>140699127221168</title>
<polygon fill="#ffffff" stroke="#000000" points="603.5,-396 392.5,-396 392.5,-360 603.5,-360 603.5,-396"/>
<text text-anchor="middle" x="498" y="-374.3" font-family="Times,serif" font-size="14.00" fill="#000000">FastFourierTransformFrequencies()</text>
</g>
<!-- 140699127220736&#45;&gt;140699127221168 -->
<g id="edge18" class="edge">
<title>140699127220736&#45;&gt;140699127221168</title>
<path fill="none" stroke="#000000" d="M453.5,-431.8314C453.5,-431.8314 453.5,-406.4133 453.5,-406.4133"/>
<polygon fill="#000000" stroke="#000000" points="457.0001,-406.4132 453.5,-396.4133 450.0001,-406.4133 457.0001,-406.4132"/>
</g>
<!-- 140699073807312 -->
<g id="node13" class="node">
<title>140699073807312</title>
<polygon fill="#ffffff" stroke="#000000" points="128,-468 0,-468 0,-432 128,-432 128,-468"/>
<text text-anchor="middle" x="64" y="-446.3" font-family="Times,serif" font-size="14.00" fill="#000000">HammingWindow()</text>
</g>
<!-- 140699073807312&#45;&gt;140699073378288 -->
<g id="edge12" class="edge">
<title>140699073807312&#45;&gt;140699073378288</title>
<path fill="none" stroke="#000000" d="M64,-431.8314C64,-410.502 64,-378 64,-378 64,-378 198.7304,-378 198.7304,-378"/>
<polygon fill="#000000" stroke="#000000" points="198.7304,-381.5001 208.7304,-378 198.7304,-374.5001 198.7304,-381.5001"/>
</g>
<!-- 140699073378192 -->
<g id="node14" class="node">
<title>140699073378192</title>
<polygon fill="#ffff00" stroke="#000000" points="345.5,-468 146.5,-468 146.5,-432 345.5,-432 345.5,-468"/>
<text text-anchor="middle" x="246" y="-446.3" font-family="Times,serif" font-size="14.00" fill="#000000">AudioSource(audio_input=None)</text>
</g>
<!-- 140699073378192&#45;&gt;140699073378288 -->
<g id="edge13" class="edge">
<title>140699073378192&#45;&gt;140699073378288</title>
<path fill="none" stroke="#000000" d="M246,-431.8314C246,-431.8314 246,-406.4133 246,-406.4133"/>
<polygon fill="#000000" stroke="#000000" points="249.5001,-406.4132 246,-396.4133 242.5001,-406.4133 249.5001,-406.4132"/>
</g>
<!-- 140699127281360 -->
<g id="node15" class="node">
<title>140699127281360</title>
<polygon fill="#ffffff" stroke="#000000" points="319.5,-540 172.5,-540 172.5,-504 319.5,-504 319.5,-540"/>
<text text-anchor="middle" x="246" y="-518.3" font-family="Times,serif" font-size="14.00" fill="#000000">Constant(constant=200)</text>
</g>
<!-- 140699127281360&#45;&gt;140699073807312 -->
<g id="edge15" class="edge">
<title>140699127281360&#45;&gt;140699073807312</title>
<path fill="none" stroke="#000000" d="M172.4982,-522C121.9865,-522 64,-522 64,-522 64,-522 64,-478.1686 64,-478.1686"/>
<polygon fill="#000000" stroke="#000000" points="67.5001,-478.1686 64,-468.1686 60.5001,-478.1687 67.5001,-478.1686"/>
</g>
<!-- 140699127281360&#45;&gt;140699073378192 -->
<g id="edge14" class="edge">
<title>140699127281360&#45;&gt;140699073378192</title>
<path fill="none" stroke="#000000" d="M246,-503.8314C246,-503.8314 246,-478.4133 246,-478.4133"/>
<polygon fill="#000000" stroke="#000000" points="249.5001,-478.4132 246,-468.4133 242.5001,-478.4133 249.5001,-478.4132"/>
</g>
<!-- 140699127281360&#45;&gt;140699127221168 -->
<g id="edge17" class="edge">
<title>140699127281360&#45;&gt;140699127221168</title>
<path fill="none" stroke="#000000" d="M319.7803,-522C412.3168,-522 559,-522 559,-522 559,-522 559,-406.2377 559,-406.2377"/>
<polygon fill="#000000" stroke="#000000" points="562.5001,-406.2377 559,-396.2377 555.5001,-406.2377 562.5001,-406.2377"/>
</g>
<!-- 140699127221168&#45;&gt;140699127221936 -->
<g id="edge19" class="edge">
<title>140699127221168&#45;&gt;140699127221936</title>
<path fill="none" stroke="#000000" d="M512.5,-359.7623C512.5,-359.7623 512.5,-262.0896 512.5,-262.0896"/>
<polygon fill="#000000" stroke="#000000" points="516.0001,-262.0896 512.5,-252.0896 509.0001,-262.0897 516.0001,-262.0896"/>
</g>
<!-- 140699127221168&#45;&gt;140699127221888 -->
<g id="edge16" class="edge">
<title>140699127221168&#45;&gt;140699127221888</title>
<path fill="none" stroke="#000000" d="M440.25,-359.8314C440.25,-359.8314 440.25,-334.4133 440.25,-334.4133"/>
<polygon fill="#000000" stroke="#000000" points="443.7501,-334.4132 440.25,-324.4133 436.7501,-334.4133 443.7501,-334.4132"/>
</g>
</g>
</svg>
